<svg xmlns="http://www.w3.org/2000/svg" xmlns:xlink="http://www.w3.org/1999/xlink" width="1835.713" height="689.769" viewBox="0 0 1835.713 689.769">
  <defs>
    <clipPath id="clip-path">
      <rect width="1835.713" height="689.769" fill="none"/>
    </clipPath>
  </defs>
  <g id="Cuadrícula_de_repetición_10" data-name="Cuadrícula de repetición 10" clip-path="url(#clip-path)">
    <g id="Grupo_1738" data-name="Grupo 1738" transform="translate(-29 -4569)">
      <path id="Trazado_1233" data-name="Trazado 1233" d="M546.717,1500.264a24.065,24.065,0,0,0-5.784,15.667c0,4.725,9.663,13.137,16.77,18.688a.326.326,0,0,0,.5-.371Zm36.788,0-11.49,33.984a.327.327,0,0,0,.5.373c7.107-5.55,16.773-13.964,16.773-18.689a24.052,24.052,0,0,0-5.786-15.667m-34.1-2.7,13.337,39.453a.338.338,0,0,0,.657-.109v-45.072a24.045,24.045,0,0,0-13.994,5.728m31.4,0-13.337,39.451a.338.338,0,0,1-.657-.107v-45.072a24.045,24.045,0,0,1,13.994,5.728" transform="translate(-511.934 3077.16)" fill="#e3f2fd"/>
      <path id="Trazado_1234" data-name="Trazado 1234" d="M546.717,1500.264a24.065,24.065,0,0,0-5.784,15.667c0,4.725,9.663,13.137,16.77,18.688a.326.326,0,0,0,.5-.371Zm36.788,0-11.49,33.984a.327.327,0,0,0,.5.373c7.107-5.55,16.773-13.964,16.773-18.689a24.052,24.052,0,0,0-5.786-15.667m-34.1-2.7,13.337,39.453a.338.338,0,0,0,.657-.109v-45.072a24.045,24.045,0,0,0-13.994,5.728m31.4,0-13.337,39.451a.338.338,0,0,1-.657-.107v-45.072a24.045,24.045,0,0,1,13.994,5.728" transform="translate(-449.362 3148.743)" fill="#e3f2fd"/>
    </g>
    <g id="Grupo_1738-2" data-name="Grupo 1738" transform="translate(103 -4569)">
      <path id="Trazado_1233-2" data-name="Trazado 1233" d="M546.717,1500.264a24.065,24.065,0,0,0-5.784,15.667c0,4.725,9.663,13.137,16.77,18.688a.326.326,0,0,0,.5-.371Zm36.788,0-11.49,33.984a.327.327,0,0,0,.5.373c7.107-5.55,16.773-13.964,16.773-18.689a24.052,24.052,0,0,0-5.786-15.667m-34.1-2.7,13.337,39.453a.338.338,0,0,0,.657-.109v-45.072a24.045,24.045,0,0,0-13.994,5.728m31.4,0-13.337,39.451a.338.338,0,0,1-.657-.107v-45.072a24.045,24.045,0,0,1,13.994,5.728" transform="translate(-511.934 3077.16)" fill="#e3f2fd"/>
      <path id="Trazado_1234-2" data-name="Trazado 1234" d="M546.717,1500.264a24.065,24.065,0,0,0-5.784,15.667c0,4.725,9.663,13.137,16.77,18.688a.326.326,0,0,0,.5-.371Zm36.788,0-11.49,33.984a.327.327,0,0,0,.5.373c7.107-5.55,16.773-13.964,16.773-18.689a24.052,24.052,0,0,0-5.786-15.667m-34.1-2.7,13.337,39.453a.338.338,0,0,0,.657-.109v-45.072a24.045,24.045,0,0,0-13.994,5.728m31.4,0-13.337,39.451a.338.338,0,0,1-.657-.107v-45.072a24.045,24.045,0,0,1,13.994,5.728" transform="translate(-449.362 3148.743)" fill="#e3f2fd"/>
    </g>
    <g id="Grupo_1738-3" data-name="Grupo 1738" transform="translate(235 -4569)">
      <path id="Trazado_1233-3" data-name="Trazado 1233" d="M546.717,1500.264a24.065,24.065,0,0,0-5.784,15.667c0,4.725,9.663,13.137,16.77,18.688a.326.326,0,0,0,.5-.371Zm36.788,0-11.49,33.984a.327.327,0,0,0,.5.373c7.107-5.55,16.773-13.964,16.773-18.689a24.052,24.052,0,0,0-5.786-15.667m-34.1-2.7,13.337,39.453a.338.338,0,0,0,.657-.109v-45.072a24.045,24.045,0,0,0-13.994,5.728m31.4,0-13.337,39.451a.338.338,0,0,1-.657-.107v-45.072a24.045,24.045,0,0,1,13.994,5.728" transform="translate(-511.934 3077.16)" fill="#e3f2fd"/>
      <path id="Trazado_1234-3" data-name="Trazado 1234" d="M546.717,1500.264a24.065,24.065,0,0,0-5.784,15.667c0,4.725,9.663,13.137,16.77,18.688a.326.326,0,0,0,.5-.371Zm36.788,0-11.49,33.984a.327.327,0,0,0,.5.373c7.107-5.55,16.773-13.964,16.773-18.689a24.052,24.052,0,0,0-5.786-15.667m-34.1-2.7,13.337,39.453a.338.338,0,0,0,.657-.109v-45.072a24.045,24.045,0,0,0-13.994,5.728m31.4,0-13.337,39.451a.338.338,0,0,1-.657-.107v-45.072a24.045,24.045,0,0,1,13.994,5.728" transform="translate(-449.362 3148.743)" fill="#e3f2fd"/>
    </g>
    <g id="Grupo_1738-4" data-name="Grupo 1738" transform="translate(367 -4569)">
      <path id="Trazado_1233-4" data-name="Trazado 1233" d="M546.717,1500.264a24.065,24.065,0,0,0-5.784,15.667c0,4.725,9.663,13.137,16.77,18.688a.326.326,0,0,0,.5-.371Zm36.788,0-11.49,33.984a.327.327,0,0,0,.5.373c7.107-5.55,16.773-13.964,16.773-18.689a24.052,24.052,0,0,0-5.786-15.667m-34.1-2.7,13.337,39.453a.338.338,0,0,0,.657-.109v-45.072a24.045,24.045,0,0,0-13.994,5.728m31.4,0-13.337,39.451a.338.338,0,0,1-.657-.107v-45.072a24.045,24.045,0,0,1,13.994,5.728" transform="translate(-511.934 3077.16)" fill="#e3f2fd"/>
      <path id="Trazado_1234-4" data-name="Trazado 1234" d="M546.717,1500.264a24.065,24.065,0,0,0-5.784,15.667c0,4.725,9.663,13.137,16.77,18.688a.326.326,0,0,0,.5-.371Zm36.788,0-11.49,33.984a.327.327,0,0,0,.5.373c7.107-5.55,16.773-13.964,16.773-18.689a24.052,24.052,0,0,0-5.786-15.667m-34.1-2.7,13.337,39.453a.338.338,0,0,0,.657-.109v-45.072a24.045,24.045,0,0,0-13.994,5.728m31.4,0-13.337,39.451a.338.338,0,0,1-.657-.107v-45.072a24.045,24.045,0,0,1,13.994,5.728" transform="translate(-449.362 3148.743)" fill="#e3f2fd"/>
    </g>
    <g id="Grupo_1738-5" data-name="Grupo 1738" transform="translate(499 -4569)">
      <path id="Trazado_1233-5" data-name="Trazado 1233" d="M546.717,1500.264a24.065,24.065,0,0,0-5.784,15.667c0,4.725,9.663,13.137,16.77,18.688a.326.326,0,0,0,.5-.371Zm36.788,0-11.49,33.984a.327.327,0,0,0,.5.373c7.107-5.55,16.773-13.964,16.773-18.689a24.052,24.052,0,0,0-5.786-15.667m-34.1-2.7,13.337,39.453a.338.338,0,0,0,.657-.109v-45.072a24.045,24.045,0,0,0-13.994,5.728m31.4,0-13.337,39.451a.338.338,0,0,1-.657-.107v-45.072a24.045,24.045,0,0,1,13.994,5.728" transform="translate(-511.934 3077.16)" fill="#e3f2fd"/>
      <path id="Trazado_1234-5" data-name="Trazado 1234" d="M546.717,1500.264a24.065,24.065,0,0,0-5.784,15.667c0,4.725,9.663,13.137,16.77,18.688a.326.326,0,0,0,.5-.371Zm36.788,0-11.49,33.984a.327.327,0,0,0,.5.373c7.107-5.55,16.773-13.964,16.773-18.689a24.052,24.052,0,0,0-5.786-15.667m-34.1-2.7,13.337,39.453a.338.338,0,0,0,.657-.109v-45.072a24.045,24.045,0,0,0-13.994,5.728m31.4,0-13.337,39.451a.338.338,0,0,1-.657-.107v-45.072a24.045,24.045,0,0,1,13.994,5.728" transform="translate(-449.362 3148.743)" fill="#e3f2fd"/>
    </g>
    <g id="Grupo_1738-6" data-name="Grupo 1738" transform="translate(631 -4569)">
      <path id="Trazado_1233-6" data-name="Trazado 1233" d="M546.717,1500.264a24.065,24.065,0,0,0-5.784,15.667c0,4.725,9.663,13.137,16.77,18.688a.326.326,0,0,0,.5-.371Zm36.788,0-11.49,33.984a.327.327,0,0,0,.5.373c7.107-5.55,16.773-13.964,16.773-18.689a24.052,24.052,0,0,0-5.786-15.667m-34.1-2.7,13.337,39.453a.338.338,0,0,0,.657-.109v-45.072a24.045,24.045,0,0,0-13.994,5.728m31.4,0-13.337,39.451a.338.338,0,0,1-.657-.107v-45.072a24.045,24.045,0,0,1,13.994,5.728" transform="translate(-511.934 3077.16)" fill="#e3f2fd"/>
      <path id="Trazado_1234-6" data-name="Trazado 1234" d="M546.717,1500.264a24.065,24.065,0,0,0-5.784,15.667c0,4.725,9.663,13.137,16.77,18.688a.326.326,0,0,0,.5-.371Zm36.788,0-11.49,33.984a.327.327,0,0,0,.5.373c7.107-5.55,16.773-13.964,16.773-18.689a24.052,24.052,0,0,0-5.786-15.667m-34.1-2.7,13.337,39.453a.338.338,0,0,0,.657-.109v-45.072a24.045,24.045,0,0,0-13.994,5.728m31.4,0-13.337,39.451a.338.338,0,0,1-.657-.107v-45.072a24.045,24.045,0,0,1,13.994,5.728" transform="translate(-449.362 3148.743)" fill="#e3f2fd"/>
    </g>
    <g id="Grupo_1738-7" data-name="Grupo 1738" transform="translate(763 -4569)">
      <path id="Trazado_1233-7" data-name="Trazado 1233" d="M546.717,1500.264a24.065,24.065,0,0,0-5.784,15.667c0,4.725,9.663,13.137,16.77,18.688a.326.326,0,0,0,.5-.371Zm36.788,0-11.49,33.984a.327.327,0,0,0,.5.373c7.107-5.55,16.773-13.964,16.773-18.689a24.052,24.052,0,0,0-5.786-15.667m-34.1-2.7,13.337,39.453a.338.338,0,0,0,.657-.109v-45.072a24.045,24.045,0,0,0-13.994,5.728m31.4,0-13.337,39.451a.338.338,0,0,1-.657-.107v-45.072a24.045,24.045,0,0,1,13.994,5.728" transform="translate(-511.934 3077.16)" fill="#e3f2fd"/>
      <path id="Trazado_1234-7" data-name="Trazado 1234" d="M546.717,1500.264a24.065,24.065,0,0,0-5.784,15.667c0,4.725,9.663,13.137,16.77,18.688a.326.326,0,0,0,.5-.371Zm36.788,0-11.49,33.984a.327.327,0,0,0,.5.373c7.107-5.55,16.773-13.964,16.773-18.689a24.052,24.052,0,0,0-5.786-15.667m-34.1-2.7,13.337,39.453a.338.338,0,0,0,.657-.109v-45.072a24.045,24.045,0,0,0-13.994,5.728m31.4,0-13.337,39.451a.338.338,0,0,1-.657-.107v-45.072a24.045,24.045,0,0,1,13.994,5.728" transform="translate(-449.362 3148.743)" fill="#e3f2fd"/>
    </g>
    <g id="Grupo_1738-8" data-name="Grupo 1738" transform="translate(895 -4569)">
      <path id="Trazado_1233-8" data-name="Trazado 1233" d="M546.717,1500.264a24.065,24.065,0,0,0-5.784,15.667c0,4.725,9.663,13.137,16.77,18.688a.326.326,0,0,0,.5-.371Zm36.788,0-11.49,33.984a.327.327,0,0,0,.5.373c7.107-5.55,16.773-13.964,16.773-18.689a24.052,24.052,0,0,0-5.786-15.667m-34.1-2.7,13.337,39.453a.338.338,0,0,0,.657-.109v-45.072a24.045,24.045,0,0,0-13.994,5.728m31.4,0-13.337,39.451a.338.338,0,0,1-.657-.107v-45.072a24.045,24.045,0,0,1,13.994,5.728" transform="translate(-511.934 3077.16)" fill="#e3f2fd"/>
      <path id="Trazado_1234-8" data-name="Trazado 1234" d="M546.717,1500.264a24.065,24.065,0,0,0-5.784,15.667c0,4.725,9.663,13.137,16.77,18.688a.326.326,0,0,0,.5-.371Zm36.788,0-11.49,33.984a.327.327,0,0,0,.5.373c7.107-5.55,16.773-13.964,16.773-18.689a24.052,24.052,0,0,0-5.786-15.667m-34.1-2.7,13.337,39.453a.338.338,0,0,0,.657-.109v-45.072a24.045,24.045,0,0,0-13.994,5.728m31.4,0-13.337,39.451a.338.338,0,0,1-.657-.107v-45.072a24.045,24.045,0,0,1,13.994,5.728" transform="translate(-449.362 3148.743)" fill="#e3f2fd"/>
    </g>
    <g id="Grupo_1738-9" data-name="Grupo 1738" transform="translate(1027 -4569)">
      <path id="Trazado_1233-9" data-name="Trazado 1233" d="M546.717,1500.264a24.065,24.065,0,0,0-5.784,15.667c0,4.725,9.663,13.137,16.77,18.688a.326.326,0,0,0,.5-.371Zm36.788,0-11.49,33.984a.327.327,0,0,0,.5.373c7.107-5.55,16.773-13.964,16.773-18.689a24.052,24.052,0,0,0-5.786-15.667m-34.1-2.7,13.337,39.453a.338.338,0,0,0,.657-.109v-45.072a24.045,24.045,0,0,0-13.994,5.728m31.4,0-13.337,39.451a.338.338,0,0,1-.657-.107v-45.072a24.045,24.045,0,0,1,13.994,5.728" transform="translate(-511.934 3077.16)" fill="#e3f2fd"/>
      <path id="Trazado_1234-9" data-name="Trazado 1234" d="M546.717,1500.264a24.065,24.065,0,0,0-5.784,15.667c0,4.725,9.663,13.137,16.77,18.688a.326.326,0,0,0,.5-.371Zm36.788,0-11.49,33.984a.327.327,0,0,0,.5.373c7.107-5.55,16.773-13.964,16.773-18.689a24.052,24.052,0,0,0-5.786-15.667m-34.1-2.7,13.337,39.453a.338.338,0,0,0,.657-.109v-45.072a24.045,24.045,0,0,0-13.994,5.728m31.4,0-13.337,39.451a.338.338,0,0,1-.657-.107v-45.072a24.045,24.045,0,0,1,13.994,5.728" transform="translate(-449.362 3148.743)" fill="#e3f2fd"/>
    </g>
    <g id="Grupo_1738-10" data-name="Grupo 1738" transform="translate(1159 -4569)">
      <path id="Trazado_1233-10" data-name="Trazado 1233" d="M546.717,1500.264a24.065,24.065,0,0,0-5.784,15.667c0,4.725,9.663,13.137,16.77,18.688a.326.326,0,0,0,.5-.371Zm36.788,0-11.49,33.984a.327.327,0,0,0,.5.373c7.107-5.55,16.773-13.964,16.773-18.689a24.052,24.052,0,0,0-5.786-15.667m-34.1-2.7,13.337,39.453a.338.338,0,0,0,.657-.109v-45.072a24.045,24.045,0,0,0-13.994,5.728m31.4,0-13.337,39.451a.338.338,0,0,1-.657-.107v-45.072a24.045,24.045,0,0,1,13.994,5.728" transform="translate(-511.934 3077.16)" fill="#e3f2fd"/>
      <path id="Trazado_1234-10" data-name="Trazado 1234" d="M546.717,1500.264a24.065,24.065,0,0,0-5.784,15.667c0,4.725,9.663,13.137,16.77,18.688a.326.326,0,0,0,.5-.371Zm36.788,0-11.49,33.984a.327.327,0,0,0,.5.373c7.107-5.55,16.773-13.964,16.773-18.689a24.052,24.052,0,0,0-5.786-15.667m-34.1-2.7,13.337,39.453a.338.338,0,0,0,.657-.109v-45.072a24.045,24.045,0,0,0-13.994,5.728m31.4,0-13.337,39.451a.338.338,0,0,1-.657-.107v-45.072a24.045,24.045,0,0,1,13.994,5.728" transform="translate(-449.362 3148.743)" fill="#e3f2fd"/>
    </g>
    <g id="Grupo_1738-11" data-name="Grupo 1738" transform="translate(1291 -4569)">
      <path id="Trazado_1233-11" data-name="Trazado 1233" d="M546.717,1500.264a24.065,24.065,0,0,0-5.784,15.667c0,4.725,9.663,13.137,16.77,18.688a.326.326,0,0,0,.5-.371Zm36.788,0-11.49,33.984a.327.327,0,0,0,.5.373c7.107-5.55,16.773-13.964,16.773-18.689a24.052,24.052,0,0,0-5.786-15.667m-34.1-2.7,13.337,39.453a.338.338,0,0,0,.657-.109v-45.072a24.045,24.045,0,0,0-13.994,5.728m31.4,0-13.337,39.451a.338.338,0,0,1-.657-.107v-45.072a24.045,24.045,0,0,1,13.994,5.728" transform="translate(-511.934 3077.16)" fill="#e3f2fd"/>
      <path id="Trazado_1234-11" data-name="Trazado 1234" d="M546.717,1500.264a24.065,24.065,0,0,0-5.784,15.667c0,4.725,9.663,13.137,16.77,18.688a.326.326,0,0,0,.5-.371Zm36.788,0-11.49,33.984a.327.327,0,0,0,.5.373c7.107-5.55,16.773-13.964,16.773-18.689a24.052,24.052,0,0,0-5.786-15.667m-34.1-2.7,13.337,39.453a.338.338,0,0,0,.657-.109v-45.072a24.045,24.045,0,0,0-13.994,5.728m31.4,0-13.337,39.451a.338.338,0,0,1-.657-.107v-45.072a24.045,24.045,0,0,1,13.994,5.728" transform="translate(-449.362 3148.743)" fill="#e3f2fd"/>
    </g>
    <g id="Grupo_1738-12" data-name="Grupo 1738" transform="translate(1423 -4569)">
      <path id="Trazado_1233-12" data-name="Trazado 1233" d="M546.717,1500.264a24.065,24.065,0,0,0-5.784,15.667c0,4.725,9.663,13.137,16.77,18.688a.326.326,0,0,0,.5-.371Zm36.788,0-11.49,33.984a.327.327,0,0,0,.5.373c7.107-5.55,16.773-13.964,16.773-18.689a24.052,24.052,0,0,0-5.786-15.667m-34.1-2.7,13.337,39.453a.338.338,0,0,0,.657-.109v-45.072a24.045,24.045,0,0,0-13.994,5.728m31.4,0-13.337,39.451a.338.338,0,0,1-.657-.107v-45.072a24.045,24.045,0,0,1,13.994,5.728" transform="translate(-511.934 3077.16)" fill="#e3f2fd"/>
      <path id="Trazado_1234-12" data-name="Trazado 1234" d="M546.717,1500.264a24.065,24.065,0,0,0-5.784,15.667c0,4.725,9.663,13.137,16.77,18.688a.326.326,0,0,0,.5-.371Zm36.788,0-11.49,33.984a.327.327,0,0,0,.5.373c7.107-5.55,16.773-13.964,16.773-18.689a24.052,24.052,0,0,0-5.786-15.667m-34.1-2.7,13.337,39.453a.338.338,0,0,0,.657-.109v-45.072a24.045,24.045,0,0,0-13.994,5.728m31.4,0-13.337,39.451a.338.338,0,0,1-.657-.107v-45.072a24.045,24.045,0,0,1,13.994,5.728" transform="translate(-449.362 3148.743)" fill="#e3f2fd"/>
    </g>
    <g id="Grupo_1738-13" data-name="Grupo 1738" transform="translate(1555 -4569)">
      <path id="Trazado_1233-13" data-name="Trazado 1233" d="M546.717,1500.264a24.065,24.065,0,0,0-5.784,15.667c0,4.725,9.663,13.137,16.77,18.688a.326.326,0,0,0,.5-.371Zm36.788,0-11.49,33.984a.327.327,0,0,0,.5.373c7.107-5.55,16.773-13.964,16.773-18.689a24.052,24.052,0,0,0-5.786-15.667m-34.1-2.7,13.337,39.453a.338.338,0,0,0,.657-.109v-45.072a24.045,24.045,0,0,0-13.994,5.728m31.4,0-13.337,39.451a.338.338,0,0,1-.657-.107v-45.072a24.045,24.045,0,0,1,13.994,5.728" transform="translate(-511.934 3077.16)" fill="#e3f2fd"/>
      <path id="Trazado_1234-13" data-name="Trazado 1234" d="M546.717,1500.264a24.065,24.065,0,0,0-5.784,15.667c0,4.725,9.663,13.137,16.77,18.688a.326.326,0,0,0,.5-.371Zm36.788,0-11.49,33.984a.327.327,0,0,0,.5.373c7.107-5.55,16.773-13.964,16.773-18.689a24.052,24.052,0,0,0-5.786-15.667m-34.1-2.7,13.337,39.453a.338.338,0,0,0,.657-.109v-45.072a24.045,24.045,0,0,0-13.994,5.728m31.4,0-13.337,39.451a.338.338,0,0,1-.657-.107v-45.072a24.045,24.045,0,0,1,13.994,5.728" transform="translate(-449.362 3148.743)" fill="#e3f2fd"/>
    </g>
    <g id="Grupo_1738-14" data-name="Grupo 1738" transform="translate(1687 -4569)">
      <path id="Trazado_1233-14" data-name="Trazado 1233" d="M546.717,1500.264a24.065,24.065,0,0,0-5.784,15.667c0,4.725,9.663,13.137,16.77,18.688a.326.326,0,0,0,.5-.371Zm36.788,0-11.49,33.984a.327.327,0,0,0,.5.373c7.107-5.55,16.773-13.964,16.773-18.689a24.052,24.052,0,0,0-5.786-15.667m-34.1-2.7,13.337,39.453a.338.338,0,0,0,.657-.109v-45.072a24.045,24.045,0,0,0-13.994,5.728m31.4,0-13.337,39.451a.338.338,0,0,1-.657-.107v-45.072a24.045,24.045,0,0,1,13.994,5.728" transform="translate(-511.934 3077.16)" fill="#e3f2fd"/>
      <path id="Trazado_1234-14" data-name="Trazado 1234" d="M546.717,1500.264a24.065,24.065,0,0,0-5.784,15.667c0,4.725,9.663,13.137,16.77,18.688a.326.326,0,0,0,.5-.371Zm36.788,0-11.49,33.984a.327.327,0,0,0,.5.373c7.107-5.55,16.773-13.964,16.773-18.689a24.052,24.052,0,0,0-5.786-15.667m-34.1-2.7,13.337,39.453a.338.338,0,0,0,.657-.109v-45.072a24.045,24.045,0,0,0-13.994,5.728m31.4,0-13.337,39.451a.338.338,0,0,1-.657-.107v-45.072a24.045,24.045,0,0,1,13.994,5.728" transform="translate(-449.362 3148.743)" fill="#e3f2fd"/>
    </g>
    <g id="Grupo_1738-15" data-name="Grupo 1738" transform="translate(-29 -4427)">
      <path id="Trazado_1233-15" data-name="Trazado 1233" d="M546.717,1500.264a24.065,24.065,0,0,0-5.784,15.667c0,4.725,9.663,13.137,16.77,18.688a.326.326,0,0,0,.5-.371Zm36.788,0-11.49,33.984a.327.327,0,0,0,.5.373c7.107-5.55,16.773-13.964,16.773-18.689a24.052,24.052,0,0,0-5.786-15.667m-34.1-2.7,13.337,39.453a.338.338,0,0,0,.657-.109v-45.072a24.045,24.045,0,0,0-13.994,5.728m31.4,0-13.337,39.451a.338.338,0,0,1-.657-.107v-45.072a24.045,24.045,0,0,1,13.994,5.728" transform="translate(-511.934 3077.16)" fill="#e3f2fd"/>
      <path id="Trazado_1234-15" data-name="Trazado 1234" d="M546.717,1500.264a24.065,24.065,0,0,0-5.784,15.667c0,4.725,9.663,13.137,16.77,18.688a.326.326,0,0,0,.5-.371Zm36.788,0-11.49,33.984a.327.327,0,0,0,.5.373c7.107-5.55,16.773-13.964,16.773-18.689a24.052,24.052,0,0,0-5.786-15.667m-34.1-2.7,13.337,39.453a.338.338,0,0,0,.657-.109v-45.072a24.045,24.045,0,0,0-13.994,5.728m31.4,0-13.337,39.451a.338.338,0,0,1-.657-.107v-45.072a24.045,24.045,0,0,1,13.994,5.728" transform="translate(-449.362 3148.743)" fill="#e3f2fd"/>
    </g>
    <g id="Grupo_1738-16" data-name="Grupo 1738" transform="translate(103 -4427)">
      <path id="Trazado_1233-16" data-name="Trazado 1233" d="M546.717,1500.264a24.065,24.065,0,0,0-5.784,15.667c0,4.725,9.663,13.137,16.77,18.688a.326.326,0,0,0,.5-.371Zm36.788,0-11.49,33.984a.327.327,0,0,0,.5.373c7.107-5.55,16.773-13.964,16.773-18.689a24.052,24.052,0,0,0-5.786-15.667m-34.1-2.7,13.337,39.453a.338.338,0,0,0,.657-.109v-45.072a24.045,24.045,0,0,0-13.994,5.728m31.4,0-13.337,39.451a.338.338,0,0,1-.657-.107v-45.072a24.045,24.045,0,0,1,13.994,5.728" transform="translate(-511.934 3077.16)" fill="#e3f2fd"/>
      <path id="Trazado_1234-16" data-name="Trazado 1234" d="M546.717,1500.264a24.065,24.065,0,0,0-5.784,15.667c0,4.725,9.663,13.137,16.77,18.688a.326.326,0,0,0,.5-.371Zm36.788,0-11.49,33.984a.327.327,0,0,0,.5.373c7.107-5.55,16.773-13.964,16.773-18.689a24.052,24.052,0,0,0-5.786-15.667m-34.1-2.7,13.337,39.453a.338.338,0,0,0,.657-.109v-45.072a24.045,24.045,0,0,0-13.994,5.728m31.4,0-13.337,39.451a.338.338,0,0,1-.657-.107v-45.072a24.045,24.045,0,0,1,13.994,5.728" transform="translate(-449.362 3148.743)" fill="#e3f2fd"/>
    </g>
    <g id="Grupo_1738-17" data-name="Grupo 1738" transform="translate(235 -4427)">
      <path id="Trazado_1233-17" data-name="Trazado 1233" d="M546.717,1500.264a24.065,24.065,0,0,0-5.784,15.667c0,4.725,9.663,13.137,16.77,18.688a.326.326,0,0,0,.5-.371Zm36.788,0-11.49,33.984a.327.327,0,0,0,.5.373c7.107-5.55,16.773-13.964,16.773-18.689a24.052,24.052,0,0,0-5.786-15.667m-34.1-2.7,13.337,39.453a.338.338,0,0,0,.657-.109v-45.072a24.045,24.045,0,0,0-13.994,5.728m31.4,0-13.337,39.451a.338.338,0,0,1-.657-.107v-45.072a24.045,24.045,0,0,1,13.994,5.728" transform="translate(-511.934 3077.16)" fill="#e3f2fd"/>
      <path id="Trazado_1234-17" data-name="Trazado 1234" d="M546.717,1500.264a24.065,24.065,0,0,0-5.784,15.667c0,4.725,9.663,13.137,16.77,18.688a.326.326,0,0,0,.5-.371Zm36.788,0-11.49,33.984a.327.327,0,0,0,.5.373c7.107-5.55,16.773-13.964,16.773-18.689a24.052,24.052,0,0,0-5.786-15.667m-34.1-2.7,13.337,39.453a.338.338,0,0,0,.657-.109v-45.072a24.045,24.045,0,0,0-13.994,5.728m31.4,0-13.337,39.451a.338.338,0,0,1-.657-.107v-45.072a24.045,24.045,0,0,1,13.994,5.728" transform="translate(-449.362 3148.743)" fill="#e3f2fd"/>
    </g>
    <g id="Grupo_1738-18" data-name="Grupo 1738" transform="translate(367 -4427)">
      <path id="Trazado_1233-18" data-name="Trazado 1233" d="M546.717,1500.264a24.065,24.065,0,0,0-5.784,15.667c0,4.725,9.663,13.137,16.77,18.688a.326.326,0,0,0,.5-.371Zm36.788,0-11.49,33.984a.327.327,0,0,0,.5.373c7.107-5.55,16.773-13.964,16.773-18.689a24.052,24.052,0,0,0-5.786-15.667m-34.1-2.7,13.337,39.453a.338.338,0,0,0,.657-.109v-45.072a24.045,24.045,0,0,0-13.994,5.728m31.4,0-13.337,39.451a.338.338,0,0,1-.657-.107v-45.072a24.045,24.045,0,0,1,13.994,5.728" transform="translate(-511.934 3077.16)" fill="#e3f2fd"/>
      <path id="Trazado_1234-18" data-name="Trazado 1234" d="M546.717,1500.264a24.065,24.065,0,0,0-5.784,15.667c0,4.725,9.663,13.137,16.77,18.688a.326.326,0,0,0,.5-.371Zm36.788,0-11.49,33.984a.327.327,0,0,0,.5.373c7.107-5.55,16.773-13.964,16.773-18.689a24.052,24.052,0,0,0-5.786-15.667m-34.1-2.7,13.337,39.453a.338.338,0,0,0,.657-.109v-45.072a24.045,24.045,0,0,0-13.994,5.728m31.4,0-13.337,39.451a.338.338,0,0,1-.657-.107v-45.072a24.045,24.045,0,0,1,13.994,5.728" transform="translate(-449.362 3148.743)" fill="#e3f2fd"/>
    </g>
    <g id="Grupo_1738-19" data-name="Grupo 1738" transform="translate(499 -4427)">
      <path id="Trazado_1233-19" data-name="Trazado 1233" d="M546.717,1500.264a24.065,24.065,0,0,0-5.784,15.667c0,4.725,9.663,13.137,16.77,18.688a.326.326,0,0,0,.5-.371Zm36.788,0-11.49,33.984a.327.327,0,0,0,.5.373c7.107-5.55,16.773-13.964,16.773-18.689a24.052,24.052,0,0,0-5.786-15.667m-34.1-2.7,13.337,39.453a.338.338,0,0,0,.657-.109v-45.072a24.045,24.045,0,0,0-13.994,5.728m31.4,0-13.337,39.451a.338.338,0,0,1-.657-.107v-45.072a24.045,24.045,0,0,1,13.994,5.728" transform="translate(-511.934 3077.16)" fill="#e3f2fd"/>
      <path id="Trazado_1234-19" data-name="Trazado 1234" d="M546.717,1500.264a24.065,24.065,0,0,0-5.784,15.667c0,4.725,9.663,13.137,16.77,18.688a.326.326,0,0,0,.5-.371Zm36.788,0-11.49,33.984a.327.327,0,0,0,.5.373c7.107-5.55,16.773-13.964,16.773-18.689a24.052,24.052,0,0,0-5.786-15.667m-34.1-2.7,13.337,39.453a.338.338,0,0,0,.657-.109v-45.072a24.045,24.045,0,0,0-13.994,5.728m31.4,0-13.337,39.451a.338.338,0,0,1-.657-.107v-45.072a24.045,24.045,0,0,1,13.994,5.728" transform="translate(-449.362 3148.743)" fill="#e3f2fd"/>
    </g>
    <g id="Grupo_1738-20" data-name="Grupo 1738" transform="translate(631 -4427)">
      <path id="Trazado_1233-20" data-name="Trazado 1233" d="M546.717,1500.264a24.065,24.065,0,0,0-5.784,15.667c0,4.725,9.663,13.137,16.77,18.688a.326.326,0,0,0,.5-.371Zm36.788,0-11.49,33.984a.327.327,0,0,0,.5.373c7.107-5.55,16.773-13.964,16.773-18.689a24.052,24.052,0,0,0-5.786-15.667m-34.1-2.7,13.337,39.453a.338.338,0,0,0,.657-.109v-45.072a24.045,24.045,0,0,0-13.994,5.728m31.4,0-13.337,39.451a.338.338,0,0,1-.657-.107v-45.072a24.045,24.045,0,0,1,13.994,5.728" transform="translate(-511.934 3077.16)" fill="#e3f2fd"/>
      <path id="Trazado_1234-20" data-name="Trazado 1234" d="M546.717,1500.264a24.065,24.065,0,0,0-5.784,15.667c0,4.725,9.663,13.137,16.77,18.688a.326.326,0,0,0,.5-.371Zm36.788,0-11.49,33.984a.327.327,0,0,0,.5.373c7.107-5.55,16.773-13.964,16.773-18.689a24.052,24.052,0,0,0-5.786-15.667m-34.1-2.7,13.337,39.453a.338.338,0,0,0,.657-.109v-45.072a24.045,24.045,0,0,0-13.994,5.728m31.4,0-13.337,39.451a.338.338,0,0,1-.657-.107v-45.072a24.045,24.045,0,0,1,13.994,5.728" transform="translate(-449.362 3148.743)" fill="#e3f2fd"/>
    </g>
    <g id="Grupo_1738-21" data-name="Grupo 1738" transform="translate(763 -4427)">
      <path id="Trazado_1233-21" data-name="Trazado 1233" d="M546.717,1500.264a24.065,24.065,0,0,0-5.784,15.667c0,4.725,9.663,13.137,16.77,18.688a.326.326,0,0,0,.5-.371Zm36.788,0-11.49,33.984a.327.327,0,0,0,.5.373c7.107-5.55,16.773-13.964,16.773-18.689a24.052,24.052,0,0,0-5.786-15.667m-34.1-2.7,13.337,39.453a.338.338,0,0,0,.657-.109v-45.072a24.045,24.045,0,0,0-13.994,5.728m31.4,0-13.337,39.451a.338.338,0,0,1-.657-.107v-45.072a24.045,24.045,0,0,1,13.994,5.728" transform="translate(-511.934 3077.16)" fill="#e3f2fd"/>
      <path id="Trazado_1234-21" data-name="Trazado 1234" d="M546.717,1500.264a24.065,24.065,0,0,0-5.784,15.667c0,4.725,9.663,13.137,16.77,18.688a.326.326,0,0,0,.5-.371Zm36.788,0-11.49,33.984a.327.327,0,0,0,.5.373c7.107-5.55,16.773-13.964,16.773-18.689a24.052,24.052,0,0,0-5.786-15.667m-34.1-2.7,13.337,39.453a.338.338,0,0,0,.657-.109v-45.072a24.045,24.045,0,0,0-13.994,5.728m31.4,0-13.337,39.451a.338.338,0,0,1-.657-.107v-45.072a24.045,24.045,0,0,1,13.994,5.728" transform="translate(-449.362 3148.743)" fill="#e3f2fd"/>
    </g>
    <g id="Grupo_1738-22" data-name="Grupo 1738" transform="translate(895 -4427)">
      <path id="Trazado_1233-22" data-name="Trazado 1233" d="M546.717,1500.264a24.065,24.065,0,0,0-5.784,15.667c0,4.725,9.663,13.137,16.77,18.688a.326.326,0,0,0,.5-.371Zm36.788,0-11.49,33.984a.327.327,0,0,0,.5.373c7.107-5.55,16.773-13.964,16.773-18.689a24.052,24.052,0,0,0-5.786-15.667m-34.1-2.7,13.337,39.453a.338.338,0,0,0,.657-.109v-45.072a24.045,24.045,0,0,0-13.994,5.728m31.4,0-13.337,39.451a.338.338,0,0,1-.657-.107v-45.072a24.045,24.045,0,0,1,13.994,5.728" transform="translate(-511.934 3077.16)" fill="#e3f2fd"/>
      <path id="Trazado_1234-22" data-name="Trazado 1234" d="M546.717,1500.264a24.065,24.065,0,0,0-5.784,15.667c0,4.725,9.663,13.137,16.77,18.688a.326.326,0,0,0,.5-.371Zm36.788,0-11.49,33.984a.327.327,0,0,0,.5.373c7.107-5.55,16.773-13.964,16.773-18.689a24.052,24.052,0,0,0-5.786-15.667m-34.1-2.7,13.337,39.453a.338.338,0,0,0,.657-.109v-45.072a24.045,24.045,0,0,0-13.994,5.728m31.4,0-13.337,39.451a.338.338,0,0,1-.657-.107v-45.072a24.045,24.045,0,0,1,13.994,5.728" transform="translate(-449.362 3148.743)" fill="#e3f2fd"/>
    </g>
    <g id="Grupo_1738-23" data-name="Grupo 1738" transform="translate(1027 -4427)">
      <path id="Trazado_1233-23" data-name="Trazado 1233" d="M546.717,1500.264a24.065,24.065,0,0,0-5.784,15.667c0,4.725,9.663,13.137,16.77,18.688a.326.326,0,0,0,.5-.371Zm36.788,0-11.49,33.984a.327.327,0,0,0,.5.373c7.107-5.55,16.773-13.964,16.773-18.689a24.052,24.052,0,0,0-5.786-15.667m-34.1-2.7,13.337,39.453a.338.338,0,0,0,.657-.109v-45.072a24.045,24.045,0,0,0-13.994,5.728m31.4,0-13.337,39.451a.338.338,0,0,1-.657-.107v-45.072a24.045,24.045,0,0,1,13.994,5.728" transform="translate(-511.934 3077.16)" fill="#e3f2fd"/>
      <path id="Trazado_1234-23" data-name="Trazado 1234" d="M546.717,1500.264a24.065,24.065,0,0,0-5.784,15.667c0,4.725,9.663,13.137,16.77,18.688a.326.326,0,0,0,.5-.371Zm36.788,0-11.49,33.984a.327.327,0,0,0,.5.373c7.107-5.55,16.773-13.964,16.773-18.689a24.052,24.052,0,0,0-5.786-15.667m-34.1-2.7,13.337,39.453a.338.338,0,0,0,.657-.109v-45.072a24.045,24.045,0,0,0-13.994,5.728m31.4,0-13.337,39.451a.338.338,0,0,1-.657-.107v-45.072a24.045,24.045,0,0,1,13.994,5.728" transform="translate(-449.362 3148.743)" fill="#e3f2fd"/>
    </g>
    <g id="Grupo_1738-24" data-name="Grupo 1738" transform="translate(1159 -4427)">
      <path id="Trazado_1233-24" data-name="Trazado 1233" d="M546.717,1500.264a24.065,24.065,0,0,0-5.784,15.667c0,4.725,9.663,13.137,16.77,18.688a.326.326,0,0,0,.5-.371Zm36.788,0-11.49,33.984a.327.327,0,0,0,.5.373c7.107-5.55,16.773-13.964,16.773-18.689a24.052,24.052,0,0,0-5.786-15.667m-34.1-2.7,13.337,39.453a.338.338,0,0,0,.657-.109v-45.072a24.045,24.045,0,0,0-13.994,5.728m31.4,0-13.337,39.451a.338.338,0,0,1-.657-.107v-45.072a24.045,24.045,0,0,1,13.994,5.728" transform="translate(-511.934 3077.16)" fill="#e3f2fd"/>
      <path id="Trazado_1234-24" data-name="Trazado 1234" d="M546.717,1500.264a24.065,24.065,0,0,0-5.784,15.667c0,4.725,9.663,13.137,16.77,18.688a.326.326,0,0,0,.5-.371Zm36.788,0-11.49,33.984a.327.327,0,0,0,.5.373c7.107-5.55,16.773-13.964,16.773-18.689a24.052,24.052,0,0,0-5.786-15.667m-34.1-2.7,13.337,39.453a.338.338,0,0,0,.657-.109v-45.072a24.045,24.045,0,0,0-13.994,5.728m31.4,0-13.337,39.451a.338.338,0,0,1-.657-.107v-45.072a24.045,24.045,0,0,1,13.994,5.728" transform="translate(-449.362 3148.743)" fill="#e3f2fd"/>
    </g>
    <g id="Grupo_1738-25" data-name="Grupo 1738" transform="translate(1291 -4427)">
      <path id="Trazado_1233-25" data-name="Trazado 1233" d="M546.717,1500.264a24.065,24.065,0,0,0-5.784,15.667c0,4.725,9.663,13.137,16.77,18.688a.326.326,0,0,0,.5-.371Zm36.788,0-11.49,33.984a.327.327,0,0,0,.5.373c7.107-5.55,16.773-13.964,16.773-18.689a24.052,24.052,0,0,0-5.786-15.667m-34.1-2.7,13.337,39.453a.338.338,0,0,0,.657-.109v-45.072a24.045,24.045,0,0,0-13.994,5.728m31.4,0-13.337,39.451a.338.338,0,0,1-.657-.107v-45.072a24.045,24.045,0,0,1,13.994,5.728" transform="translate(-511.934 3077.16)" fill="#e3f2fd"/>
      <path id="Trazado_1234-25" data-name="Trazado 1234" d="M546.717,1500.264a24.065,24.065,0,0,0-5.784,15.667c0,4.725,9.663,13.137,16.77,18.688a.326.326,0,0,0,.5-.371Zm36.788,0-11.49,33.984a.327.327,0,0,0,.5.373c7.107-5.55,16.773-13.964,16.773-18.689a24.052,24.052,0,0,0-5.786-15.667m-34.1-2.7,13.337,39.453a.338.338,0,0,0,.657-.109v-45.072a24.045,24.045,0,0,0-13.994,5.728m31.4,0-13.337,39.451a.338.338,0,0,1-.657-.107v-45.072a24.045,24.045,0,0,1,13.994,5.728" transform="translate(-449.362 3148.743)" fill="#e3f2fd"/>
    </g>
    <g id="Grupo_1738-26" data-name="Grupo 1738" transform="translate(1423 -4427)">
      <path id="Trazado_1233-26" data-name="Trazado 1233" d="M546.717,1500.264a24.065,24.065,0,0,0-5.784,15.667c0,4.725,9.663,13.137,16.77,18.688a.326.326,0,0,0,.5-.371Zm36.788,0-11.49,33.984a.327.327,0,0,0,.5.373c7.107-5.55,16.773-13.964,16.773-18.689a24.052,24.052,0,0,0-5.786-15.667m-34.1-2.7,13.337,39.453a.338.338,0,0,0,.657-.109v-45.072a24.045,24.045,0,0,0-13.994,5.728m31.4,0-13.337,39.451a.338.338,0,0,1-.657-.107v-45.072a24.045,24.045,0,0,1,13.994,5.728" transform="translate(-511.934 3077.16)" fill="#e3f2fd"/>
      <path id="Trazado_1234-26" data-name="Trazado 1234" d="M546.717,1500.264a24.065,24.065,0,0,0-5.784,15.667c0,4.725,9.663,13.137,16.77,18.688a.326.326,0,0,0,.5-.371Zm36.788,0-11.49,33.984a.327.327,0,0,0,.5.373c7.107-5.55,16.773-13.964,16.773-18.689a24.052,24.052,0,0,0-5.786-15.667m-34.1-2.7,13.337,39.453a.338.338,0,0,0,.657-.109v-45.072a24.045,24.045,0,0,0-13.994,5.728m31.4,0-13.337,39.451a.338.338,0,0,1-.657-.107v-45.072a24.045,24.045,0,0,1,13.994,5.728" transform="translate(-449.362 3148.743)" fill="#e3f2fd"/>
    </g>
    <g id="Grupo_1738-27" data-name="Grupo 1738" transform="translate(1555 -4427)">
      <path id="Trazado_1233-27" data-name="Trazado 1233" d="M546.717,1500.264a24.065,24.065,0,0,0-5.784,15.667c0,4.725,9.663,13.137,16.77,18.688a.326.326,0,0,0,.5-.371Zm36.788,0-11.49,33.984a.327.327,0,0,0,.5.373c7.107-5.55,16.773-13.964,16.773-18.689a24.052,24.052,0,0,0-5.786-15.667m-34.1-2.7,13.337,39.453a.338.338,0,0,0,.657-.109v-45.072a24.045,24.045,0,0,0-13.994,5.728m31.4,0-13.337,39.451a.338.338,0,0,1-.657-.107v-45.072a24.045,24.045,0,0,1,13.994,5.728" transform="translate(-511.934 3077.16)" fill="#e3f2fd"/>
      <path id="Trazado_1234-27" data-name="Trazado 1234" d="M546.717,1500.264a24.065,24.065,0,0,0-5.784,15.667c0,4.725,9.663,13.137,16.77,18.688a.326.326,0,0,0,.5-.371Zm36.788,0-11.49,33.984a.327.327,0,0,0,.5.373c7.107-5.55,16.773-13.964,16.773-18.689a24.052,24.052,0,0,0-5.786-15.667m-34.1-2.7,13.337,39.453a.338.338,0,0,0,.657-.109v-45.072a24.045,24.045,0,0,0-13.994,5.728m31.4,0-13.337,39.451a.338.338,0,0,1-.657-.107v-45.072a24.045,24.045,0,0,1,13.994,5.728" transform="translate(-449.362 3148.743)" fill="#e3f2fd"/>
    </g>
    <g id="Grupo_1738-28" data-name="Grupo 1738" transform="translate(1687 -4427)">
      <path id="Trazado_1233-28" data-name="Trazado 1233" d="M546.717,1500.264a24.065,24.065,0,0,0-5.784,15.667c0,4.725,9.663,13.137,16.77,18.688a.326.326,0,0,0,.5-.371Zm36.788,0-11.49,33.984a.327.327,0,0,0,.5.373c7.107-5.55,16.773-13.964,16.773-18.689a24.052,24.052,0,0,0-5.786-15.667m-34.1-2.7,13.337,39.453a.338.338,0,0,0,.657-.109v-45.072a24.045,24.045,0,0,0-13.994,5.728m31.4,0-13.337,39.451a.338.338,0,0,1-.657-.107v-45.072a24.045,24.045,0,0,1,13.994,5.728" transform="translate(-511.934 3077.16)" fill="#e3f2fd"/>
      <path id="Trazado_1234-28" data-name="Trazado 1234" d="M546.717,1500.264a24.065,24.065,0,0,0-5.784,15.667c0,4.725,9.663,13.137,16.77,18.688a.326.326,0,0,0,.5-.371Zm36.788,0-11.49,33.984a.327.327,0,0,0,.5.373c7.107-5.55,16.773-13.964,16.773-18.689a24.052,24.052,0,0,0-5.786-15.667m-34.1-2.7,13.337,39.453a.338.338,0,0,0,.657-.109v-45.072a24.045,24.045,0,0,0-13.994,5.728m31.4,0-13.337,39.451a.338.338,0,0,1-.657-.107v-45.072a24.045,24.045,0,0,1,13.994,5.728" transform="translate(-449.362 3148.743)" fill="#e3f2fd"/>
    </g>
    <g id="Grupo_1738-29" data-name="Grupo 1738" transform="translate(-29 -4285)">
      <path id="Trazado_1233-29" data-name="Trazado 1233" d="M546.717,1500.264a24.065,24.065,0,0,0-5.784,15.667c0,4.725,9.663,13.137,16.77,18.688a.326.326,0,0,0,.5-.371Zm36.788,0-11.49,33.984a.327.327,0,0,0,.5.373c7.107-5.55,16.773-13.964,16.773-18.689a24.052,24.052,0,0,0-5.786-15.667m-34.1-2.7,13.337,39.453a.338.338,0,0,0,.657-.109v-45.072a24.045,24.045,0,0,0-13.994,5.728m31.4,0-13.337,39.451a.338.338,0,0,1-.657-.107v-45.072a24.045,24.045,0,0,1,13.994,5.728" transform="translate(-511.934 3077.16)" fill="#e3f2fd"/>
      <path id="Trazado_1234-29" data-name="Trazado 1234" d="M546.717,1500.264a24.065,24.065,0,0,0-5.784,15.667c0,4.725,9.663,13.137,16.77,18.688a.326.326,0,0,0,.5-.371Zm36.788,0-11.49,33.984a.327.327,0,0,0,.5.373c7.107-5.55,16.773-13.964,16.773-18.689a24.052,24.052,0,0,0-5.786-15.667m-34.1-2.7,13.337,39.453a.338.338,0,0,0,.657-.109v-45.072a24.045,24.045,0,0,0-13.994,5.728m31.4,0-13.337,39.451a.338.338,0,0,1-.657-.107v-45.072a24.045,24.045,0,0,1,13.994,5.728" transform="translate(-449.362 3148.743)" fill="#e3f2fd"/>
    </g>
    <g id="Grupo_1738-30" data-name="Grupo 1738" transform="translate(103 -4285)">
      <path id="Trazado_1233-30" data-name="Trazado 1233" d="M546.717,1500.264a24.065,24.065,0,0,0-5.784,15.667c0,4.725,9.663,13.137,16.77,18.688a.326.326,0,0,0,.5-.371Zm36.788,0-11.49,33.984a.327.327,0,0,0,.5.373c7.107-5.55,16.773-13.964,16.773-18.689a24.052,24.052,0,0,0-5.786-15.667m-34.1-2.7,13.337,39.453a.338.338,0,0,0,.657-.109v-45.072a24.045,24.045,0,0,0-13.994,5.728m31.4,0-13.337,39.451a.338.338,0,0,1-.657-.107v-45.072a24.045,24.045,0,0,1,13.994,5.728" transform="translate(-511.934 3077.16)" fill="#e3f2fd"/>
      <path id="Trazado_1234-30" data-name="Trazado 1234" d="M546.717,1500.264a24.065,24.065,0,0,0-5.784,15.667c0,4.725,9.663,13.137,16.77,18.688a.326.326,0,0,0,.5-.371Zm36.788,0-11.49,33.984a.327.327,0,0,0,.5.373c7.107-5.55,16.773-13.964,16.773-18.689a24.052,24.052,0,0,0-5.786-15.667m-34.1-2.7,13.337,39.453a.338.338,0,0,0,.657-.109v-45.072a24.045,24.045,0,0,0-13.994,5.728m31.4,0-13.337,39.451a.338.338,0,0,1-.657-.107v-45.072a24.045,24.045,0,0,1,13.994,5.728" transform="translate(-449.362 3148.743)" fill="#e3f2fd"/>
    </g>
    <g id="Grupo_1738-31" data-name="Grupo 1738" transform="translate(235 -4285)">
      <path id="Trazado_1233-31" data-name="Trazado 1233" d="M546.717,1500.264a24.065,24.065,0,0,0-5.784,15.667c0,4.725,9.663,13.137,16.77,18.688a.326.326,0,0,0,.5-.371Zm36.788,0-11.49,33.984a.327.327,0,0,0,.5.373c7.107-5.55,16.773-13.964,16.773-18.689a24.052,24.052,0,0,0-5.786-15.667m-34.1-2.7,13.337,39.453a.338.338,0,0,0,.657-.109v-45.072a24.045,24.045,0,0,0-13.994,5.728m31.4,0-13.337,39.451a.338.338,0,0,1-.657-.107v-45.072a24.045,24.045,0,0,1,13.994,5.728" transform="translate(-511.934 3077.16)" fill="#e3f2fd"/>
      <path id="Trazado_1234-31" data-name="Trazado 1234" d="M546.717,1500.264a24.065,24.065,0,0,0-5.784,15.667c0,4.725,9.663,13.137,16.77,18.688a.326.326,0,0,0,.5-.371Zm36.788,0-11.49,33.984a.327.327,0,0,0,.5.373c7.107-5.55,16.773-13.964,16.773-18.689a24.052,24.052,0,0,0-5.786-15.667m-34.1-2.7,13.337,39.453a.338.338,0,0,0,.657-.109v-45.072a24.045,24.045,0,0,0-13.994,5.728m31.4,0-13.337,39.451a.338.338,0,0,1-.657-.107v-45.072a24.045,24.045,0,0,1,13.994,5.728" transform="translate(-449.362 3148.743)" fill="#e3f2fd"/>
    </g>
    <g id="Grupo_1738-32" data-name="Grupo 1738" transform="translate(367 -4285)">
      <path id="Trazado_1233-32" data-name="Trazado 1233" d="M546.717,1500.264a24.065,24.065,0,0,0-5.784,15.667c0,4.725,9.663,13.137,16.77,18.688a.326.326,0,0,0,.5-.371Zm36.788,0-11.49,33.984a.327.327,0,0,0,.5.373c7.107-5.55,16.773-13.964,16.773-18.689a24.052,24.052,0,0,0-5.786-15.667m-34.1-2.7,13.337,39.453a.338.338,0,0,0,.657-.109v-45.072a24.045,24.045,0,0,0-13.994,5.728m31.4,0-13.337,39.451a.338.338,0,0,1-.657-.107v-45.072a24.045,24.045,0,0,1,13.994,5.728" transform="translate(-511.934 3077.16)" fill="#e3f2fd"/>
      <path id="Trazado_1234-32" data-name="Trazado 1234" d="M546.717,1500.264a24.065,24.065,0,0,0-5.784,15.667c0,4.725,9.663,13.137,16.77,18.688a.326.326,0,0,0,.5-.371Zm36.788,0-11.49,33.984a.327.327,0,0,0,.5.373c7.107-5.55,16.773-13.964,16.773-18.689a24.052,24.052,0,0,0-5.786-15.667m-34.1-2.7,13.337,39.453a.338.338,0,0,0,.657-.109v-45.072a24.045,24.045,0,0,0-13.994,5.728m31.4,0-13.337,39.451a.338.338,0,0,1-.657-.107v-45.072a24.045,24.045,0,0,1,13.994,5.728" transform="translate(-449.362 3148.743)" fill="#e3f2fd"/>
    </g>
    <g id="Grupo_1738-33" data-name="Grupo 1738" transform="translate(499 -4285)">
      <path id="Trazado_1233-33" data-name="Trazado 1233" d="M546.717,1500.264a24.065,24.065,0,0,0-5.784,15.667c0,4.725,9.663,13.137,16.77,18.688a.326.326,0,0,0,.5-.371Zm36.788,0-11.49,33.984a.327.327,0,0,0,.5.373c7.107-5.55,16.773-13.964,16.773-18.689a24.052,24.052,0,0,0-5.786-15.667m-34.1-2.7,13.337,39.453a.338.338,0,0,0,.657-.109v-45.072a24.045,24.045,0,0,0-13.994,5.728m31.4,0-13.337,39.451a.338.338,0,0,1-.657-.107v-45.072a24.045,24.045,0,0,1,13.994,5.728" transform="translate(-511.934 3077.16)" fill="#e3f2fd"/>
      <path id="Trazado_1234-33" data-name="Trazado 1234" d="M546.717,1500.264a24.065,24.065,0,0,0-5.784,15.667c0,4.725,9.663,13.137,16.77,18.688a.326.326,0,0,0,.5-.371Zm36.788,0-11.49,33.984a.327.327,0,0,0,.5.373c7.107-5.55,16.773-13.964,16.773-18.689a24.052,24.052,0,0,0-5.786-15.667m-34.1-2.7,13.337,39.453a.338.338,0,0,0,.657-.109v-45.072a24.045,24.045,0,0,0-13.994,5.728m31.4,0-13.337,39.451a.338.338,0,0,1-.657-.107v-45.072a24.045,24.045,0,0,1,13.994,5.728" transform="translate(-449.362 3148.743)" fill="#e3f2fd"/>
    </g>
    <g id="Grupo_1738-34" data-name="Grupo 1738" transform="translate(631 -4285)">
      <path id="Trazado_1233-34" data-name="Trazado 1233" d="M546.717,1500.264a24.065,24.065,0,0,0-5.784,15.667c0,4.725,9.663,13.137,16.77,18.688a.326.326,0,0,0,.5-.371Zm36.788,0-11.49,33.984a.327.327,0,0,0,.5.373c7.107-5.55,16.773-13.964,16.773-18.689a24.052,24.052,0,0,0-5.786-15.667m-34.1-2.7,13.337,39.453a.338.338,0,0,0,.657-.109v-45.072a24.045,24.045,0,0,0-13.994,5.728m31.4,0-13.337,39.451a.338.338,0,0,1-.657-.107v-45.072a24.045,24.045,0,0,1,13.994,5.728" transform="translate(-511.934 3077.16)" fill="#e3f2fd"/>
      <path id="Trazado_1234-34" data-name="Trazado 1234" d="M546.717,1500.264a24.065,24.065,0,0,0-5.784,15.667c0,4.725,9.663,13.137,16.77,18.688a.326.326,0,0,0,.5-.371Zm36.788,0-11.49,33.984a.327.327,0,0,0,.5.373c7.107-5.55,16.773-13.964,16.773-18.689a24.052,24.052,0,0,0-5.786-15.667m-34.1-2.7,13.337,39.453a.338.338,0,0,0,.657-.109v-45.072a24.045,24.045,0,0,0-13.994,5.728m31.4,0-13.337,39.451a.338.338,0,0,1-.657-.107v-45.072a24.045,24.045,0,0,1,13.994,5.728" transform="translate(-449.362 3148.743)" fill="#e3f2fd"/>
    </g>
    <g id="Grupo_1738-35" data-name="Grupo 1738" transform="translate(763 -4285)">
      <path id="Trazado_1233-35" data-name="Trazado 1233" d="M546.717,1500.264a24.065,24.065,0,0,0-5.784,15.667c0,4.725,9.663,13.137,16.77,18.688a.326.326,0,0,0,.5-.371Zm36.788,0-11.49,33.984a.327.327,0,0,0,.5.373c7.107-5.55,16.773-13.964,16.773-18.689a24.052,24.052,0,0,0-5.786-15.667m-34.1-2.7,13.337,39.453a.338.338,0,0,0,.657-.109v-45.072a24.045,24.045,0,0,0-13.994,5.728m31.4,0-13.337,39.451a.338.338,0,0,1-.657-.107v-45.072a24.045,24.045,0,0,1,13.994,5.728" transform="translate(-511.934 3077.16)" fill="#e3f2fd"/>
      <path id="Trazado_1234-35" data-name="Trazado 1234" d="M546.717,1500.264a24.065,24.065,0,0,0-5.784,15.667c0,4.725,9.663,13.137,16.77,18.688a.326.326,0,0,0,.5-.371Zm36.788,0-11.49,33.984a.327.327,0,0,0,.5.373c7.107-5.55,16.773-13.964,16.773-18.689a24.052,24.052,0,0,0-5.786-15.667m-34.1-2.7,13.337,39.453a.338.338,0,0,0,.657-.109v-45.072a24.045,24.045,0,0,0-13.994,5.728m31.4,0-13.337,39.451a.338.338,0,0,1-.657-.107v-45.072a24.045,24.045,0,0,1,13.994,5.728" transform="translate(-449.362 3148.743)" fill="#e3f2fd"/>
    </g>
    <g id="Grupo_1738-36" data-name="Grupo 1738" transform="translate(895 -4285)">
      <path id="Trazado_1233-36" data-name="Trazado 1233" d="M546.717,1500.264a24.065,24.065,0,0,0-5.784,15.667c0,4.725,9.663,13.137,16.77,18.688a.326.326,0,0,0,.5-.371Zm36.788,0-11.49,33.984a.327.327,0,0,0,.5.373c7.107-5.55,16.773-13.964,16.773-18.689a24.052,24.052,0,0,0-5.786-15.667m-34.1-2.7,13.337,39.453a.338.338,0,0,0,.657-.109v-45.072a24.045,24.045,0,0,0-13.994,5.728m31.4,0-13.337,39.451a.338.338,0,0,1-.657-.107v-45.072a24.045,24.045,0,0,1,13.994,5.728" transform="translate(-511.934 3077.16)" fill="#e3f2fd"/>
      <path id="Trazado_1234-36" data-name="Trazado 1234" d="M546.717,1500.264a24.065,24.065,0,0,0-5.784,15.667c0,4.725,9.663,13.137,16.77,18.688a.326.326,0,0,0,.5-.371Zm36.788,0-11.49,33.984a.327.327,0,0,0,.5.373c7.107-5.55,16.773-13.964,16.773-18.689a24.052,24.052,0,0,0-5.786-15.667m-34.1-2.7,13.337,39.453a.338.338,0,0,0,.657-.109v-45.072a24.045,24.045,0,0,0-13.994,5.728m31.4,0-13.337,39.451a.338.338,0,0,1-.657-.107v-45.072a24.045,24.045,0,0,1,13.994,5.728" transform="translate(-449.362 3148.743)" fill="#e3f2fd"/>
    </g>
    <g id="Grupo_1738-37" data-name="Grupo 1738" transform="translate(1027 -4285)">
      <path id="Trazado_1233-37" data-name="Trazado 1233" d="M546.717,1500.264a24.065,24.065,0,0,0-5.784,15.667c0,4.725,9.663,13.137,16.77,18.688a.326.326,0,0,0,.5-.371Zm36.788,0-11.49,33.984a.327.327,0,0,0,.5.373c7.107-5.55,16.773-13.964,16.773-18.689a24.052,24.052,0,0,0-5.786-15.667m-34.1-2.7,13.337,39.453a.338.338,0,0,0,.657-.109v-45.072a24.045,24.045,0,0,0-13.994,5.728m31.4,0-13.337,39.451a.338.338,0,0,1-.657-.107v-45.072a24.045,24.045,0,0,1,13.994,5.728" transform="translate(-511.934 3077.16)" fill="#e3f2fd"/>
      <path id="Trazado_1234-37" data-name="Trazado 1234" d="M546.717,1500.264a24.065,24.065,0,0,0-5.784,15.667c0,4.725,9.663,13.137,16.77,18.688a.326.326,0,0,0,.5-.371Zm36.788,0-11.49,33.984a.327.327,0,0,0,.5.373c7.107-5.55,16.773-13.964,16.773-18.689a24.052,24.052,0,0,0-5.786-15.667m-34.1-2.7,13.337,39.453a.338.338,0,0,0,.657-.109v-45.072a24.045,24.045,0,0,0-13.994,5.728m31.4,0-13.337,39.451a.338.338,0,0,1-.657-.107v-45.072a24.045,24.045,0,0,1,13.994,5.728" transform="translate(-449.362 3148.743)" fill="#e3f2fd"/>
    </g>
    <g id="Grupo_1738-38" data-name="Grupo 1738" transform="translate(1159 -4285)">
      <path id="Trazado_1233-38" data-name="Trazado 1233" d="M546.717,1500.264a24.065,24.065,0,0,0-5.784,15.667c0,4.725,9.663,13.137,16.77,18.688a.326.326,0,0,0,.5-.371Zm36.788,0-11.49,33.984a.327.327,0,0,0,.5.373c7.107-5.55,16.773-13.964,16.773-18.689a24.052,24.052,0,0,0-5.786-15.667m-34.1-2.7,13.337,39.453a.338.338,0,0,0,.657-.109v-45.072a24.045,24.045,0,0,0-13.994,5.728m31.4,0-13.337,39.451a.338.338,0,0,1-.657-.107v-45.072a24.045,24.045,0,0,1,13.994,5.728" transform="translate(-511.934 3077.16)" fill="#e3f2fd"/>
      <path id="Trazado_1234-38" data-name="Trazado 1234" d="M546.717,1500.264a24.065,24.065,0,0,0-5.784,15.667c0,4.725,9.663,13.137,16.77,18.688a.326.326,0,0,0,.5-.371Zm36.788,0-11.49,33.984a.327.327,0,0,0,.5.373c7.107-5.55,16.773-13.964,16.773-18.689a24.052,24.052,0,0,0-5.786-15.667m-34.1-2.7,13.337,39.453a.338.338,0,0,0,.657-.109v-45.072a24.045,24.045,0,0,0-13.994,5.728m31.4,0-13.337,39.451a.338.338,0,0,1-.657-.107v-45.072a24.045,24.045,0,0,1,13.994,5.728" transform="translate(-449.362 3148.743)" fill="#e3f2fd"/>
    </g>
    <g id="Grupo_1738-39" data-name="Grupo 1738" transform="translate(1291 -4285)">
      <path id="Trazado_1233-39" data-name="Trazado 1233" d="M546.717,1500.264a24.065,24.065,0,0,0-5.784,15.667c0,4.725,9.663,13.137,16.77,18.688a.326.326,0,0,0,.5-.371Zm36.788,0-11.49,33.984a.327.327,0,0,0,.5.373c7.107-5.55,16.773-13.964,16.773-18.689a24.052,24.052,0,0,0-5.786-15.667m-34.1-2.7,13.337,39.453a.338.338,0,0,0,.657-.109v-45.072a24.045,24.045,0,0,0-13.994,5.728m31.4,0-13.337,39.451a.338.338,0,0,1-.657-.107v-45.072a24.045,24.045,0,0,1,13.994,5.728" transform="translate(-511.934 3077.16)" fill="#e3f2fd"/>
      <path id="Trazado_1234-39" data-name="Trazado 1234" d="M546.717,1500.264a24.065,24.065,0,0,0-5.784,15.667c0,4.725,9.663,13.137,16.77,18.688a.326.326,0,0,0,.5-.371Zm36.788,0-11.49,33.984a.327.327,0,0,0,.5.373c7.107-5.55,16.773-13.964,16.773-18.689a24.052,24.052,0,0,0-5.786-15.667m-34.1-2.7,13.337,39.453a.338.338,0,0,0,.657-.109v-45.072a24.045,24.045,0,0,0-13.994,5.728m31.4,0-13.337,39.451a.338.338,0,0,1-.657-.107v-45.072a24.045,24.045,0,0,1,13.994,5.728" transform="translate(-449.362 3148.743)" fill="#e3f2fd"/>
    </g>
    <g id="Grupo_1738-40" data-name="Grupo 1738" transform="translate(1423 -4285)">
      <path id="Trazado_1233-40" data-name="Trazado 1233" d="M546.717,1500.264a24.065,24.065,0,0,0-5.784,15.667c0,4.725,9.663,13.137,16.77,18.688a.326.326,0,0,0,.5-.371Zm36.788,0-11.49,33.984a.327.327,0,0,0,.5.373c7.107-5.55,16.773-13.964,16.773-18.689a24.052,24.052,0,0,0-5.786-15.667m-34.1-2.7,13.337,39.453a.338.338,0,0,0,.657-.109v-45.072a24.045,24.045,0,0,0-13.994,5.728m31.4,0-13.337,39.451a.338.338,0,0,1-.657-.107v-45.072a24.045,24.045,0,0,1,13.994,5.728" transform="translate(-511.934 3077.16)" fill="#e3f2fd"/>
      <path id="Trazado_1234-40" data-name="Trazado 1234" d="M546.717,1500.264a24.065,24.065,0,0,0-5.784,15.667c0,4.725,9.663,13.137,16.77,18.688a.326.326,0,0,0,.5-.371Zm36.788,0-11.49,33.984a.327.327,0,0,0,.5.373c7.107-5.55,16.773-13.964,16.773-18.689a24.052,24.052,0,0,0-5.786-15.667m-34.1-2.7,13.337,39.453a.338.338,0,0,0,.657-.109v-45.072a24.045,24.045,0,0,0-13.994,5.728m31.4,0-13.337,39.451a.338.338,0,0,1-.657-.107v-45.072a24.045,24.045,0,0,1,13.994,5.728" transform="translate(-449.362 3148.743)" fill="#e3f2fd"/>
    </g>
    <g id="Grupo_1738-41" data-name="Grupo 1738" transform="translate(1555 -4285)">
      <path id="Trazado_1233-41" data-name="Trazado 1233" d="M546.717,1500.264a24.065,24.065,0,0,0-5.784,15.667c0,4.725,9.663,13.137,16.77,18.688a.326.326,0,0,0,.5-.371Zm36.788,0-11.49,33.984a.327.327,0,0,0,.5.373c7.107-5.55,16.773-13.964,16.773-18.689a24.052,24.052,0,0,0-5.786-15.667m-34.1-2.7,13.337,39.453a.338.338,0,0,0,.657-.109v-45.072a24.045,24.045,0,0,0-13.994,5.728m31.4,0-13.337,39.451a.338.338,0,0,1-.657-.107v-45.072a24.045,24.045,0,0,1,13.994,5.728" transform="translate(-511.934 3077.16)" fill="#e3f2fd"/>
      <path id="Trazado_1234-41" data-name="Trazado 1234" d="M546.717,1500.264a24.065,24.065,0,0,0-5.784,15.667c0,4.725,9.663,13.137,16.77,18.688a.326.326,0,0,0,.5-.371Zm36.788,0-11.49,33.984a.327.327,0,0,0,.5.373c7.107-5.55,16.773-13.964,16.773-18.689a24.052,24.052,0,0,0-5.786-15.667m-34.1-2.7,13.337,39.453a.338.338,0,0,0,.657-.109v-45.072a24.045,24.045,0,0,0-13.994,5.728m31.4,0-13.337,39.451a.338.338,0,0,1-.657-.107v-45.072a24.045,24.045,0,0,1,13.994,5.728" transform="translate(-449.362 3148.743)" fill="#e3f2fd"/>
    </g>
    <g id="Grupo_1738-42" data-name="Grupo 1738" transform="translate(1687 -4285)">
      <path id="Trazado_1233-42" data-name="Trazado 1233" d="M546.717,1500.264a24.065,24.065,0,0,0-5.784,15.667c0,4.725,9.663,13.137,16.77,18.688a.326.326,0,0,0,.5-.371Zm36.788,0-11.49,33.984a.327.327,0,0,0,.5.373c7.107-5.55,16.773-13.964,16.773-18.689a24.052,24.052,0,0,0-5.786-15.667m-34.1-2.7,13.337,39.453a.338.338,0,0,0,.657-.109v-45.072a24.045,24.045,0,0,0-13.994,5.728m31.4,0-13.337,39.451a.338.338,0,0,1-.657-.107v-45.072a24.045,24.045,0,0,1,13.994,5.728" transform="translate(-511.934 3077.16)" fill="#e3f2fd"/>
      <path id="Trazado_1234-42" data-name="Trazado 1234" d="M546.717,1500.264a24.065,24.065,0,0,0-5.784,15.667c0,4.725,9.663,13.137,16.77,18.688a.326.326,0,0,0,.5-.371Zm36.788,0-11.49,33.984a.327.327,0,0,0,.5.373c7.107-5.55,16.773-13.964,16.773-18.689a24.052,24.052,0,0,0-5.786-15.667m-34.1-2.7,13.337,39.453a.338.338,0,0,0,.657-.109v-45.072a24.045,24.045,0,0,0-13.994,5.728m31.4,0-13.337,39.451a.338.338,0,0,1-.657-.107v-45.072a24.045,24.045,0,0,1,13.994,5.728" transform="translate(-449.362 3148.743)" fill="#e3f2fd"/>
    </g>
    <g id="Grupo_1738-43" data-name="Grupo 1738" transform="translate(-29 -4143)">
      <path id="Trazado_1233-43" data-name="Trazado 1233" d="M546.717,1500.264a24.065,24.065,0,0,0-5.784,15.667c0,4.725,9.663,13.137,16.77,18.688a.326.326,0,0,0,.5-.371Zm36.788,0-11.49,33.984a.327.327,0,0,0,.5.373c7.107-5.55,16.773-13.964,16.773-18.689a24.052,24.052,0,0,0-5.786-15.667m-34.1-2.7,13.337,39.453a.338.338,0,0,0,.657-.109v-45.072a24.045,24.045,0,0,0-13.994,5.728m31.4,0-13.337,39.451a.338.338,0,0,1-.657-.107v-45.072a24.045,24.045,0,0,1,13.994,5.728" transform="translate(-511.934 3077.16)" fill="#e3f2fd"/>
      <path id="Trazado_1234-43" data-name="Trazado 1234" d="M546.717,1500.264a24.065,24.065,0,0,0-5.784,15.667c0,4.725,9.663,13.137,16.77,18.688a.326.326,0,0,0,.5-.371Zm36.788,0-11.49,33.984a.327.327,0,0,0,.5.373c7.107-5.55,16.773-13.964,16.773-18.689a24.052,24.052,0,0,0-5.786-15.667m-34.1-2.7,13.337,39.453a.338.338,0,0,0,.657-.109v-45.072a24.045,24.045,0,0,0-13.994,5.728m31.4,0-13.337,39.451a.338.338,0,0,1-.657-.107v-45.072a24.045,24.045,0,0,1,13.994,5.728" transform="translate(-449.362 3148.743)" fill="#e3f2fd"/>
    </g>
    <g id="Grupo_1738-44" data-name="Grupo 1738" transform="translate(103 -4143)">
      <path id="Trazado_1233-44" data-name="Trazado 1233" d="M546.717,1500.264a24.065,24.065,0,0,0-5.784,15.667c0,4.725,9.663,13.137,16.77,18.688a.326.326,0,0,0,.5-.371Zm36.788,0-11.49,33.984a.327.327,0,0,0,.5.373c7.107-5.55,16.773-13.964,16.773-18.689a24.052,24.052,0,0,0-5.786-15.667m-34.1-2.7,13.337,39.453a.338.338,0,0,0,.657-.109v-45.072a24.045,24.045,0,0,0-13.994,5.728m31.4,0-13.337,39.451a.338.338,0,0,1-.657-.107v-45.072a24.045,24.045,0,0,1,13.994,5.728" transform="translate(-511.934 3077.16)" fill="#e3f2fd"/>
      <path id="Trazado_1234-44" data-name="Trazado 1234" d="M546.717,1500.264a24.065,24.065,0,0,0-5.784,15.667c0,4.725,9.663,13.137,16.77,18.688a.326.326,0,0,0,.5-.371Zm36.788,0-11.49,33.984a.327.327,0,0,0,.5.373c7.107-5.55,16.773-13.964,16.773-18.689a24.052,24.052,0,0,0-5.786-15.667m-34.1-2.7,13.337,39.453a.338.338,0,0,0,.657-.109v-45.072a24.045,24.045,0,0,0-13.994,5.728m31.4,0-13.337,39.451a.338.338,0,0,1-.657-.107v-45.072a24.045,24.045,0,0,1,13.994,5.728" transform="translate(-449.362 3148.743)" fill="#e3f2fd"/>
    </g>
    <g id="Grupo_1738-45" data-name="Grupo 1738" transform="translate(235 -4143)">
      <path id="Trazado_1233-45" data-name="Trazado 1233" d="M546.717,1500.264a24.065,24.065,0,0,0-5.784,15.667c0,4.725,9.663,13.137,16.77,18.688a.326.326,0,0,0,.5-.371Zm36.788,0-11.49,33.984a.327.327,0,0,0,.5.373c7.107-5.55,16.773-13.964,16.773-18.689a24.052,24.052,0,0,0-5.786-15.667m-34.1-2.7,13.337,39.453a.338.338,0,0,0,.657-.109v-45.072a24.045,24.045,0,0,0-13.994,5.728m31.4,0-13.337,39.451a.338.338,0,0,1-.657-.107v-45.072a24.045,24.045,0,0,1,13.994,5.728" transform="translate(-511.934 3077.16)" fill="#e3f2fd"/>
      <path id="Trazado_1234-45" data-name="Trazado 1234" d="M546.717,1500.264a24.065,24.065,0,0,0-5.784,15.667c0,4.725,9.663,13.137,16.77,18.688a.326.326,0,0,0,.5-.371Zm36.788,0-11.49,33.984a.327.327,0,0,0,.5.373c7.107-5.55,16.773-13.964,16.773-18.689a24.052,24.052,0,0,0-5.786-15.667m-34.1-2.7,13.337,39.453a.338.338,0,0,0,.657-.109v-45.072a24.045,24.045,0,0,0-13.994,5.728m31.4,0-13.337,39.451a.338.338,0,0,1-.657-.107v-45.072a24.045,24.045,0,0,1,13.994,5.728" transform="translate(-449.362 3148.743)" fill="#e3f2fd"/>
    </g>
    <g id="Grupo_1738-46" data-name="Grupo 1738" transform="translate(367 -4143)">
      <path id="Trazado_1233-46" data-name="Trazado 1233" d="M546.717,1500.264a24.065,24.065,0,0,0-5.784,15.667c0,4.725,9.663,13.137,16.77,18.688a.326.326,0,0,0,.5-.371Zm36.788,0-11.49,33.984a.327.327,0,0,0,.5.373c7.107-5.55,16.773-13.964,16.773-18.689a24.052,24.052,0,0,0-5.786-15.667m-34.1-2.7,13.337,39.453a.338.338,0,0,0,.657-.109v-45.072a24.045,24.045,0,0,0-13.994,5.728m31.4,0-13.337,39.451a.338.338,0,0,1-.657-.107v-45.072a24.045,24.045,0,0,1,13.994,5.728" transform="translate(-511.934 3077.16)" fill="#e3f2fd"/>
      <path id="Trazado_1234-46" data-name="Trazado 1234" d="M546.717,1500.264a24.065,24.065,0,0,0-5.784,15.667c0,4.725,9.663,13.137,16.77,18.688a.326.326,0,0,0,.5-.371Zm36.788,0-11.49,33.984a.327.327,0,0,0,.5.373c7.107-5.55,16.773-13.964,16.773-18.689a24.052,24.052,0,0,0-5.786-15.667m-34.1-2.7,13.337,39.453a.338.338,0,0,0,.657-.109v-45.072a24.045,24.045,0,0,0-13.994,5.728m31.4,0-13.337,39.451a.338.338,0,0,1-.657-.107v-45.072a24.045,24.045,0,0,1,13.994,5.728" transform="translate(-449.362 3148.743)" fill="#e3f2fd"/>
    </g>
    <g id="Grupo_1738-47" data-name="Grupo 1738" transform="translate(499 -4143)">
      <path id="Trazado_1233-47" data-name="Trazado 1233" d="M546.717,1500.264a24.065,24.065,0,0,0-5.784,15.667c0,4.725,9.663,13.137,16.77,18.688a.326.326,0,0,0,.5-.371Zm36.788,0-11.49,33.984a.327.327,0,0,0,.5.373c7.107-5.55,16.773-13.964,16.773-18.689a24.052,24.052,0,0,0-5.786-15.667m-34.1-2.7,13.337,39.453a.338.338,0,0,0,.657-.109v-45.072a24.045,24.045,0,0,0-13.994,5.728m31.4,0-13.337,39.451a.338.338,0,0,1-.657-.107v-45.072a24.045,24.045,0,0,1,13.994,5.728" transform="translate(-511.934 3077.16)" fill="#e3f2fd"/>
      <path id="Trazado_1234-47" data-name="Trazado 1234" d="M546.717,1500.264a24.065,24.065,0,0,0-5.784,15.667c0,4.725,9.663,13.137,16.77,18.688a.326.326,0,0,0,.5-.371Zm36.788,0-11.49,33.984a.327.327,0,0,0,.5.373c7.107-5.55,16.773-13.964,16.773-18.689a24.052,24.052,0,0,0-5.786-15.667m-34.1-2.7,13.337,39.453a.338.338,0,0,0,.657-.109v-45.072a24.045,24.045,0,0,0-13.994,5.728m31.4,0-13.337,39.451a.338.338,0,0,1-.657-.107v-45.072a24.045,24.045,0,0,1,13.994,5.728" transform="translate(-449.362 3148.743)" fill="#e3f2fd"/>
    </g>
    <g id="Grupo_1738-48" data-name="Grupo 1738" transform="translate(631 -4143)">
      <path id="Trazado_1233-48" data-name="Trazado 1233" d="M546.717,1500.264a24.065,24.065,0,0,0-5.784,15.667c0,4.725,9.663,13.137,16.77,18.688a.326.326,0,0,0,.5-.371Zm36.788,0-11.49,33.984a.327.327,0,0,0,.5.373c7.107-5.55,16.773-13.964,16.773-18.689a24.052,24.052,0,0,0-5.786-15.667m-34.1-2.7,13.337,39.453a.338.338,0,0,0,.657-.109v-45.072a24.045,24.045,0,0,0-13.994,5.728m31.4,0-13.337,39.451a.338.338,0,0,1-.657-.107v-45.072a24.045,24.045,0,0,1,13.994,5.728" transform="translate(-511.934 3077.16)" fill="#e3f2fd"/>
      <path id="Trazado_1234-48" data-name="Trazado 1234" d="M546.717,1500.264a24.065,24.065,0,0,0-5.784,15.667c0,4.725,9.663,13.137,16.77,18.688a.326.326,0,0,0,.5-.371Zm36.788,0-11.49,33.984a.327.327,0,0,0,.5.373c7.107-5.55,16.773-13.964,16.773-18.689a24.052,24.052,0,0,0-5.786-15.667m-34.1-2.7,13.337,39.453a.338.338,0,0,0,.657-.109v-45.072a24.045,24.045,0,0,0-13.994,5.728m31.4,0-13.337,39.451a.338.338,0,0,1-.657-.107v-45.072a24.045,24.045,0,0,1,13.994,5.728" transform="translate(-449.362 3148.743)" fill="#e3f2fd"/>
    </g>
    <g id="Grupo_1738-49" data-name="Grupo 1738" transform="translate(763 -4143)">
      <path id="Trazado_1233-49" data-name="Trazado 1233" d="M546.717,1500.264a24.065,24.065,0,0,0-5.784,15.667c0,4.725,9.663,13.137,16.77,18.688a.326.326,0,0,0,.5-.371Zm36.788,0-11.49,33.984a.327.327,0,0,0,.5.373c7.107-5.55,16.773-13.964,16.773-18.689a24.052,24.052,0,0,0-5.786-15.667m-34.1-2.7,13.337,39.453a.338.338,0,0,0,.657-.109v-45.072a24.045,24.045,0,0,0-13.994,5.728m31.4,0-13.337,39.451a.338.338,0,0,1-.657-.107v-45.072a24.045,24.045,0,0,1,13.994,5.728" transform="translate(-511.934 3077.16)" fill="#e3f2fd"/>
      <path id="Trazado_1234-49" data-name="Trazado 1234" d="M546.717,1500.264a24.065,24.065,0,0,0-5.784,15.667c0,4.725,9.663,13.137,16.77,18.688a.326.326,0,0,0,.5-.371Zm36.788,0-11.49,33.984a.327.327,0,0,0,.5.373c7.107-5.55,16.773-13.964,16.773-18.689a24.052,24.052,0,0,0-5.786-15.667m-34.1-2.7,13.337,39.453a.338.338,0,0,0,.657-.109v-45.072a24.045,24.045,0,0,0-13.994,5.728m31.4,0-13.337,39.451a.338.338,0,0,1-.657-.107v-45.072a24.045,24.045,0,0,1,13.994,5.728" transform="translate(-449.362 3148.743)" fill="#e3f2fd"/>
    </g>
    <g id="Grupo_1738-50" data-name="Grupo 1738" transform="translate(895 -4143)">
      <path id="Trazado_1233-50" data-name="Trazado 1233" d="M546.717,1500.264a24.065,24.065,0,0,0-5.784,15.667c0,4.725,9.663,13.137,16.77,18.688a.326.326,0,0,0,.5-.371Zm36.788,0-11.49,33.984a.327.327,0,0,0,.5.373c7.107-5.55,16.773-13.964,16.773-18.689a24.052,24.052,0,0,0-5.786-15.667m-34.1-2.7,13.337,39.453a.338.338,0,0,0,.657-.109v-45.072a24.045,24.045,0,0,0-13.994,5.728m31.4,0-13.337,39.451a.338.338,0,0,1-.657-.107v-45.072a24.045,24.045,0,0,1,13.994,5.728" transform="translate(-511.934 3077.16)" fill="#e3f2fd"/>
      <path id="Trazado_1234-50" data-name="Trazado 1234" d="M546.717,1500.264a24.065,24.065,0,0,0-5.784,15.667c0,4.725,9.663,13.137,16.77,18.688a.326.326,0,0,0,.5-.371Zm36.788,0-11.49,33.984a.327.327,0,0,0,.5.373c7.107-5.55,16.773-13.964,16.773-18.689a24.052,24.052,0,0,0-5.786-15.667m-34.1-2.7,13.337,39.453a.338.338,0,0,0,.657-.109v-45.072a24.045,24.045,0,0,0-13.994,5.728m31.4,0-13.337,39.451a.338.338,0,0,1-.657-.107v-45.072a24.045,24.045,0,0,1,13.994,5.728" transform="translate(-449.362 3148.743)" fill="#e3f2fd"/>
    </g>
    <g id="Grupo_1738-51" data-name="Grupo 1738" transform="translate(1027 -4143)">
      <path id="Trazado_1233-51" data-name="Trazado 1233" d="M546.717,1500.264a24.065,24.065,0,0,0-5.784,15.667c0,4.725,9.663,13.137,16.77,18.688a.326.326,0,0,0,.5-.371Zm36.788,0-11.49,33.984a.327.327,0,0,0,.5.373c7.107-5.55,16.773-13.964,16.773-18.689a24.052,24.052,0,0,0-5.786-15.667m-34.1-2.7,13.337,39.453a.338.338,0,0,0,.657-.109v-45.072a24.045,24.045,0,0,0-13.994,5.728m31.4,0-13.337,39.451a.338.338,0,0,1-.657-.107v-45.072a24.045,24.045,0,0,1,13.994,5.728" transform="translate(-511.934 3077.16)" fill="#e3f2fd"/>
      <path id="Trazado_1234-51" data-name="Trazado 1234" d="M546.717,1500.264a24.065,24.065,0,0,0-5.784,15.667c0,4.725,9.663,13.137,16.77,18.688a.326.326,0,0,0,.5-.371Zm36.788,0-11.49,33.984a.327.327,0,0,0,.5.373c7.107-5.55,16.773-13.964,16.773-18.689a24.052,24.052,0,0,0-5.786-15.667m-34.1-2.7,13.337,39.453a.338.338,0,0,0,.657-.109v-45.072a24.045,24.045,0,0,0-13.994,5.728m31.4,0-13.337,39.451a.338.338,0,0,1-.657-.107v-45.072a24.045,24.045,0,0,1,13.994,5.728" transform="translate(-449.362 3148.743)" fill="#e3f2fd"/>
    </g>
    <g id="Grupo_1738-52" data-name="Grupo 1738" transform="translate(1159 -4143)">
      <path id="Trazado_1233-52" data-name="Trazado 1233" d="M546.717,1500.264a24.065,24.065,0,0,0-5.784,15.667c0,4.725,9.663,13.137,16.77,18.688a.326.326,0,0,0,.5-.371Zm36.788,0-11.49,33.984a.327.327,0,0,0,.5.373c7.107-5.55,16.773-13.964,16.773-18.689a24.052,24.052,0,0,0-5.786-15.667m-34.1-2.7,13.337,39.453a.338.338,0,0,0,.657-.109v-45.072a24.045,24.045,0,0,0-13.994,5.728m31.4,0-13.337,39.451a.338.338,0,0,1-.657-.107v-45.072a24.045,24.045,0,0,1,13.994,5.728" transform="translate(-511.934 3077.16)" fill="#e3f2fd"/>
      <path id="Trazado_1234-52" data-name="Trazado 1234" d="M546.717,1500.264a24.065,24.065,0,0,0-5.784,15.667c0,4.725,9.663,13.137,16.77,18.688a.326.326,0,0,0,.5-.371Zm36.788,0-11.49,33.984a.327.327,0,0,0,.5.373c7.107-5.55,16.773-13.964,16.773-18.689a24.052,24.052,0,0,0-5.786-15.667m-34.1-2.7,13.337,39.453a.338.338,0,0,0,.657-.109v-45.072a24.045,24.045,0,0,0-13.994,5.728m31.4,0-13.337,39.451a.338.338,0,0,1-.657-.107v-45.072a24.045,24.045,0,0,1,13.994,5.728" transform="translate(-449.362 3148.743)" fill="#e3f2fd"/>
    </g>
    <g id="Grupo_1738-53" data-name="Grupo 1738" transform="translate(1291 -4143)">
      <path id="Trazado_1233-53" data-name="Trazado 1233" d="M546.717,1500.264a24.065,24.065,0,0,0-5.784,15.667c0,4.725,9.663,13.137,16.77,18.688a.326.326,0,0,0,.5-.371Zm36.788,0-11.49,33.984a.327.327,0,0,0,.5.373c7.107-5.55,16.773-13.964,16.773-18.689a24.052,24.052,0,0,0-5.786-15.667m-34.1-2.7,13.337,39.453a.338.338,0,0,0,.657-.109v-45.072a24.045,24.045,0,0,0-13.994,5.728m31.4,0-13.337,39.451a.338.338,0,0,1-.657-.107v-45.072a24.045,24.045,0,0,1,13.994,5.728" transform="translate(-511.934 3077.16)" fill="#e3f2fd"/>
      <path id="Trazado_1234-53" data-name="Trazado 1234" d="M546.717,1500.264a24.065,24.065,0,0,0-5.784,15.667c0,4.725,9.663,13.137,16.77,18.688a.326.326,0,0,0,.5-.371Zm36.788,0-11.49,33.984a.327.327,0,0,0,.5.373c7.107-5.55,16.773-13.964,16.773-18.689a24.052,24.052,0,0,0-5.786-15.667m-34.1-2.7,13.337,39.453a.338.338,0,0,0,.657-.109v-45.072a24.045,24.045,0,0,0-13.994,5.728m31.4,0-13.337,39.451a.338.338,0,0,1-.657-.107v-45.072a24.045,24.045,0,0,1,13.994,5.728" transform="translate(-449.362 3148.743)" fill="#e3f2fd"/>
    </g>
    <g id="Grupo_1738-54" data-name="Grupo 1738" transform="translate(1423 -4143)">
      <path id="Trazado_1233-54" data-name="Trazado 1233" d="M546.717,1500.264a24.065,24.065,0,0,0-5.784,15.667c0,4.725,9.663,13.137,16.77,18.688a.326.326,0,0,0,.5-.371Zm36.788,0-11.49,33.984a.327.327,0,0,0,.5.373c7.107-5.55,16.773-13.964,16.773-18.689a24.052,24.052,0,0,0-5.786-15.667m-34.1-2.7,13.337,39.453a.338.338,0,0,0,.657-.109v-45.072a24.045,24.045,0,0,0-13.994,5.728m31.4,0-13.337,39.451a.338.338,0,0,1-.657-.107v-45.072a24.045,24.045,0,0,1,13.994,5.728" transform="translate(-511.934 3077.16)" fill="#e3f2fd"/>
      <path id="Trazado_1234-54" data-name="Trazado 1234" d="M546.717,1500.264a24.065,24.065,0,0,0-5.784,15.667c0,4.725,9.663,13.137,16.77,18.688a.326.326,0,0,0,.5-.371Zm36.788,0-11.49,33.984a.327.327,0,0,0,.5.373c7.107-5.55,16.773-13.964,16.773-18.689a24.052,24.052,0,0,0-5.786-15.667m-34.1-2.7,13.337,39.453a.338.338,0,0,0,.657-.109v-45.072a24.045,24.045,0,0,0-13.994,5.728m31.4,0-13.337,39.451a.338.338,0,0,1-.657-.107v-45.072a24.045,24.045,0,0,1,13.994,5.728" transform="translate(-449.362 3148.743)" fill="#e3f2fd"/>
    </g>
    <g id="Grupo_1738-55" data-name="Grupo 1738" transform="translate(1555 -4143)">
      <path id="Trazado_1233-55" data-name="Trazado 1233" d="M546.717,1500.264a24.065,24.065,0,0,0-5.784,15.667c0,4.725,9.663,13.137,16.77,18.688a.326.326,0,0,0,.5-.371Zm36.788,0-11.49,33.984a.327.327,0,0,0,.5.373c7.107-5.55,16.773-13.964,16.773-18.689a24.052,24.052,0,0,0-5.786-15.667m-34.1-2.7,13.337,39.453a.338.338,0,0,0,.657-.109v-45.072a24.045,24.045,0,0,0-13.994,5.728m31.4,0-13.337,39.451a.338.338,0,0,1-.657-.107v-45.072a24.045,24.045,0,0,1,13.994,5.728" transform="translate(-511.934 3077.16)" fill="#e3f2fd"/>
      <path id="Trazado_1234-55" data-name="Trazado 1234" d="M546.717,1500.264a24.065,24.065,0,0,0-5.784,15.667c0,4.725,9.663,13.137,16.77,18.688a.326.326,0,0,0,.5-.371Zm36.788,0-11.49,33.984a.327.327,0,0,0,.5.373c7.107-5.55,16.773-13.964,16.773-18.689a24.052,24.052,0,0,0-5.786-15.667m-34.1-2.7,13.337,39.453a.338.338,0,0,0,.657-.109v-45.072a24.045,24.045,0,0,0-13.994,5.728m31.4,0-13.337,39.451a.338.338,0,0,1-.657-.107v-45.072a24.045,24.045,0,0,1,13.994,5.728" transform="translate(-449.362 3148.743)" fill="#e3f2fd"/>
    </g>
    <g id="Grupo_1738-56" data-name="Grupo 1738" transform="translate(1687 -4143)">
      <path id="Trazado_1233-56" data-name="Trazado 1233" d="M546.717,1500.264a24.065,24.065,0,0,0-5.784,15.667c0,4.725,9.663,13.137,16.77,18.688a.326.326,0,0,0,.5-.371Zm36.788,0-11.49,33.984a.327.327,0,0,0,.5.373c7.107-5.55,16.773-13.964,16.773-18.689a24.052,24.052,0,0,0-5.786-15.667m-34.1-2.7,13.337,39.453a.338.338,0,0,0,.657-.109v-45.072a24.045,24.045,0,0,0-13.994,5.728m31.4,0-13.337,39.451a.338.338,0,0,1-.657-.107v-45.072a24.045,24.045,0,0,1,13.994,5.728" transform="translate(-511.934 3077.16)" fill="#e3f2fd"/>
      <path id="Trazado_1234-56" data-name="Trazado 1234" d="M546.717,1500.264a24.065,24.065,0,0,0-5.784,15.667c0,4.725,9.663,13.137,16.77,18.688a.326.326,0,0,0,.5-.371Zm36.788,0-11.49,33.984a.327.327,0,0,0,.5.373c7.107-5.55,16.773-13.964,16.773-18.689a24.052,24.052,0,0,0-5.786-15.667m-34.1-2.7,13.337,39.453a.338.338,0,0,0,.657-.109v-45.072a24.045,24.045,0,0,0-13.994,5.728m31.4,0-13.337,39.451a.338.338,0,0,1-.657-.107v-45.072a24.045,24.045,0,0,1,13.994,5.728" transform="translate(-449.362 3148.743)" fill="#e3f2fd"/>
    </g>
    <g id="Grupo_1738-57" data-name="Grupo 1738" transform="translate(-29 -4001)">
      <path id="Trazado_1233-57" data-name="Trazado 1233" d="M546.717,1500.264a24.065,24.065,0,0,0-5.784,15.667c0,4.725,9.663,13.137,16.77,18.688a.326.326,0,0,0,.5-.371Zm36.788,0-11.49,33.984a.327.327,0,0,0,.5.373c7.107-5.55,16.773-13.964,16.773-18.689a24.052,24.052,0,0,0-5.786-15.667m-34.1-2.7,13.337,39.453a.338.338,0,0,0,.657-.109v-45.072a24.045,24.045,0,0,0-13.994,5.728m31.4,0-13.337,39.451a.338.338,0,0,1-.657-.107v-45.072a24.045,24.045,0,0,1,13.994,5.728" transform="translate(-511.934 3077.16)" fill="#e3f2fd"/>
      <path id="Trazado_1234-57" data-name="Trazado 1234" d="M546.717,1500.264a24.065,24.065,0,0,0-5.784,15.667c0,4.725,9.663,13.137,16.77,18.688a.326.326,0,0,0,.5-.371Zm36.788,0-11.49,33.984a.327.327,0,0,0,.5.373c7.107-5.55,16.773-13.964,16.773-18.689a24.052,24.052,0,0,0-5.786-15.667m-34.1-2.7,13.337,39.453a.338.338,0,0,0,.657-.109v-45.072a24.045,24.045,0,0,0-13.994,5.728m31.4,0-13.337,39.451a.338.338,0,0,1-.657-.107v-45.072a24.045,24.045,0,0,1,13.994,5.728" transform="translate(-449.362 3148.743)" fill="#e3f2fd"/>
    </g>
    <g id="Grupo_1738-58" data-name="Grupo 1738" transform="translate(103 -4001)">
      <path id="Trazado_1233-58" data-name="Trazado 1233" d="M546.717,1500.264a24.065,24.065,0,0,0-5.784,15.667c0,4.725,9.663,13.137,16.77,18.688a.326.326,0,0,0,.5-.371Zm36.788,0-11.49,33.984a.327.327,0,0,0,.5.373c7.107-5.55,16.773-13.964,16.773-18.689a24.052,24.052,0,0,0-5.786-15.667m-34.1-2.7,13.337,39.453a.338.338,0,0,0,.657-.109v-45.072a24.045,24.045,0,0,0-13.994,5.728m31.4,0-13.337,39.451a.338.338,0,0,1-.657-.107v-45.072a24.045,24.045,0,0,1,13.994,5.728" transform="translate(-511.934 3077.16)" fill="#e3f2fd"/>
      <path id="Trazado_1234-58" data-name="Trazado 1234" d="M546.717,1500.264a24.065,24.065,0,0,0-5.784,15.667c0,4.725,9.663,13.137,16.77,18.688a.326.326,0,0,0,.5-.371Zm36.788,0-11.49,33.984a.327.327,0,0,0,.5.373c7.107-5.55,16.773-13.964,16.773-18.689a24.052,24.052,0,0,0-5.786-15.667m-34.1-2.7,13.337,39.453a.338.338,0,0,0,.657-.109v-45.072a24.045,24.045,0,0,0-13.994,5.728m31.4,0-13.337,39.451a.338.338,0,0,1-.657-.107v-45.072a24.045,24.045,0,0,1,13.994,5.728" transform="translate(-449.362 3148.743)" fill="#e3f2fd"/>
    </g>
    <g id="Grupo_1738-59" data-name="Grupo 1738" transform="translate(235 -4001)">
      <path id="Trazado_1233-59" data-name="Trazado 1233" d="M546.717,1500.264a24.065,24.065,0,0,0-5.784,15.667c0,4.725,9.663,13.137,16.77,18.688a.326.326,0,0,0,.5-.371Zm36.788,0-11.49,33.984a.327.327,0,0,0,.5.373c7.107-5.55,16.773-13.964,16.773-18.689a24.052,24.052,0,0,0-5.786-15.667m-34.1-2.7,13.337,39.453a.338.338,0,0,0,.657-.109v-45.072a24.045,24.045,0,0,0-13.994,5.728m31.4,0-13.337,39.451a.338.338,0,0,1-.657-.107v-45.072a24.045,24.045,0,0,1,13.994,5.728" transform="translate(-511.934 3077.16)" fill="#e3f2fd"/>
      <path id="Trazado_1234-59" data-name="Trazado 1234" d="M546.717,1500.264a24.065,24.065,0,0,0-5.784,15.667c0,4.725,9.663,13.137,16.77,18.688a.326.326,0,0,0,.5-.371Zm36.788,0-11.49,33.984a.327.327,0,0,0,.5.373c7.107-5.55,16.773-13.964,16.773-18.689a24.052,24.052,0,0,0-5.786-15.667m-34.1-2.7,13.337,39.453a.338.338,0,0,0,.657-.109v-45.072a24.045,24.045,0,0,0-13.994,5.728m31.4,0-13.337,39.451a.338.338,0,0,1-.657-.107v-45.072a24.045,24.045,0,0,1,13.994,5.728" transform="translate(-449.362 3148.743)" fill="#e3f2fd"/>
    </g>
    <g id="Grupo_1738-60" data-name="Grupo 1738" transform="translate(367 -4001)">
      <path id="Trazado_1233-60" data-name="Trazado 1233" d="M546.717,1500.264a24.065,24.065,0,0,0-5.784,15.667c0,4.725,9.663,13.137,16.77,18.688a.326.326,0,0,0,.5-.371Zm36.788,0-11.49,33.984a.327.327,0,0,0,.5.373c7.107-5.55,16.773-13.964,16.773-18.689a24.052,24.052,0,0,0-5.786-15.667m-34.1-2.7,13.337,39.453a.338.338,0,0,0,.657-.109v-45.072a24.045,24.045,0,0,0-13.994,5.728m31.4,0-13.337,39.451a.338.338,0,0,1-.657-.107v-45.072a24.045,24.045,0,0,1,13.994,5.728" transform="translate(-511.934 3077.16)" fill="#e3f2fd"/>
      <path id="Trazado_1234-60" data-name="Trazado 1234" d="M546.717,1500.264a24.065,24.065,0,0,0-5.784,15.667c0,4.725,9.663,13.137,16.77,18.688a.326.326,0,0,0,.5-.371Zm36.788,0-11.49,33.984a.327.327,0,0,0,.5.373c7.107-5.55,16.773-13.964,16.773-18.689a24.052,24.052,0,0,0-5.786-15.667m-34.1-2.7,13.337,39.453a.338.338,0,0,0,.657-.109v-45.072a24.045,24.045,0,0,0-13.994,5.728m31.4,0-13.337,39.451a.338.338,0,0,1-.657-.107v-45.072a24.045,24.045,0,0,1,13.994,5.728" transform="translate(-449.362 3148.743)" fill="#e3f2fd"/>
    </g>
    <g id="Grupo_1738-61" data-name="Grupo 1738" transform="translate(499 -4001)">
      <path id="Trazado_1233-61" data-name="Trazado 1233" d="M546.717,1500.264a24.065,24.065,0,0,0-5.784,15.667c0,4.725,9.663,13.137,16.77,18.688a.326.326,0,0,0,.5-.371Zm36.788,0-11.49,33.984a.327.327,0,0,0,.5.373c7.107-5.55,16.773-13.964,16.773-18.689a24.052,24.052,0,0,0-5.786-15.667m-34.1-2.7,13.337,39.453a.338.338,0,0,0,.657-.109v-45.072a24.045,24.045,0,0,0-13.994,5.728m31.4,0-13.337,39.451a.338.338,0,0,1-.657-.107v-45.072a24.045,24.045,0,0,1,13.994,5.728" transform="translate(-511.934 3077.16)" fill="#e3f2fd"/>
      <path id="Trazado_1234-61" data-name="Trazado 1234" d="M546.717,1500.264a24.065,24.065,0,0,0-5.784,15.667c0,4.725,9.663,13.137,16.77,18.688a.326.326,0,0,0,.5-.371Zm36.788,0-11.49,33.984a.327.327,0,0,0,.5.373c7.107-5.55,16.773-13.964,16.773-18.689a24.052,24.052,0,0,0-5.786-15.667m-34.1-2.7,13.337,39.453a.338.338,0,0,0,.657-.109v-45.072a24.045,24.045,0,0,0-13.994,5.728m31.4,0-13.337,39.451a.338.338,0,0,1-.657-.107v-45.072a24.045,24.045,0,0,1,13.994,5.728" transform="translate(-449.362 3148.743)" fill="#e3f2fd"/>
    </g>
    <g id="Grupo_1738-62" data-name="Grupo 1738" transform="translate(631 -4001)">
      <path id="Trazado_1233-62" data-name="Trazado 1233" d="M546.717,1500.264a24.065,24.065,0,0,0-5.784,15.667c0,4.725,9.663,13.137,16.77,18.688a.326.326,0,0,0,.5-.371Zm36.788,0-11.49,33.984a.327.327,0,0,0,.5.373c7.107-5.55,16.773-13.964,16.773-18.689a24.052,24.052,0,0,0-5.786-15.667m-34.1-2.7,13.337,39.453a.338.338,0,0,0,.657-.109v-45.072a24.045,24.045,0,0,0-13.994,5.728m31.4,0-13.337,39.451a.338.338,0,0,1-.657-.107v-45.072a24.045,24.045,0,0,1,13.994,5.728" transform="translate(-511.934 3077.16)" fill="#e3f2fd"/>
      <path id="Trazado_1234-62" data-name="Trazado 1234" d="M546.717,1500.264a24.065,24.065,0,0,0-5.784,15.667c0,4.725,9.663,13.137,16.77,18.688a.326.326,0,0,0,.5-.371Zm36.788,0-11.49,33.984a.327.327,0,0,0,.5.373c7.107-5.55,16.773-13.964,16.773-18.689a24.052,24.052,0,0,0-5.786-15.667m-34.1-2.7,13.337,39.453a.338.338,0,0,0,.657-.109v-45.072a24.045,24.045,0,0,0-13.994,5.728m31.4,0-13.337,39.451a.338.338,0,0,1-.657-.107v-45.072a24.045,24.045,0,0,1,13.994,5.728" transform="translate(-449.362 3148.743)" fill="#e3f2fd"/>
    </g>
    <g id="Grupo_1738-63" data-name="Grupo 1738" transform="translate(763 -4001)">
      <path id="Trazado_1233-63" data-name="Trazado 1233" d="M546.717,1500.264a24.065,24.065,0,0,0-5.784,15.667c0,4.725,9.663,13.137,16.77,18.688a.326.326,0,0,0,.5-.371Zm36.788,0-11.49,33.984a.327.327,0,0,0,.5.373c7.107-5.55,16.773-13.964,16.773-18.689a24.052,24.052,0,0,0-5.786-15.667m-34.1-2.7,13.337,39.453a.338.338,0,0,0,.657-.109v-45.072a24.045,24.045,0,0,0-13.994,5.728m31.4,0-13.337,39.451a.338.338,0,0,1-.657-.107v-45.072a24.045,24.045,0,0,1,13.994,5.728" transform="translate(-511.934 3077.16)" fill="#e3f2fd"/>
      <path id="Trazado_1234-63" data-name="Trazado 1234" d="M546.717,1500.264a24.065,24.065,0,0,0-5.784,15.667c0,4.725,9.663,13.137,16.77,18.688a.326.326,0,0,0,.5-.371Zm36.788,0-11.49,33.984a.327.327,0,0,0,.5.373c7.107-5.55,16.773-13.964,16.773-18.689a24.052,24.052,0,0,0-5.786-15.667m-34.1-2.7,13.337,39.453a.338.338,0,0,0,.657-.109v-45.072a24.045,24.045,0,0,0-13.994,5.728m31.4,0-13.337,39.451a.338.338,0,0,1-.657-.107v-45.072a24.045,24.045,0,0,1,13.994,5.728" transform="translate(-449.362 3148.743)" fill="#e3f2fd"/>
    </g>
    <g id="Grupo_1738-64" data-name="Grupo 1738" transform="translate(895 -4001)">
      <path id="Trazado_1233-64" data-name="Trazado 1233" d="M546.717,1500.264a24.065,24.065,0,0,0-5.784,15.667c0,4.725,9.663,13.137,16.77,18.688a.326.326,0,0,0,.5-.371Zm36.788,0-11.49,33.984a.327.327,0,0,0,.5.373c7.107-5.55,16.773-13.964,16.773-18.689a24.052,24.052,0,0,0-5.786-15.667m-34.1-2.7,13.337,39.453a.338.338,0,0,0,.657-.109v-45.072a24.045,24.045,0,0,0-13.994,5.728m31.4,0-13.337,39.451a.338.338,0,0,1-.657-.107v-45.072a24.045,24.045,0,0,1,13.994,5.728" transform="translate(-511.934 3077.16)" fill="#e3f2fd"/>
      <path id="Trazado_1234-64" data-name="Trazado 1234" d="M546.717,1500.264a24.065,24.065,0,0,0-5.784,15.667c0,4.725,9.663,13.137,16.77,18.688a.326.326,0,0,0,.5-.371Zm36.788,0-11.49,33.984a.327.327,0,0,0,.5.373c7.107-5.55,16.773-13.964,16.773-18.689a24.052,24.052,0,0,0-5.786-15.667m-34.1-2.7,13.337,39.453a.338.338,0,0,0,.657-.109v-45.072a24.045,24.045,0,0,0-13.994,5.728m31.4,0-13.337,39.451a.338.338,0,0,1-.657-.107v-45.072a24.045,24.045,0,0,1,13.994,5.728" transform="translate(-449.362 3148.743)" fill="#e3f2fd"/>
    </g>
    <g id="Grupo_1738-65" data-name="Grupo 1738" transform="translate(1027 -4001)">
      <path id="Trazado_1233-65" data-name="Trazado 1233" d="M546.717,1500.264a24.065,24.065,0,0,0-5.784,15.667c0,4.725,9.663,13.137,16.77,18.688a.326.326,0,0,0,.5-.371Zm36.788,0-11.49,33.984a.327.327,0,0,0,.5.373c7.107-5.55,16.773-13.964,16.773-18.689a24.052,24.052,0,0,0-5.786-15.667m-34.1-2.7,13.337,39.453a.338.338,0,0,0,.657-.109v-45.072a24.045,24.045,0,0,0-13.994,5.728m31.4,0-13.337,39.451a.338.338,0,0,1-.657-.107v-45.072a24.045,24.045,0,0,1,13.994,5.728" transform="translate(-511.934 3077.16)" fill="#e3f2fd"/>
      <path id="Trazado_1234-65" data-name="Trazado 1234" d="M546.717,1500.264a24.065,24.065,0,0,0-5.784,15.667c0,4.725,9.663,13.137,16.77,18.688a.326.326,0,0,0,.5-.371Zm36.788,0-11.49,33.984a.327.327,0,0,0,.5.373c7.107-5.55,16.773-13.964,16.773-18.689a24.052,24.052,0,0,0-5.786-15.667m-34.1-2.7,13.337,39.453a.338.338,0,0,0,.657-.109v-45.072a24.045,24.045,0,0,0-13.994,5.728m31.4,0-13.337,39.451a.338.338,0,0,1-.657-.107v-45.072a24.045,24.045,0,0,1,13.994,5.728" transform="translate(-449.362 3148.743)" fill="#e3f2fd"/>
    </g>
    <g id="Grupo_1738-66" data-name="Grupo 1738" transform="translate(1159 -4001)">
      <path id="Trazado_1233-66" data-name="Trazado 1233" d="M546.717,1500.264a24.065,24.065,0,0,0-5.784,15.667c0,4.725,9.663,13.137,16.77,18.688a.326.326,0,0,0,.5-.371Zm36.788,0-11.49,33.984a.327.327,0,0,0,.5.373c7.107-5.55,16.773-13.964,16.773-18.689a24.052,24.052,0,0,0-5.786-15.667m-34.1-2.7,13.337,39.453a.338.338,0,0,0,.657-.109v-45.072a24.045,24.045,0,0,0-13.994,5.728m31.4,0-13.337,39.451a.338.338,0,0,1-.657-.107v-45.072a24.045,24.045,0,0,1,13.994,5.728" transform="translate(-511.934 3077.16)" fill="#e3f2fd"/>
      <path id="Trazado_1234-66" data-name="Trazado 1234" d="M546.717,1500.264a24.065,24.065,0,0,0-5.784,15.667c0,4.725,9.663,13.137,16.77,18.688a.326.326,0,0,0,.5-.371Zm36.788,0-11.49,33.984a.327.327,0,0,0,.5.373c7.107-5.55,16.773-13.964,16.773-18.689a24.052,24.052,0,0,0-5.786-15.667m-34.1-2.7,13.337,39.453a.338.338,0,0,0,.657-.109v-45.072a24.045,24.045,0,0,0-13.994,5.728m31.4,0-13.337,39.451a.338.338,0,0,1-.657-.107v-45.072a24.045,24.045,0,0,1,13.994,5.728" transform="translate(-449.362 3148.743)" fill="#e3f2fd"/>
    </g>
    <g id="Grupo_1738-67" data-name="Grupo 1738" transform="translate(1291 -4001)">
      <path id="Trazado_1233-67" data-name="Trazado 1233" d="M546.717,1500.264a24.065,24.065,0,0,0-5.784,15.667c0,4.725,9.663,13.137,16.77,18.688a.326.326,0,0,0,.5-.371Zm36.788,0-11.49,33.984a.327.327,0,0,0,.5.373c7.107-5.55,16.773-13.964,16.773-18.689a24.052,24.052,0,0,0-5.786-15.667m-34.1-2.7,13.337,39.453a.338.338,0,0,0,.657-.109v-45.072a24.045,24.045,0,0,0-13.994,5.728m31.4,0-13.337,39.451a.338.338,0,0,1-.657-.107v-45.072a24.045,24.045,0,0,1,13.994,5.728" transform="translate(-511.934 3077.16)" fill="#e3f2fd"/>
      <path id="Trazado_1234-67" data-name="Trazado 1234" d="M546.717,1500.264a24.065,24.065,0,0,0-5.784,15.667c0,4.725,9.663,13.137,16.77,18.688a.326.326,0,0,0,.5-.371Zm36.788,0-11.49,33.984a.327.327,0,0,0,.5.373c7.107-5.55,16.773-13.964,16.773-18.689a24.052,24.052,0,0,0-5.786-15.667m-34.1-2.7,13.337,39.453a.338.338,0,0,0,.657-.109v-45.072a24.045,24.045,0,0,0-13.994,5.728m31.4,0-13.337,39.451a.338.338,0,0,1-.657-.107v-45.072a24.045,24.045,0,0,1,13.994,5.728" transform="translate(-449.362 3148.743)" fill="#e3f2fd"/>
    </g>
    <g id="Grupo_1738-68" data-name="Grupo 1738" transform="translate(1423 -4001)">
      <path id="Trazado_1233-68" data-name="Trazado 1233" d="M546.717,1500.264a24.065,24.065,0,0,0-5.784,15.667c0,4.725,9.663,13.137,16.77,18.688a.326.326,0,0,0,.5-.371Zm36.788,0-11.49,33.984a.327.327,0,0,0,.5.373c7.107-5.55,16.773-13.964,16.773-18.689a24.052,24.052,0,0,0-5.786-15.667m-34.1-2.7,13.337,39.453a.338.338,0,0,0,.657-.109v-45.072a24.045,24.045,0,0,0-13.994,5.728m31.4,0-13.337,39.451a.338.338,0,0,1-.657-.107v-45.072a24.045,24.045,0,0,1,13.994,5.728" transform="translate(-511.934 3077.16)" fill="#e3f2fd"/>
      <path id="Trazado_1234-68" data-name="Trazado 1234" d="M546.717,1500.264a24.065,24.065,0,0,0-5.784,15.667c0,4.725,9.663,13.137,16.77,18.688a.326.326,0,0,0,.5-.371Zm36.788,0-11.49,33.984a.327.327,0,0,0,.5.373c7.107-5.55,16.773-13.964,16.773-18.689a24.052,24.052,0,0,0-5.786-15.667m-34.1-2.7,13.337,39.453a.338.338,0,0,0,.657-.109v-45.072a24.045,24.045,0,0,0-13.994,5.728m31.4,0-13.337,39.451a.338.338,0,0,1-.657-.107v-45.072a24.045,24.045,0,0,1,13.994,5.728" transform="translate(-449.362 3148.743)" fill="#e3f2fd"/>
    </g>
    <g id="Grupo_1738-69" data-name="Grupo 1738" transform="translate(1555 -4001)">
      <path id="Trazado_1233-69" data-name="Trazado 1233" d="M546.717,1500.264a24.065,24.065,0,0,0-5.784,15.667c0,4.725,9.663,13.137,16.77,18.688a.326.326,0,0,0,.5-.371Zm36.788,0-11.49,33.984a.327.327,0,0,0,.5.373c7.107-5.55,16.773-13.964,16.773-18.689a24.052,24.052,0,0,0-5.786-15.667m-34.1-2.7,13.337,39.453a.338.338,0,0,0,.657-.109v-45.072a24.045,24.045,0,0,0-13.994,5.728m31.4,0-13.337,39.451a.338.338,0,0,1-.657-.107v-45.072a24.045,24.045,0,0,1,13.994,5.728" transform="translate(-511.934 3077.16)" fill="#e3f2fd"/>
      <path id="Trazado_1234-69" data-name="Trazado 1234" d="M546.717,1500.264a24.065,24.065,0,0,0-5.784,15.667c0,4.725,9.663,13.137,16.77,18.688a.326.326,0,0,0,.5-.371Zm36.788,0-11.49,33.984a.327.327,0,0,0,.5.373c7.107-5.55,16.773-13.964,16.773-18.689a24.052,24.052,0,0,0-5.786-15.667m-34.1-2.7,13.337,39.453a.338.338,0,0,0,.657-.109v-45.072a24.045,24.045,0,0,0-13.994,5.728m31.4,0-13.337,39.451a.338.338,0,0,1-.657-.107v-45.072a24.045,24.045,0,0,1,13.994,5.728" transform="translate(-449.362 3148.743)" fill="#e3f2fd"/>
    </g>
    <g id="Grupo_1738-70" data-name="Grupo 1738" transform="translate(1687 -4001)">
      <path id="Trazado_1233-70" data-name="Trazado 1233" d="M546.717,1500.264a24.065,24.065,0,0,0-5.784,15.667c0,4.725,9.663,13.137,16.77,18.688a.326.326,0,0,0,.5-.371Zm36.788,0-11.49,33.984a.327.327,0,0,0,.5.373c7.107-5.55,16.773-13.964,16.773-18.689a24.052,24.052,0,0,0-5.786-15.667m-34.1-2.7,13.337,39.453a.338.338,0,0,0,.657-.109v-45.072a24.045,24.045,0,0,0-13.994,5.728m31.4,0-13.337,39.451a.338.338,0,0,1-.657-.107v-45.072a24.045,24.045,0,0,1,13.994,5.728" transform="translate(-511.934 3077.16)" fill="#e3f2fd"/>
      <path id="Trazado_1234-70" data-name="Trazado 1234" d="M546.717,1500.264a24.065,24.065,0,0,0-5.784,15.667c0,4.725,9.663,13.137,16.77,18.688a.326.326,0,0,0,.5-.371Zm36.788,0-11.49,33.984a.327.327,0,0,0,.5.373c7.107-5.55,16.773-13.964,16.773-18.689a24.052,24.052,0,0,0-5.786-15.667m-34.1-2.7,13.337,39.453a.338.338,0,0,0,.657-.109v-45.072a24.045,24.045,0,0,0-13.994,5.728m31.4,0-13.337,39.451a.338.338,0,0,1-.657-.107v-45.072a24.045,24.045,0,0,1,13.994,5.728" transform="translate(-449.362 3148.743)" fill="#e3f2fd"/>
    </g>
  </g>
</svg>
