<svg xmlns="http://www.w3.org/2000/svg" xmlns:xlink="http://www.w3.org/1999/xlink" width="1836" height="1426.001" viewBox="0 0 1836 1426.001">
  <defs>
    <clipPath id="clip-path">
      <rect width="1836" height="1426.001" fill="none"/>
    </clipPath>
  </defs>
  <g id="Cuadrícula_de_repetición_12" data-name="Cuadrícula de repetición 12" clip-path="url(#clip-path)">
    <g id="Grupo_953" data-name="Grupo 953" transform="translate(-42 -4109)">
      <g id="Grupo_951" data-name="Grupo 951" transform="translate(42.002 4109)">
        <path id="Trazado_263" data-name="Trazado 263" d="M1019.672,839.837l-1.413-12.347-5.312.028-.014-2.587-5.5.03-.73-6.387-5.713.03L1000.32,825l-5.5.029.014,2.587-5.129.027L988.237,840l15.677-7.612Z" transform="translate(-980.486 -818.574)" fill="#e3f2fd"/>
        <path id="Trazado_264" data-name="Trazado 264" d="M1009.99,822.944l-23.491,11.4,4.638,13.032a20.642,20.642,0,0,1,9.727-2.8c5.232-.027,9.1,2.556,12.274,4.67,4.705,3.144,7.97,5.285,14.928,1.253l5.526-16.409Z" transform="translate(-986.5 -803.452)" fill="#e3f2fd"/>
      </g>
      <g id="Grupo_952" data-name="Grupo 952" transform="translate(176.082 4214.532)">
        <path id="Trazado_263-2" data-name="Trazado 263" d="M1019.672,839.837l-1.413-12.347-5.312.028-.014-2.587-5.5.03-.73-6.387-5.713.03L1000.32,825l-5.5.029.014,2.587-5.129.027L988.237,840l15.677-7.612Z" transform="translate(-980.484 -818.574)" fill="#e3f2fd"/>
        <path id="Trazado_264-2" data-name="Trazado 264" d="M1009.99,822.944l-23.491,11.4,4.638,13.032a20.642,20.642,0,0,1,9.727-2.8c5.232-.027,9.1,2.556,12.274,4.67,4.705,3.144,7.97,5.285,14.928,1.253l5.526-16.409Z" transform="translate(-986.498 -803.452)" fill="#e3f2fd"/>
      </g>
    </g>
    <g id="Grupo_953-2" data-name="Grupo 953" transform="translate(234 -4109)">
      <g id="Grupo_951-2" data-name="Grupo 951" transform="translate(42.002 4109)">
        <path id="Trazado_263-3" data-name="Trazado 263" d="M1019.672,839.837l-1.413-12.347-5.312.028-.014-2.587-5.5.03-.73-6.387-5.713.03L1000.32,825l-5.5.029.014,2.587-5.129.027L988.237,840l15.677-7.612Z" transform="translate(-980.486 -818.574)" fill="#e3f2fd"/>
        <path id="Trazado_264-3" data-name="Trazado 264" d="M1009.99,822.944l-23.491,11.4,4.638,13.032a20.642,20.642,0,0,1,9.727-2.8c5.232-.027,9.1,2.556,12.274,4.67,4.705,3.144,7.97,5.285,14.928,1.253l5.526-16.409Z" transform="translate(-986.5 -803.452)" fill="#e3f2fd"/>
      </g>
      <g id="Grupo_952-2" data-name="Grupo 952" transform="translate(176.082 4214.532)">
        <path id="Trazado_263-4" data-name="Trazado 263" d="M1019.672,839.837l-1.413-12.347-5.312.028-.014-2.587-5.5.03-.73-6.387-5.713.03L1000.32,825l-5.5.029.014,2.587-5.129.027L988.237,840l15.677-7.612Z" transform="translate(-980.484 -818.574)" fill="#e3f2fd"/>
        <path id="Trazado_264-4" data-name="Trazado 264" d="M1009.99,822.944l-23.491,11.4,4.638,13.032a20.642,20.642,0,0,1,9.727-2.8c5.232-.027,9.1,2.556,12.274,4.67,4.705,3.144,7.97,5.285,14.928,1.253l5.526-16.409Z" transform="translate(-986.498 -803.452)" fill="#e3f2fd"/>
      </g>
    </g>
    <g id="Grupo_953-3" data-name="Grupo 953" transform="translate(510 -4109)">
      <g id="Grupo_951-3" data-name="Grupo 951" transform="translate(42.002 4109)">
        <path id="Trazado_263-5" data-name="Trazado 263" d="M1019.672,839.837l-1.413-12.347-5.312.028-.014-2.587-5.5.03-.73-6.387-5.713.03L1000.32,825l-5.5.029.014,2.587-5.129.027L988.237,840l15.677-7.612Z" transform="translate(-980.486 -818.574)" fill="#e3f2fd"/>
        <path id="Trazado_264-5" data-name="Trazado 264" d="M1009.99,822.944l-23.491,11.4,4.638,13.032a20.642,20.642,0,0,1,9.727-2.8c5.232-.027,9.1,2.556,12.274,4.67,4.705,3.144,7.97,5.285,14.928,1.253l5.526-16.409Z" transform="translate(-986.5 -803.452)" fill="#e3f2fd"/>
      </g>
      <g id="Grupo_952-3" data-name="Grupo 952" transform="translate(176.082 4214.532)">
        <path id="Trazado_263-6" data-name="Trazado 263" d="M1019.672,839.837l-1.413-12.347-5.312.028-.014-2.587-5.5.03-.73-6.387-5.713.03L1000.32,825l-5.5.029.014,2.587-5.129.027L988.237,840l15.677-7.612Z" transform="translate(-980.484 -818.574)" fill="#e3f2fd"/>
        <path id="Trazado_264-6" data-name="Trazado 264" d="M1009.99,822.944l-23.491,11.4,4.638,13.032a20.642,20.642,0,0,1,9.727-2.8c5.232-.027,9.1,2.556,12.274,4.67,4.705,3.144,7.97,5.285,14.928,1.253l5.526-16.409Z" transform="translate(-986.498 -803.452)" fill="#e3f2fd"/>
      </g>
    </g>
    <g id="Grupo_953-4" data-name="Grupo 953" transform="translate(786 -4109)">
      <g id="Grupo_951-4" data-name="Grupo 951" transform="translate(42.002 4109)">
        <path id="Trazado_263-7" data-name="Trazado 263" d="M1019.672,839.837l-1.413-12.347-5.312.028-.014-2.587-5.5.03-.73-6.387-5.713.03L1000.32,825l-5.5.029.014,2.587-5.129.027L988.237,840l15.677-7.612Z" transform="translate(-980.486 -818.574)" fill="#e3f2fd"/>
        <path id="Trazado_264-7" data-name="Trazado 264" d="M1009.99,822.944l-23.491,11.4,4.638,13.032a20.642,20.642,0,0,1,9.727-2.8c5.232-.027,9.1,2.556,12.274,4.67,4.705,3.144,7.97,5.285,14.928,1.253l5.526-16.409Z" transform="translate(-986.5 -803.452)" fill="#e3f2fd"/>
      </g>
      <g id="Grupo_952-4" data-name="Grupo 952" transform="translate(176.082 4214.532)">
        <path id="Trazado_263-8" data-name="Trazado 263" d="M1019.672,839.837l-1.413-12.347-5.312.028-.014-2.587-5.5.03-.73-6.387-5.713.03L1000.32,825l-5.5.029.014,2.587-5.129.027L988.237,840l15.677-7.612Z" transform="translate(-980.484 -818.574)" fill="#e3f2fd"/>
        <path id="Trazado_264-8" data-name="Trazado 264" d="M1009.99,822.944l-23.491,11.4,4.638,13.032a20.642,20.642,0,0,1,9.727-2.8c5.232-.027,9.1,2.556,12.274,4.67,4.705,3.144,7.97,5.285,14.928,1.253l5.526-16.409Z" transform="translate(-986.498 -803.452)" fill="#e3f2fd"/>
      </g>
    </g>
    <g id="Grupo_953-5" data-name="Grupo 953" transform="translate(1062 -4109)">
      <g id="Grupo_951-5" data-name="Grupo 951" transform="translate(42.002 4109)">
        <path id="Trazado_263-9" data-name="Trazado 263" d="M1019.672,839.837l-1.413-12.347-5.312.028-.014-2.587-5.5.03-.73-6.387-5.713.03L1000.32,825l-5.5.029.014,2.587-5.129.027L988.237,840l15.677-7.612Z" transform="translate(-980.486 -818.574)" fill="#e3f2fd"/>
        <path id="Trazado_264-9" data-name="Trazado 264" d="M1009.99,822.944l-23.491,11.4,4.638,13.032a20.642,20.642,0,0,1,9.727-2.8c5.232-.027,9.1,2.556,12.274,4.67,4.705,3.144,7.97,5.285,14.928,1.253l5.526-16.409Z" transform="translate(-986.5 -803.452)" fill="#e3f2fd"/>
      </g>
      <g id="Grupo_952-5" data-name="Grupo 952" transform="translate(176.082 4214.532)">
        <path id="Trazado_263-10" data-name="Trazado 263" d="M1019.672,839.837l-1.413-12.347-5.312.028-.014-2.587-5.5.03-.73-6.387-5.713.03L1000.32,825l-5.5.029.014,2.587-5.129.027L988.237,840l15.677-7.612Z" transform="translate(-980.484 -818.574)" fill="#e3f2fd"/>
        <path id="Trazado_264-10" data-name="Trazado 264" d="M1009.99,822.944l-23.491,11.4,4.638,13.032a20.642,20.642,0,0,1,9.727-2.8c5.232-.027,9.1,2.556,12.274,4.67,4.705,3.144,7.97,5.285,14.928,1.253l5.526-16.409Z" transform="translate(-986.498 -803.452)" fill="#e3f2fd"/>
      </g>
    </g>
    <g id="Grupo_953-6" data-name="Grupo 953" transform="translate(1338 -4109)">
      <g id="Grupo_951-6" data-name="Grupo 951" transform="translate(42.002 4109)">
        <path id="Trazado_263-11" data-name="Trazado 263" d="M1019.672,839.837l-1.413-12.347-5.312.028-.014-2.587-5.5.03-.73-6.387-5.713.03L1000.32,825l-5.5.029.014,2.587-5.129.027L988.237,840l15.677-7.612Z" transform="translate(-980.486 -818.574)" fill="#e3f2fd"/>
        <path id="Trazado_264-11" data-name="Trazado 264" d="M1009.99,822.944l-23.491,11.4,4.638,13.032a20.642,20.642,0,0,1,9.727-2.8c5.232-.027,9.1,2.556,12.274,4.67,4.705,3.144,7.97,5.285,14.928,1.253l5.526-16.409Z" transform="translate(-986.5 -803.452)" fill="#e3f2fd"/>
      </g>
      <g id="Grupo_952-6" data-name="Grupo 952" transform="translate(176.082 4214.532)">
        <path id="Trazado_263-12" data-name="Trazado 263" d="M1019.672,839.837l-1.413-12.347-5.312.028-.014-2.587-5.5.03-.73-6.387-5.713.03L1000.32,825l-5.5.029.014,2.587-5.129.027L988.237,840l15.677-7.612Z" transform="translate(-980.484 -818.574)" fill="#e3f2fd"/>
        <path id="Trazado_264-12" data-name="Trazado 264" d="M1009.99,822.944l-23.491,11.4,4.638,13.032a20.642,20.642,0,0,1,9.727-2.8c5.232-.027,9.1,2.556,12.274,4.67,4.705,3.144,7.97,5.285,14.928,1.253l5.526-16.409Z" transform="translate(-986.498 -803.452)" fill="#e3f2fd"/>
      </g>
    </g>
    <g id="Grupo_953-7" data-name="Grupo 953" transform="translate(1614 -4109)">
      <g id="Grupo_951-7" data-name="Grupo 951" transform="translate(42.002 4109)">
        <path id="Trazado_263-13" data-name="Trazado 263" d="M1019.672,839.837l-1.413-12.347-5.312.028-.014-2.587-5.5.03-.73-6.387-5.713.03L1000.32,825l-5.5.029.014,2.587-5.129.027L988.237,840l15.677-7.612Z" transform="translate(-980.486 -818.574)" fill="#e3f2fd"/>
        <path id="Trazado_264-13" data-name="Trazado 264" d="M1009.99,822.944l-23.491,11.4,4.638,13.032a20.642,20.642,0,0,1,9.727-2.8c5.232-.027,9.1,2.556,12.274,4.67,4.705,3.144,7.97,5.285,14.928,1.253l5.526-16.409Z" transform="translate(-986.5 -803.452)" fill="#e3f2fd"/>
      </g>
      <g id="Grupo_952-7" data-name="Grupo 952" transform="translate(176.082 4214.532)">
        <path id="Trazado_263-14" data-name="Trazado 263" d="M1019.672,839.837l-1.413-12.347-5.312.028-.014-2.587-5.5.03-.73-6.387-5.713.03L1000.32,825l-5.5.029.014,2.587-5.129.027L988.237,840l15.677-7.612Z" transform="translate(-980.484 -818.574)" fill="#e3f2fd"/>
        <path id="Trazado_264-14" data-name="Trazado 264" d="M1009.99,822.944l-23.491,11.4,4.638,13.032a20.642,20.642,0,0,1,9.727-2.8c5.232-.027,9.1,2.556,12.274,4.67,4.705,3.144,7.97,5.285,14.928,1.253l5.526-16.409Z" transform="translate(-986.498 -803.452)" fill="#e3f2fd"/>
      </g>
    </g>
    <g id="Grupo_953-8" data-name="Grupo 953" transform="translate(-42 -3886)">
      <g id="Grupo_951-8" data-name="Grupo 951" transform="translate(42.002 4109)">
        <path id="Trazado_263-15" data-name="Trazado 263" d="M1019.672,839.837l-1.413-12.347-5.312.028-.014-2.587-5.5.03-.73-6.387-5.713.03L1000.32,825l-5.5.029.014,2.587-5.129.027L988.237,840l15.677-7.612Z" transform="translate(-980.486 -818.574)" fill="#e3f2fd"/>
        <path id="Trazado_264-15" data-name="Trazado 264" d="M1009.99,822.944l-23.491,11.4,4.638,13.032a20.642,20.642,0,0,1,9.727-2.8c5.232-.027,9.1,2.556,12.274,4.67,4.705,3.144,7.97,5.285,14.928,1.253l5.526-16.409Z" transform="translate(-986.5 -803.452)" fill="#e3f2fd"/>
      </g>
      <g id="Grupo_952-8" data-name="Grupo 952" transform="translate(176.082 4214.532)">
        <path id="Trazado_263-16" data-name="Trazado 263" d="M1019.672,839.837l-1.413-12.347-5.312.028-.014-2.587-5.5.03-.73-6.387-5.713.03L1000.32,825l-5.5.029.014,2.587-5.129.027L988.237,840l15.677-7.612Z" transform="translate(-980.484 -818.574)" fill="#e3f2fd"/>
        <path id="Trazado_264-16" data-name="Trazado 264" d="M1009.99,822.944l-23.491,11.4,4.638,13.032a20.642,20.642,0,0,1,9.727-2.8c5.232-.027,9.1,2.556,12.274,4.67,4.705,3.144,7.97,5.285,14.928,1.253l5.526-16.409Z" transform="translate(-986.498 -803.452)" fill="#e3f2fd"/>
      </g>
    </g>
    <g id="Grupo_953-9" data-name="Grupo 953" transform="translate(234 -3886)">
      <g id="Grupo_951-9" data-name="Grupo 951" transform="translate(42.002 4109)">
        <path id="Trazado_263-17" data-name="Trazado 263" d="M1019.672,839.837l-1.413-12.347-5.312.028-.014-2.587-5.5.03-.73-6.387-5.713.03L1000.32,825l-5.5.029.014,2.587-5.129.027L988.237,840l15.677-7.612Z" transform="translate(-980.486 -818.574)" fill="#e3f2fd"/>
        <path id="Trazado_264-17" data-name="Trazado 264" d="M1009.99,822.944l-23.491,11.4,4.638,13.032a20.642,20.642,0,0,1,9.727-2.8c5.232-.027,9.1,2.556,12.274,4.67,4.705,3.144,7.97,5.285,14.928,1.253l5.526-16.409Z" transform="translate(-986.5 -803.452)" fill="#e3f2fd"/>
      </g>
      <g id="Grupo_952-9" data-name="Grupo 952" transform="translate(176.082 4214.532)">
        <path id="Trazado_263-18" data-name="Trazado 263" d="M1019.672,839.837l-1.413-12.347-5.312.028-.014-2.587-5.5.03-.73-6.387-5.713.03L1000.32,825l-5.5.029.014,2.587-5.129.027L988.237,840l15.677-7.612Z" transform="translate(-980.484 -818.574)" fill="#e3f2fd"/>
        <path id="Trazado_264-18" data-name="Trazado 264" d="M1009.99,822.944l-23.491,11.4,4.638,13.032a20.642,20.642,0,0,1,9.727-2.8c5.232-.027,9.1,2.556,12.274,4.67,4.705,3.144,7.97,5.285,14.928,1.253l5.526-16.409Z" transform="translate(-986.498 -803.452)" fill="#e3f2fd"/>
      </g>
    </g>
    <g id="Grupo_953-10" data-name="Grupo 953" transform="translate(510 -3886)">
      <g id="Grupo_951-10" data-name="Grupo 951" transform="translate(42.002 4109)">
        <path id="Trazado_263-19" data-name="Trazado 263" d="M1019.672,839.837l-1.413-12.347-5.312.028-.014-2.587-5.5.03-.73-6.387-5.713.03L1000.32,825l-5.5.029.014,2.587-5.129.027L988.237,840l15.677-7.612Z" transform="translate(-980.486 -818.574)" fill="#e3f2fd"/>
        <path id="Trazado_264-19" data-name="Trazado 264" d="M1009.99,822.944l-23.491,11.4,4.638,13.032a20.642,20.642,0,0,1,9.727-2.8c5.232-.027,9.1,2.556,12.274,4.67,4.705,3.144,7.97,5.285,14.928,1.253l5.526-16.409Z" transform="translate(-986.5 -803.452)" fill="#e3f2fd"/>
      </g>
      <g id="Grupo_952-10" data-name="Grupo 952" transform="translate(176.082 4214.532)">
        <path id="Trazado_263-20" data-name="Trazado 263" d="M1019.672,839.837l-1.413-12.347-5.312.028-.014-2.587-5.5.03-.73-6.387-5.713.03L1000.32,825l-5.5.029.014,2.587-5.129.027L988.237,840l15.677-7.612Z" transform="translate(-980.484 -818.574)" fill="#e3f2fd"/>
        <path id="Trazado_264-20" data-name="Trazado 264" d="M1009.99,822.944l-23.491,11.4,4.638,13.032a20.642,20.642,0,0,1,9.727-2.8c5.232-.027,9.1,2.556,12.274,4.67,4.705,3.144,7.97,5.285,14.928,1.253l5.526-16.409Z" transform="translate(-986.498 -803.452)" fill="#e3f2fd"/>
      </g>
    </g>
    <g id="Grupo_953-11" data-name="Grupo 953" transform="translate(786 -3886)">
      <g id="Grupo_951-11" data-name="Grupo 951" transform="translate(42.002 4109)">
        <path id="Trazado_263-21" data-name="Trazado 263" d="M1019.672,839.837l-1.413-12.347-5.312.028-.014-2.587-5.5.03-.73-6.387-5.713.03L1000.32,825l-5.5.029.014,2.587-5.129.027L988.237,840l15.677-7.612Z" transform="translate(-980.486 -818.574)" fill="#e3f2fd"/>
        <path id="Trazado_264-21" data-name="Trazado 264" d="M1009.99,822.944l-23.491,11.4,4.638,13.032a20.642,20.642,0,0,1,9.727-2.8c5.232-.027,9.1,2.556,12.274,4.67,4.705,3.144,7.97,5.285,14.928,1.253l5.526-16.409Z" transform="translate(-986.5 -803.452)" fill="#e3f2fd"/>
      </g>
      <g id="Grupo_952-11" data-name="Grupo 952" transform="translate(176.082 4214.532)">
        <path id="Trazado_263-22" data-name="Trazado 263" d="M1019.672,839.837l-1.413-12.347-5.312.028-.014-2.587-5.5.03-.73-6.387-5.713.03L1000.32,825l-5.5.029.014,2.587-5.129.027L988.237,840l15.677-7.612Z" transform="translate(-980.484 -818.574)" fill="#e3f2fd"/>
        <path id="Trazado_264-22" data-name="Trazado 264" d="M1009.99,822.944l-23.491,11.4,4.638,13.032a20.642,20.642,0,0,1,9.727-2.8c5.232-.027,9.1,2.556,12.274,4.67,4.705,3.144,7.97,5.285,14.928,1.253l5.526-16.409Z" transform="translate(-986.498 -803.452)" fill="#e3f2fd"/>
      </g>
    </g>
    <g id="Grupo_953-12" data-name="Grupo 953" transform="translate(1062 -3886)">
      <g id="Grupo_951-12" data-name="Grupo 951" transform="translate(42.002 4109)">
        <path id="Trazado_263-23" data-name="Trazado 263" d="M1019.672,839.837l-1.413-12.347-5.312.028-.014-2.587-5.5.03-.73-6.387-5.713.03L1000.32,825l-5.5.029.014,2.587-5.129.027L988.237,840l15.677-7.612Z" transform="translate(-980.486 -818.574)" fill="#e3f2fd"/>
        <path id="Trazado_264-23" data-name="Trazado 264" d="M1009.99,822.944l-23.491,11.4,4.638,13.032a20.642,20.642,0,0,1,9.727-2.8c5.232-.027,9.1,2.556,12.274,4.67,4.705,3.144,7.97,5.285,14.928,1.253l5.526-16.409Z" transform="translate(-986.5 -803.452)" fill="#e3f2fd"/>
      </g>
      <g id="Grupo_952-12" data-name="Grupo 952" transform="translate(176.082 4214.532)">
        <path id="Trazado_263-24" data-name="Trazado 263" d="M1019.672,839.837l-1.413-12.347-5.312.028-.014-2.587-5.5.03-.73-6.387-5.713.03L1000.32,825l-5.5.029.014,2.587-5.129.027L988.237,840l15.677-7.612Z" transform="translate(-980.484 -818.574)" fill="#e3f2fd"/>
        <path id="Trazado_264-24" data-name="Trazado 264" d="M1009.99,822.944l-23.491,11.4,4.638,13.032a20.642,20.642,0,0,1,9.727-2.8c5.232-.027,9.1,2.556,12.274,4.67,4.705,3.144,7.97,5.285,14.928,1.253l5.526-16.409Z" transform="translate(-986.498 -803.452)" fill="#e3f2fd"/>
      </g>
    </g>
    <g id="Grupo_953-13" data-name="Grupo 953" transform="translate(1338 -3886)">
      <g id="Grupo_951-13" data-name="Grupo 951" transform="translate(42.002 4109)">
        <path id="Trazado_263-25" data-name="Trazado 263" d="M1019.672,839.837l-1.413-12.347-5.312.028-.014-2.587-5.5.03-.73-6.387-5.713.03L1000.32,825l-5.5.029.014,2.587-5.129.027L988.237,840l15.677-7.612Z" transform="translate(-980.486 -818.574)" fill="#e3f2fd"/>
        <path id="Trazado_264-25" data-name="Trazado 264" d="M1009.99,822.944l-23.491,11.4,4.638,13.032a20.642,20.642,0,0,1,9.727-2.8c5.232-.027,9.1,2.556,12.274,4.67,4.705,3.144,7.97,5.285,14.928,1.253l5.526-16.409Z" transform="translate(-986.5 -803.452)" fill="#e3f2fd"/>
      </g>
      <g id="Grupo_952-13" data-name="Grupo 952" transform="translate(176.082 4214.532)">
        <path id="Trazado_263-26" data-name="Trazado 263" d="M1019.672,839.837l-1.413-12.347-5.312.028-.014-2.587-5.5.03-.73-6.387-5.713.03L1000.32,825l-5.5.029.014,2.587-5.129.027L988.237,840l15.677-7.612Z" transform="translate(-980.484 -818.574)" fill="#e3f2fd"/>
        <path id="Trazado_264-26" data-name="Trazado 264" d="M1009.99,822.944l-23.491,11.4,4.638,13.032a20.642,20.642,0,0,1,9.727-2.8c5.232-.027,9.1,2.556,12.274,4.67,4.705,3.144,7.97,5.285,14.928,1.253l5.526-16.409Z" transform="translate(-986.498 -803.452)" fill="#e3f2fd"/>
      </g>
    </g>
    <g id="Grupo_953-14" data-name="Grupo 953" transform="translate(1614 -3886)">
      <g id="Grupo_951-14" data-name="Grupo 951" transform="translate(42.002 4109)">
        <path id="Trazado_263-27" data-name="Trazado 263" d="M1019.672,839.837l-1.413-12.347-5.312.028-.014-2.587-5.5.03-.73-6.387-5.713.03L1000.32,825l-5.5.029.014,2.587-5.129.027L988.237,840l15.677-7.612Z" transform="translate(-980.486 -818.574)" fill="#e3f2fd"/>
        <path id="Trazado_264-27" data-name="Trazado 264" d="M1009.99,822.944l-23.491,11.4,4.638,13.032a20.642,20.642,0,0,1,9.727-2.8c5.232-.027,9.1,2.556,12.274,4.67,4.705,3.144,7.97,5.285,14.928,1.253l5.526-16.409Z" transform="translate(-986.5 -803.452)" fill="#e3f2fd"/>
      </g>
      <g id="Grupo_952-14" data-name="Grupo 952" transform="translate(176.082 4214.532)">
        <path id="Trazado_263-28" data-name="Trazado 263" d="M1019.672,839.837l-1.413-12.347-5.312.028-.014-2.587-5.5.03-.73-6.387-5.713.03L1000.32,825l-5.5.029.014,2.587-5.129.027L988.237,840l15.677-7.612Z" transform="translate(-980.484 -818.574)" fill="#e3f2fd"/>
        <path id="Trazado_264-28" data-name="Trazado 264" d="M1009.99,822.944l-23.491,11.4,4.638,13.032a20.642,20.642,0,0,1,9.727-2.8c5.232-.027,9.1,2.556,12.274,4.67,4.705,3.144,7.97,5.285,14.928,1.253l5.526-16.409Z" transform="translate(-986.498 -803.452)" fill="#e3f2fd"/>
      </g>
    </g>
    <g id="Grupo_953-15" data-name="Grupo 953" transform="translate(-42 -3663)">
      <g id="Grupo_951-15" data-name="Grupo 951" transform="translate(42.002 4109)">
        <path id="Trazado_263-29" data-name="Trazado 263" d="M1019.672,839.837l-1.413-12.347-5.312.028-.014-2.587-5.5.03-.73-6.387-5.713.03L1000.32,825l-5.5.029.014,2.587-5.129.027L988.237,840l15.677-7.612Z" transform="translate(-980.486 -818.574)" fill="#e3f2fd"/>
        <path id="Trazado_264-29" data-name="Trazado 264" d="M1009.99,822.944l-23.491,11.4,4.638,13.032a20.642,20.642,0,0,1,9.727-2.8c5.232-.027,9.1,2.556,12.274,4.67,4.705,3.144,7.97,5.285,14.928,1.253l5.526-16.409Z" transform="translate(-986.5 -803.452)" fill="#e3f2fd"/>
      </g>
      <g id="Grupo_952-15" data-name="Grupo 952" transform="translate(176.082 4214.532)">
        <path id="Trazado_263-30" data-name="Trazado 263" d="M1019.672,839.837l-1.413-12.347-5.312.028-.014-2.587-5.5.03-.73-6.387-5.713.03L1000.32,825l-5.5.029.014,2.587-5.129.027L988.237,840l15.677-7.612Z" transform="translate(-980.484 -818.574)" fill="#e3f2fd"/>
        <path id="Trazado_264-30" data-name="Trazado 264" d="M1009.99,822.944l-23.491,11.4,4.638,13.032a20.642,20.642,0,0,1,9.727-2.8c5.232-.027,9.1,2.556,12.274,4.67,4.705,3.144,7.97,5.285,14.928,1.253l5.526-16.409Z" transform="translate(-986.498 -803.452)" fill="#e3f2fd"/>
      </g>
    </g>
    <g id="Grupo_953-16" data-name="Grupo 953" transform="translate(234 -3663)">
      <g id="Grupo_951-16" data-name="Grupo 951" transform="translate(42.002 4109)">
        <path id="Trazado_263-31" data-name="Trazado 263" d="M1019.672,839.837l-1.413-12.347-5.312.028-.014-2.587-5.5.03-.73-6.387-5.713.03L1000.32,825l-5.5.029.014,2.587-5.129.027L988.237,840l15.677-7.612Z" transform="translate(-980.486 -818.574)" fill="#e3f2fd"/>
        <path id="Trazado_264-31" data-name="Trazado 264" d="M1009.99,822.944l-23.491,11.4,4.638,13.032a20.642,20.642,0,0,1,9.727-2.8c5.232-.027,9.1,2.556,12.274,4.67,4.705,3.144,7.97,5.285,14.928,1.253l5.526-16.409Z" transform="translate(-986.5 -803.452)" fill="#e3f2fd"/>
      </g>
      <g id="Grupo_952-16" data-name="Grupo 952" transform="translate(176.082 4214.532)">
        <path id="Trazado_263-32" data-name="Trazado 263" d="M1019.672,839.837l-1.413-12.347-5.312.028-.014-2.587-5.5.03-.73-6.387-5.713.03L1000.32,825l-5.5.029.014,2.587-5.129.027L988.237,840l15.677-7.612Z" transform="translate(-980.484 -818.574)" fill="#e3f2fd"/>
        <path id="Trazado_264-32" data-name="Trazado 264" d="M1009.99,822.944l-23.491,11.4,4.638,13.032a20.642,20.642,0,0,1,9.727-2.8c5.232-.027,9.1,2.556,12.274,4.67,4.705,3.144,7.97,5.285,14.928,1.253l5.526-16.409Z" transform="translate(-986.498 -803.452)" fill="#e3f2fd"/>
      </g>
    </g>
    <g id="Grupo_953-17" data-name="Grupo 953" transform="translate(510 -3663)">
      <g id="Grupo_951-17" data-name="Grupo 951" transform="translate(42.002 4109)">
        <path id="Trazado_263-33" data-name="Trazado 263" d="M1019.672,839.837l-1.413-12.347-5.312.028-.014-2.587-5.5.03-.73-6.387-5.713.03L1000.32,825l-5.5.029.014,2.587-5.129.027L988.237,840l15.677-7.612Z" transform="translate(-980.486 -818.574)" fill="#e3f2fd"/>
        <path id="Trazado_264-33" data-name="Trazado 264" d="M1009.99,822.944l-23.491,11.4,4.638,13.032a20.642,20.642,0,0,1,9.727-2.8c5.232-.027,9.1,2.556,12.274,4.67,4.705,3.144,7.97,5.285,14.928,1.253l5.526-16.409Z" transform="translate(-986.5 -803.452)" fill="#e3f2fd"/>
      </g>
      <g id="Grupo_952-17" data-name="Grupo 952" transform="translate(176.082 4214.532)">
        <path id="Trazado_263-34" data-name="Trazado 263" d="M1019.672,839.837l-1.413-12.347-5.312.028-.014-2.587-5.5.03-.73-6.387-5.713.03L1000.32,825l-5.5.029.014,2.587-5.129.027L988.237,840l15.677-7.612Z" transform="translate(-980.484 -818.574)" fill="#e3f2fd"/>
        <path id="Trazado_264-34" data-name="Trazado 264" d="M1009.99,822.944l-23.491,11.4,4.638,13.032a20.642,20.642,0,0,1,9.727-2.8c5.232-.027,9.1,2.556,12.274,4.67,4.705,3.144,7.97,5.285,14.928,1.253l5.526-16.409Z" transform="translate(-986.498 -803.452)" fill="#e3f2fd"/>
      </g>
    </g>
    <g id="Grupo_953-18" data-name="Grupo 953" transform="translate(786 -3663)">
      <g id="Grupo_951-18" data-name="Grupo 951" transform="translate(42.002 4109)">
        <path id="Trazado_263-35" data-name="Trazado 263" d="M1019.672,839.837l-1.413-12.347-5.312.028-.014-2.587-5.5.03-.73-6.387-5.713.03L1000.32,825l-5.5.029.014,2.587-5.129.027L988.237,840l15.677-7.612Z" transform="translate(-980.486 -818.574)" fill="#e3f2fd"/>
        <path id="Trazado_264-35" data-name="Trazado 264" d="M1009.99,822.944l-23.491,11.4,4.638,13.032a20.642,20.642,0,0,1,9.727-2.8c5.232-.027,9.1,2.556,12.274,4.67,4.705,3.144,7.97,5.285,14.928,1.253l5.526-16.409Z" transform="translate(-986.5 -803.452)" fill="#e3f2fd"/>
      </g>
      <g id="Grupo_952-18" data-name="Grupo 952" transform="translate(176.082 4214.532)">
        <path id="Trazado_263-36" data-name="Trazado 263" d="M1019.672,839.837l-1.413-12.347-5.312.028-.014-2.587-5.5.03-.73-6.387-5.713.03L1000.32,825l-5.5.029.014,2.587-5.129.027L988.237,840l15.677-7.612Z" transform="translate(-980.484 -818.574)" fill="#e3f2fd"/>
        <path id="Trazado_264-36" data-name="Trazado 264" d="M1009.99,822.944l-23.491,11.4,4.638,13.032a20.642,20.642,0,0,1,9.727-2.8c5.232-.027,9.1,2.556,12.274,4.67,4.705,3.144,7.97,5.285,14.928,1.253l5.526-16.409Z" transform="translate(-986.498 -803.452)" fill="#e3f2fd"/>
      </g>
    </g>
    <g id="Grupo_953-19" data-name="Grupo 953" transform="translate(1062 -3663)">
      <g id="Grupo_951-19" data-name="Grupo 951" transform="translate(42.002 4109)">
        <path id="Trazado_263-37" data-name="Trazado 263" d="M1019.672,839.837l-1.413-12.347-5.312.028-.014-2.587-5.5.03-.73-6.387-5.713.03L1000.32,825l-5.5.029.014,2.587-5.129.027L988.237,840l15.677-7.612Z" transform="translate(-980.486 -818.574)" fill="#e3f2fd"/>
        <path id="Trazado_264-37" data-name="Trazado 264" d="M1009.99,822.944l-23.491,11.4,4.638,13.032a20.642,20.642,0,0,1,9.727-2.8c5.232-.027,9.1,2.556,12.274,4.67,4.705,3.144,7.97,5.285,14.928,1.253l5.526-16.409Z" transform="translate(-986.5 -803.452)" fill="#e3f2fd"/>
      </g>
      <g id="Grupo_952-19" data-name="Grupo 952" transform="translate(176.082 4214.532)">
        <path id="Trazado_263-38" data-name="Trazado 263" d="M1019.672,839.837l-1.413-12.347-5.312.028-.014-2.587-5.5.03-.73-6.387-5.713.03L1000.32,825l-5.5.029.014,2.587-5.129.027L988.237,840l15.677-7.612Z" transform="translate(-980.484 -818.574)" fill="#e3f2fd"/>
        <path id="Trazado_264-38" data-name="Trazado 264" d="M1009.99,822.944l-23.491,11.4,4.638,13.032a20.642,20.642,0,0,1,9.727-2.8c5.232-.027,9.1,2.556,12.274,4.67,4.705,3.144,7.97,5.285,14.928,1.253l5.526-16.409Z" transform="translate(-986.498 -803.452)" fill="#e3f2fd"/>
      </g>
    </g>
    <g id="Grupo_953-20" data-name="Grupo 953" transform="translate(1338 -3663)">
      <g id="Grupo_951-20" data-name="Grupo 951" transform="translate(42.002 4109)">
        <path id="Trazado_263-39" data-name="Trazado 263" d="M1019.672,839.837l-1.413-12.347-5.312.028-.014-2.587-5.5.03-.73-6.387-5.713.03L1000.32,825l-5.5.029.014,2.587-5.129.027L988.237,840l15.677-7.612Z" transform="translate(-980.486 -818.574)" fill="#e3f2fd"/>
        <path id="Trazado_264-39" data-name="Trazado 264" d="M1009.99,822.944l-23.491,11.4,4.638,13.032a20.642,20.642,0,0,1,9.727-2.8c5.232-.027,9.1,2.556,12.274,4.67,4.705,3.144,7.97,5.285,14.928,1.253l5.526-16.409Z" transform="translate(-986.5 -803.452)" fill="#e3f2fd"/>
      </g>
      <g id="Grupo_952-20" data-name="Grupo 952" transform="translate(176.082 4214.532)">
        <path id="Trazado_263-40" data-name="Trazado 263" d="M1019.672,839.837l-1.413-12.347-5.312.028-.014-2.587-5.5.03-.73-6.387-5.713.03L1000.32,825l-5.5.029.014,2.587-5.129.027L988.237,840l15.677-7.612Z" transform="translate(-980.484 -818.574)" fill="#e3f2fd"/>
        <path id="Trazado_264-40" data-name="Trazado 264" d="M1009.99,822.944l-23.491,11.4,4.638,13.032a20.642,20.642,0,0,1,9.727-2.8c5.232-.027,9.1,2.556,12.274,4.67,4.705,3.144,7.97,5.285,14.928,1.253l5.526-16.409Z" transform="translate(-986.498 -803.452)" fill="#e3f2fd"/>
      </g>
    </g>
    <g id="Grupo_953-21" data-name="Grupo 953" transform="translate(1614 -3663)">
      <g id="Grupo_951-21" data-name="Grupo 951" transform="translate(42.002 4109)">
        <path id="Trazado_263-41" data-name="Trazado 263" d="M1019.672,839.837l-1.413-12.347-5.312.028-.014-2.587-5.5.03-.73-6.387-5.713.03L1000.32,825l-5.5.029.014,2.587-5.129.027L988.237,840l15.677-7.612Z" transform="translate(-980.486 -818.574)" fill="#e3f2fd"/>
        <path id="Trazado_264-41" data-name="Trazado 264" d="M1009.99,822.944l-23.491,11.4,4.638,13.032a20.642,20.642,0,0,1,9.727-2.8c5.232-.027,9.1,2.556,12.274,4.67,4.705,3.144,7.97,5.285,14.928,1.253l5.526-16.409Z" transform="translate(-986.5 -803.452)" fill="#e3f2fd"/>
      </g>
      <g id="Grupo_952-21" data-name="Grupo 952" transform="translate(176.082 4214.532)">
        <path id="Trazado_263-42" data-name="Trazado 263" d="M1019.672,839.837l-1.413-12.347-5.312.028-.014-2.587-5.5.03-.73-6.387-5.713.03L1000.32,825l-5.5.029.014,2.587-5.129.027L988.237,840l15.677-7.612Z" transform="translate(-980.484 -818.574)" fill="#e3f2fd"/>
        <path id="Trazado_264-42" data-name="Trazado 264" d="M1009.99,822.944l-23.491,11.4,4.638,13.032a20.642,20.642,0,0,1,9.727-2.8c5.232-.027,9.1,2.556,12.274,4.67,4.705,3.144,7.97,5.285,14.928,1.253l5.526-16.409Z" transform="translate(-986.498 -803.452)" fill="#e3f2fd"/>
      </g>
    </g>
    <g id="Grupo_953-22" data-name="Grupo 953" transform="translate(-42 -3440)">
      <g id="Grupo_951-22" data-name="Grupo 951" transform="translate(42.002 4109)">
        <path id="Trazado_263-43" data-name="Trazado 263" d="M1019.672,839.837l-1.413-12.347-5.312.028-.014-2.587-5.5.03-.73-6.387-5.713.03L1000.32,825l-5.5.029.014,2.587-5.129.027L988.237,840l15.677-7.612Z" transform="translate(-980.486 -818.574)" fill="#e3f2fd"/>
        <path id="Trazado_264-43" data-name="Trazado 264" d="M1009.99,822.944l-23.491,11.4,4.638,13.032a20.642,20.642,0,0,1,9.727-2.8c5.232-.027,9.1,2.556,12.274,4.67,4.705,3.144,7.97,5.285,14.928,1.253l5.526-16.409Z" transform="translate(-986.5 -803.452)" fill="#e3f2fd"/>
      </g>
      <g id="Grupo_952-22" data-name="Grupo 952" transform="translate(176.082 4214.532)">
        <path id="Trazado_263-44" data-name="Trazado 263" d="M1019.672,839.837l-1.413-12.347-5.312.028-.014-2.587-5.5.03-.73-6.387-5.713.03L1000.32,825l-5.5.029.014,2.587-5.129.027L988.237,840l15.677-7.612Z" transform="translate(-980.484 -818.574)" fill="#e3f2fd"/>
        <path id="Trazado_264-44" data-name="Trazado 264" d="M1009.99,822.944l-23.491,11.4,4.638,13.032a20.642,20.642,0,0,1,9.727-2.8c5.232-.027,9.1,2.556,12.274,4.67,4.705,3.144,7.97,5.285,14.928,1.253l5.526-16.409Z" transform="translate(-986.498 -803.452)" fill="#e3f2fd"/>
      </g>
    </g>
    <g id="Grupo_953-23" data-name="Grupo 953" transform="translate(234 -3440)">
      <g id="Grupo_951-23" data-name="Grupo 951" transform="translate(42.002 4109)">
        <path id="Trazado_263-45" data-name="Trazado 263" d="M1019.672,839.837l-1.413-12.347-5.312.028-.014-2.587-5.5.03-.73-6.387-5.713.03L1000.32,825l-5.5.029.014,2.587-5.129.027L988.237,840l15.677-7.612Z" transform="translate(-980.486 -818.574)" fill="#e3f2fd"/>
        <path id="Trazado_264-45" data-name="Trazado 264" d="M1009.99,822.944l-23.491,11.4,4.638,13.032a20.642,20.642,0,0,1,9.727-2.8c5.232-.027,9.1,2.556,12.274,4.67,4.705,3.144,7.97,5.285,14.928,1.253l5.526-16.409Z" transform="translate(-986.5 -803.452)" fill="#e3f2fd"/>
      </g>
      <g id="Grupo_952-23" data-name="Grupo 952" transform="translate(176.082 4214.532)">
        <path id="Trazado_263-46" data-name="Trazado 263" d="M1019.672,839.837l-1.413-12.347-5.312.028-.014-2.587-5.5.03-.73-6.387-5.713.03L1000.32,825l-5.5.029.014,2.587-5.129.027L988.237,840l15.677-7.612Z" transform="translate(-980.484 -818.574)" fill="#e3f2fd"/>
        <path id="Trazado_264-46" data-name="Trazado 264" d="M1009.99,822.944l-23.491,11.4,4.638,13.032a20.642,20.642,0,0,1,9.727-2.8c5.232-.027,9.1,2.556,12.274,4.67,4.705,3.144,7.97,5.285,14.928,1.253l5.526-16.409Z" transform="translate(-986.498 -803.452)" fill="#e3f2fd"/>
      </g>
    </g>
    <g id="Grupo_953-24" data-name="Grupo 953" transform="translate(510 -3440)">
      <g id="Grupo_951-24" data-name="Grupo 951" transform="translate(42.002 4109)">
        <path id="Trazado_263-47" data-name="Trazado 263" d="M1019.672,839.837l-1.413-12.347-5.312.028-.014-2.587-5.5.03-.73-6.387-5.713.03L1000.32,825l-5.5.029.014,2.587-5.129.027L988.237,840l15.677-7.612Z" transform="translate(-980.486 -818.574)" fill="#e3f2fd"/>
        <path id="Trazado_264-47" data-name="Trazado 264" d="M1009.99,822.944l-23.491,11.4,4.638,13.032a20.642,20.642,0,0,1,9.727-2.8c5.232-.027,9.1,2.556,12.274,4.67,4.705,3.144,7.97,5.285,14.928,1.253l5.526-16.409Z" transform="translate(-986.5 -803.452)" fill="#e3f2fd"/>
      </g>
      <g id="Grupo_952-24" data-name="Grupo 952" transform="translate(176.082 4214.532)">
        <path id="Trazado_263-48" data-name="Trazado 263" d="M1019.672,839.837l-1.413-12.347-5.312.028-.014-2.587-5.5.03-.73-6.387-5.713.03L1000.32,825l-5.5.029.014,2.587-5.129.027L988.237,840l15.677-7.612Z" transform="translate(-980.484 -818.574)" fill="#e3f2fd"/>
        <path id="Trazado_264-48" data-name="Trazado 264" d="M1009.99,822.944l-23.491,11.4,4.638,13.032a20.642,20.642,0,0,1,9.727-2.8c5.232-.027,9.1,2.556,12.274,4.67,4.705,3.144,7.97,5.285,14.928,1.253l5.526-16.409Z" transform="translate(-986.498 -803.452)" fill="#e3f2fd"/>
      </g>
    </g>
    <g id="Grupo_953-25" data-name="Grupo 953" transform="translate(786 -3440)">
      <g id="Grupo_951-25" data-name="Grupo 951" transform="translate(42.002 4109)">
        <path id="Trazado_263-49" data-name="Trazado 263" d="M1019.672,839.837l-1.413-12.347-5.312.028-.014-2.587-5.5.03-.73-6.387-5.713.03L1000.32,825l-5.5.029.014,2.587-5.129.027L988.237,840l15.677-7.612Z" transform="translate(-980.486 -818.574)" fill="#e3f2fd"/>
        <path id="Trazado_264-49" data-name="Trazado 264" d="M1009.99,822.944l-23.491,11.4,4.638,13.032a20.642,20.642,0,0,1,9.727-2.8c5.232-.027,9.1,2.556,12.274,4.67,4.705,3.144,7.97,5.285,14.928,1.253l5.526-16.409Z" transform="translate(-986.5 -803.452)" fill="#e3f2fd"/>
      </g>
      <g id="Grupo_952-25" data-name="Grupo 952" transform="translate(176.082 4214.532)">
        <path id="Trazado_263-50" data-name="Trazado 263" d="M1019.672,839.837l-1.413-12.347-5.312.028-.014-2.587-5.5.03-.73-6.387-5.713.03L1000.32,825l-5.5.029.014,2.587-5.129.027L988.237,840l15.677-7.612Z" transform="translate(-980.484 -818.574)" fill="#e3f2fd"/>
        <path id="Trazado_264-50" data-name="Trazado 264" d="M1009.99,822.944l-23.491,11.4,4.638,13.032a20.642,20.642,0,0,1,9.727-2.8c5.232-.027,9.1,2.556,12.274,4.67,4.705,3.144,7.97,5.285,14.928,1.253l5.526-16.409Z" transform="translate(-986.498 -803.452)" fill="#e3f2fd"/>
      </g>
    </g>
    <g id="Grupo_953-26" data-name="Grupo 953" transform="translate(1062 -3440)">
      <g id="Grupo_951-26" data-name="Grupo 951" transform="translate(42.002 4109)">
        <path id="Trazado_263-51" data-name="Trazado 263" d="M1019.672,839.837l-1.413-12.347-5.312.028-.014-2.587-5.5.03-.73-6.387-5.713.03L1000.32,825l-5.5.029.014,2.587-5.129.027L988.237,840l15.677-7.612Z" transform="translate(-980.486 -818.574)" fill="#e3f2fd"/>
        <path id="Trazado_264-51" data-name="Trazado 264" d="M1009.99,822.944l-23.491,11.4,4.638,13.032a20.642,20.642,0,0,1,9.727-2.8c5.232-.027,9.1,2.556,12.274,4.67,4.705,3.144,7.97,5.285,14.928,1.253l5.526-16.409Z" transform="translate(-986.5 -803.452)" fill="#e3f2fd"/>
      </g>
      <g id="Grupo_952-26" data-name="Grupo 952" transform="translate(176.082 4214.532)">
        <path id="Trazado_263-52" data-name="Trazado 263" d="M1019.672,839.837l-1.413-12.347-5.312.028-.014-2.587-5.5.03-.73-6.387-5.713.03L1000.32,825l-5.5.029.014,2.587-5.129.027L988.237,840l15.677-7.612Z" transform="translate(-980.484 -818.574)" fill="#e3f2fd"/>
        <path id="Trazado_264-52" data-name="Trazado 264" d="M1009.99,822.944l-23.491,11.4,4.638,13.032a20.642,20.642,0,0,1,9.727-2.8c5.232-.027,9.1,2.556,12.274,4.67,4.705,3.144,7.97,5.285,14.928,1.253l5.526-16.409Z" transform="translate(-986.498 -803.452)" fill="#e3f2fd"/>
      </g>
    </g>
    <g id="Grupo_953-27" data-name="Grupo 953" transform="translate(1338 -3440)">
      <g id="Grupo_951-27" data-name="Grupo 951" transform="translate(42.002 4109)">
        <path id="Trazado_263-53" data-name="Trazado 263" d="M1019.672,839.837l-1.413-12.347-5.312.028-.014-2.587-5.5.03-.73-6.387-5.713.03L1000.32,825l-5.5.029.014,2.587-5.129.027L988.237,840l15.677-7.612Z" transform="translate(-980.486 -818.574)" fill="#e3f2fd"/>
        <path id="Trazado_264-53" data-name="Trazado 264" d="M1009.99,822.944l-23.491,11.4,4.638,13.032a20.642,20.642,0,0,1,9.727-2.8c5.232-.027,9.1,2.556,12.274,4.67,4.705,3.144,7.97,5.285,14.928,1.253l5.526-16.409Z" transform="translate(-986.5 -803.452)" fill="#e3f2fd"/>
      </g>
      <g id="Grupo_952-27" data-name="Grupo 952" transform="translate(176.082 4214.532)">
        <path id="Trazado_263-54" data-name="Trazado 263" d="M1019.672,839.837l-1.413-12.347-5.312.028-.014-2.587-5.5.03-.73-6.387-5.713.03L1000.32,825l-5.5.029.014,2.587-5.129.027L988.237,840l15.677-7.612Z" transform="translate(-980.484 -818.574)" fill="#e3f2fd"/>
        <path id="Trazado_264-54" data-name="Trazado 264" d="M1009.99,822.944l-23.491,11.4,4.638,13.032a20.642,20.642,0,0,1,9.727-2.8c5.232-.027,9.1,2.556,12.274,4.67,4.705,3.144,7.97,5.285,14.928,1.253l5.526-16.409Z" transform="translate(-986.498 -803.452)" fill="#e3f2fd"/>
      </g>
    </g>
    <g id="Grupo_953-28" data-name="Grupo 953" transform="translate(1614 -3440)">
      <g id="Grupo_951-28" data-name="Grupo 951" transform="translate(42.002 4109)">
        <path id="Trazado_263-55" data-name="Trazado 263" d="M1019.672,839.837l-1.413-12.347-5.312.028-.014-2.587-5.5.03-.73-6.387-5.713.03L1000.32,825l-5.5.029.014,2.587-5.129.027L988.237,840l15.677-7.612Z" transform="translate(-980.486 -818.574)" fill="#e3f2fd"/>
        <path id="Trazado_264-55" data-name="Trazado 264" d="M1009.99,822.944l-23.491,11.4,4.638,13.032a20.642,20.642,0,0,1,9.727-2.8c5.232-.027,9.1,2.556,12.274,4.67,4.705,3.144,7.97,5.285,14.928,1.253l5.526-16.409Z" transform="translate(-986.5 -803.452)" fill="#e3f2fd"/>
      </g>
      <g id="Grupo_952-28" data-name="Grupo 952" transform="translate(176.082 4214.532)">
        <path id="Trazado_263-56" data-name="Trazado 263" d="M1019.672,839.837l-1.413-12.347-5.312.028-.014-2.587-5.5.03-.73-6.387-5.713.03L1000.32,825l-5.5.029.014,2.587-5.129.027L988.237,840l15.677-7.612Z" transform="translate(-980.484 -818.574)" fill="#e3f2fd"/>
        <path id="Trazado_264-56" data-name="Trazado 264" d="M1009.99,822.944l-23.491,11.4,4.638,13.032a20.642,20.642,0,0,1,9.727-2.8c5.232-.027,9.1,2.556,12.274,4.67,4.705,3.144,7.97,5.285,14.928,1.253l5.526-16.409Z" transform="translate(-986.498 -803.452)" fill="#e3f2fd"/>
      </g>
    </g>
    <g id="Grupo_953-29" data-name="Grupo 953" transform="translate(-42 -3217)">
      <g id="Grupo_951-29" data-name="Grupo 951" transform="translate(42.002 4109)">
        <path id="Trazado_263-57" data-name="Trazado 263" d="M1019.672,839.837l-1.413-12.347-5.312.028-.014-2.587-5.5.03-.73-6.387-5.713.03L1000.32,825l-5.5.029.014,2.587-5.129.027L988.237,840l15.677-7.612Z" transform="translate(-980.486 -818.574)" fill="#e3f2fd"/>
        <path id="Trazado_264-57" data-name="Trazado 264" d="M1009.99,822.944l-23.491,11.4,4.638,13.032a20.642,20.642,0,0,1,9.727-2.8c5.232-.027,9.1,2.556,12.274,4.67,4.705,3.144,7.97,5.285,14.928,1.253l5.526-16.409Z" transform="translate(-986.5 -803.452)" fill="#e3f2fd"/>
      </g>
      <g id="Grupo_952-29" data-name="Grupo 952" transform="translate(176.082 4214.532)">
        <path id="Trazado_263-58" data-name="Trazado 263" d="M1019.672,839.837l-1.413-12.347-5.312.028-.014-2.587-5.5.03-.73-6.387-5.713.03L1000.32,825l-5.5.029.014,2.587-5.129.027L988.237,840l15.677-7.612Z" transform="translate(-980.484 -818.574)" fill="#e3f2fd"/>
        <path id="Trazado_264-58" data-name="Trazado 264" d="M1009.99,822.944l-23.491,11.4,4.638,13.032a20.642,20.642,0,0,1,9.727-2.8c5.232-.027,9.1,2.556,12.274,4.67,4.705,3.144,7.97,5.285,14.928,1.253l5.526-16.409Z" transform="translate(-986.498 -803.452)" fill="#e3f2fd"/>
      </g>
    </g>
    <g id="Grupo_953-30" data-name="Grupo 953" transform="translate(234 -3217)">
      <g id="Grupo_951-30" data-name="Grupo 951" transform="translate(42.002 4109)">
        <path id="Trazado_263-59" data-name="Trazado 263" d="M1019.672,839.837l-1.413-12.347-5.312.028-.014-2.587-5.5.03-.73-6.387-5.713.03L1000.32,825l-5.5.029.014,2.587-5.129.027L988.237,840l15.677-7.612Z" transform="translate(-980.486 -818.574)" fill="#e3f2fd"/>
        <path id="Trazado_264-59" data-name="Trazado 264" d="M1009.99,822.944l-23.491,11.4,4.638,13.032a20.642,20.642,0,0,1,9.727-2.8c5.232-.027,9.1,2.556,12.274,4.67,4.705,3.144,7.97,5.285,14.928,1.253l5.526-16.409Z" transform="translate(-986.5 -803.452)" fill="#e3f2fd"/>
      </g>
      <g id="Grupo_952-30" data-name="Grupo 952" transform="translate(176.082 4214.532)">
        <path id="Trazado_263-60" data-name="Trazado 263" d="M1019.672,839.837l-1.413-12.347-5.312.028-.014-2.587-5.5.03-.73-6.387-5.713.03L1000.32,825l-5.5.029.014,2.587-5.129.027L988.237,840l15.677-7.612Z" transform="translate(-980.484 -818.574)" fill="#e3f2fd"/>
        <path id="Trazado_264-60" data-name="Trazado 264" d="M1009.99,822.944l-23.491,11.4,4.638,13.032a20.642,20.642,0,0,1,9.727-2.8c5.232-.027,9.1,2.556,12.274,4.67,4.705,3.144,7.97,5.285,14.928,1.253l5.526-16.409Z" transform="translate(-986.498 -803.452)" fill="#e3f2fd"/>
      </g>
    </g>
    <g id="Grupo_953-31" data-name="Grupo 953" transform="translate(510 -3217)">
      <g id="Grupo_951-31" data-name="Grupo 951" transform="translate(42.002 4109)">
        <path id="Trazado_263-61" data-name="Trazado 263" d="M1019.672,839.837l-1.413-12.347-5.312.028-.014-2.587-5.5.03-.73-6.387-5.713.03L1000.32,825l-5.5.029.014,2.587-5.129.027L988.237,840l15.677-7.612Z" transform="translate(-980.486 -818.574)" fill="#e3f2fd"/>
        <path id="Trazado_264-61" data-name="Trazado 264" d="M1009.99,822.944l-23.491,11.4,4.638,13.032a20.642,20.642,0,0,1,9.727-2.8c5.232-.027,9.1,2.556,12.274,4.67,4.705,3.144,7.97,5.285,14.928,1.253l5.526-16.409Z" transform="translate(-986.5 -803.452)" fill="#e3f2fd"/>
      </g>
      <g id="Grupo_952-31" data-name="Grupo 952" transform="translate(176.082 4214.532)">
        <path id="Trazado_263-62" data-name="Trazado 263" d="M1019.672,839.837l-1.413-12.347-5.312.028-.014-2.587-5.5.03-.73-6.387-5.713.03L1000.32,825l-5.5.029.014,2.587-5.129.027L988.237,840l15.677-7.612Z" transform="translate(-980.484 -818.574)" fill="#e3f2fd"/>
        <path id="Trazado_264-62" data-name="Trazado 264" d="M1009.99,822.944l-23.491,11.4,4.638,13.032a20.642,20.642,0,0,1,9.727-2.8c5.232-.027,9.1,2.556,12.274,4.67,4.705,3.144,7.97,5.285,14.928,1.253l5.526-16.409Z" transform="translate(-986.498 -803.452)" fill="#e3f2fd"/>
      </g>
    </g>
    <g id="Grupo_953-32" data-name="Grupo 953" transform="translate(786 -3217)">
      <g id="Grupo_951-32" data-name="Grupo 951" transform="translate(42.002 4109)">
        <path id="Trazado_263-63" data-name="Trazado 263" d="M1019.672,839.837l-1.413-12.347-5.312.028-.014-2.587-5.5.03-.73-6.387-5.713.03L1000.32,825l-5.5.029.014,2.587-5.129.027L988.237,840l15.677-7.612Z" transform="translate(-980.486 -818.574)" fill="#e3f2fd"/>
        <path id="Trazado_264-63" data-name="Trazado 264" d="M1009.99,822.944l-23.491,11.4,4.638,13.032a20.642,20.642,0,0,1,9.727-2.8c5.232-.027,9.1,2.556,12.274,4.67,4.705,3.144,7.97,5.285,14.928,1.253l5.526-16.409Z" transform="translate(-986.5 -803.452)" fill="#e3f2fd"/>
      </g>
      <g id="Grupo_952-32" data-name="Grupo 952" transform="translate(176.082 4214.532)">
        <path id="Trazado_263-64" data-name="Trazado 263" d="M1019.672,839.837l-1.413-12.347-5.312.028-.014-2.587-5.5.03-.73-6.387-5.713.03L1000.32,825l-5.5.029.014,2.587-5.129.027L988.237,840l15.677-7.612Z" transform="translate(-980.484 -818.574)" fill="#e3f2fd"/>
        <path id="Trazado_264-64" data-name="Trazado 264" d="M1009.99,822.944l-23.491,11.4,4.638,13.032a20.642,20.642,0,0,1,9.727-2.8c5.232-.027,9.1,2.556,12.274,4.67,4.705,3.144,7.97,5.285,14.928,1.253l5.526-16.409Z" transform="translate(-986.498 -803.452)" fill="#e3f2fd"/>
      </g>
    </g>
    <g id="Grupo_953-33" data-name="Grupo 953" transform="translate(1062 -3217)">
      <g id="Grupo_951-33" data-name="Grupo 951" transform="translate(42.002 4109)">
        <path id="Trazado_263-65" data-name="Trazado 263" d="M1019.672,839.837l-1.413-12.347-5.312.028-.014-2.587-5.5.03-.73-6.387-5.713.03L1000.32,825l-5.5.029.014,2.587-5.129.027L988.237,840l15.677-7.612Z" transform="translate(-980.486 -818.574)" fill="#e3f2fd"/>
        <path id="Trazado_264-65" data-name="Trazado 264" d="M1009.99,822.944l-23.491,11.4,4.638,13.032a20.642,20.642,0,0,1,9.727-2.8c5.232-.027,9.1,2.556,12.274,4.67,4.705,3.144,7.97,5.285,14.928,1.253l5.526-16.409Z" transform="translate(-986.5 -803.452)" fill="#e3f2fd"/>
      </g>
      <g id="Grupo_952-33" data-name="Grupo 952" transform="translate(176.082 4214.532)">
        <path id="Trazado_263-66" data-name="Trazado 263" d="M1019.672,839.837l-1.413-12.347-5.312.028-.014-2.587-5.5.03-.73-6.387-5.713.03L1000.32,825l-5.5.029.014,2.587-5.129.027L988.237,840l15.677-7.612Z" transform="translate(-980.484 -818.574)" fill="#e3f2fd"/>
        <path id="Trazado_264-66" data-name="Trazado 264" d="M1009.99,822.944l-23.491,11.4,4.638,13.032a20.642,20.642,0,0,1,9.727-2.8c5.232-.027,9.1,2.556,12.274,4.67,4.705,3.144,7.97,5.285,14.928,1.253l5.526-16.409Z" transform="translate(-986.498 -803.452)" fill="#e3f2fd"/>
      </g>
    </g>
    <g id="Grupo_953-34" data-name="Grupo 953" transform="translate(1338 -3217)">
      <g id="Grupo_951-34" data-name="Grupo 951" transform="translate(42.002 4109)">
        <path id="Trazado_263-67" data-name="Trazado 263" d="M1019.672,839.837l-1.413-12.347-5.312.028-.014-2.587-5.5.03-.73-6.387-5.713.03L1000.32,825l-5.5.029.014,2.587-5.129.027L988.237,840l15.677-7.612Z" transform="translate(-980.486 -818.574)" fill="#e3f2fd"/>
        <path id="Trazado_264-67" data-name="Trazado 264" d="M1009.99,822.944l-23.491,11.4,4.638,13.032a20.642,20.642,0,0,1,9.727-2.8c5.232-.027,9.1,2.556,12.274,4.67,4.705,3.144,7.97,5.285,14.928,1.253l5.526-16.409Z" transform="translate(-986.5 -803.452)" fill="#e3f2fd"/>
      </g>
      <g id="Grupo_952-34" data-name="Grupo 952" transform="translate(176.082 4214.532)">
        <path id="Trazado_263-68" data-name="Trazado 263" d="M1019.672,839.837l-1.413-12.347-5.312.028-.014-2.587-5.5.03-.73-6.387-5.713.03L1000.32,825l-5.5.029.014,2.587-5.129.027L988.237,840l15.677-7.612Z" transform="translate(-980.484 -818.574)" fill="#e3f2fd"/>
        <path id="Trazado_264-68" data-name="Trazado 264" d="M1009.99,822.944l-23.491,11.4,4.638,13.032a20.642,20.642,0,0,1,9.727-2.8c5.232-.027,9.1,2.556,12.274,4.67,4.705,3.144,7.97,5.285,14.928,1.253l5.526-16.409Z" transform="translate(-986.498 -803.452)" fill="#e3f2fd"/>
      </g>
    </g>
    <g id="Grupo_953-35" data-name="Grupo 953" transform="translate(1614 -3217)">
      <g id="Grupo_951-35" data-name="Grupo 951" transform="translate(42.002 4109)">
        <path id="Trazado_263-69" data-name="Trazado 263" d="M1019.672,839.837l-1.413-12.347-5.312.028-.014-2.587-5.5.03-.73-6.387-5.713.03L1000.32,825l-5.5.029.014,2.587-5.129.027L988.237,840l15.677-7.612Z" transform="translate(-980.486 -818.574)" fill="#e3f2fd"/>
        <path id="Trazado_264-69" data-name="Trazado 264" d="M1009.99,822.944l-23.491,11.4,4.638,13.032a20.642,20.642,0,0,1,9.727-2.8c5.232-.027,9.1,2.556,12.274,4.67,4.705,3.144,7.97,5.285,14.928,1.253l5.526-16.409Z" transform="translate(-986.5 -803.452)" fill="#e3f2fd"/>
      </g>
      <g id="Grupo_952-35" data-name="Grupo 952" transform="translate(176.082 4214.532)">
        <path id="Trazado_263-70" data-name="Trazado 263" d="M1019.672,839.837l-1.413-12.347-5.312.028-.014-2.587-5.5.03-.73-6.387-5.713.03L1000.32,825l-5.5.029.014,2.587-5.129.027L988.237,840l15.677-7.612Z" transform="translate(-980.484 -818.574)" fill="#e3f2fd"/>
        <path id="Trazado_264-70" data-name="Trazado 264" d="M1009.99,822.944l-23.491,11.4,4.638,13.032a20.642,20.642,0,0,1,9.727-2.8c5.232-.027,9.1,2.556,12.274,4.67,4.705,3.144,7.97,5.285,14.928,1.253l5.526-16.409Z" transform="translate(-986.498 -803.452)" fill="#e3f2fd"/>
      </g>
    </g>
    <g id="Grupo_953-36" data-name="Grupo 953" transform="translate(-42 -2994)">
      <g id="Grupo_951-36" data-name="Grupo 951" transform="translate(42.002 4109)">
        <path id="Trazado_263-71" data-name="Trazado 263" d="M1019.672,839.837l-1.413-12.347-5.312.028-.014-2.587-5.5.03-.73-6.387-5.713.03L1000.32,825l-5.5.029.014,2.587-5.129.027L988.237,840l15.677-7.612Z" transform="translate(-980.486 -818.574)" fill="#e3f2fd"/>
        <path id="Trazado_264-71" data-name="Trazado 264" d="M1009.99,822.944l-23.491,11.4,4.638,13.032a20.642,20.642,0,0,1,9.727-2.8c5.232-.027,9.1,2.556,12.274,4.67,4.705,3.144,7.97,5.285,14.928,1.253l5.526-16.409Z" transform="translate(-986.5 -803.452)" fill="#e3f2fd"/>
      </g>
      <g id="Grupo_952-36" data-name="Grupo 952" transform="translate(176.082 4214.532)">
        <path id="Trazado_263-72" data-name="Trazado 263" d="M1019.672,839.837l-1.413-12.347-5.312.028-.014-2.587-5.5.03-.73-6.387-5.713.03L1000.32,825l-5.5.029.014,2.587-5.129.027L988.237,840l15.677-7.612Z" transform="translate(-980.484 -818.574)" fill="#e3f2fd"/>
        <path id="Trazado_264-72" data-name="Trazado 264" d="M1009.99,822.944l-23.491,11.4,4.638,13.032a20.642,20.642,0,0,1,9.727-2.8c5.232-.027,9.1,2.556,12.274,4.67,4.705,3.144,7.97,5.285,14.928,1.253l5.526-16.409Z" transform="translate(-986.498 -803.452)" fill="#e3f2fd"/>
      </g>
    </g>
    <g id="Grupo_953-37" data-name="Grupo 953" transform="translate(234 -2994)">
      <g id="Grupo_951-37" data-name="Grupo 951" transform="translate(42.002 4109)">
        <path id="Trazado_263-73" data-name="Trazado 263" d="M1019.672,839.837l-1.413-12.347-5.312.028-.014-2.587-5.5.03-.73-6.387-5.713.03L1000.32,825l-5.5.029.014,2.587-5.129.027L988.237,840l15.677-7.612Z" transform="translate(-980.486 -818.574)" fill="#e3f2fd"/>
        <path id="Trazado_264-73" data-name="Trazado 264" d="M1009.99,822.944l-23.491,11.4,4.638,13.032a20.642,20.642,0,0,1,9.727-2.8c5.232-.027,9.1,2.556,12.274,4.67,4.705,3.144,7.97,5.285,14.928,1.253l5.526-16.409Z" transform="translate(-986.5 -803.452)" fill="#e3f2fd"/>
      </g>
      <g id="Grupo_952-37" data-name="Grupo 952" transform="translate(176.082 4214.532)">
        <path id="Trazado_263-74" data-name="Trazado 263" d="M1019.672,839.837l-1.413-12.347-5.312.028-.014-2.587-5.5.03-.73-6.387-5.713.03L1000.32,825l-5.5.029.014,2.587-5.129.027L988.237,840l15.677-7.612Z" transform="translate(-980.484 -818.574)" fill="#e3f2fd"/>
        <path id="Trazado_264-74" data-name="Trazado 264" d="M1009.99,822.944l-23.491,11.4,4.638,13.032a20.642,20.642,0,0,1,9.727-2.8c5.232-.027,9.1,2.556,12.274,4.67,4.705,3.144,7.97,5.285,14.928,1.253l5.526-16.409Z" transform="translate(-986.498 -803.452)" fill="#e3f2fd"/>
      </g>
    </g>
    <g id="Grupo_953-38" data-name="Grupo 953" transform="translate(510 -2994)">
      <g id="Grupo_951-38" data-name="Grupo 951" transform="translate(42.002 4109)">
        <path id="Trazado_263-75" data-name="Trazado 263" d="M1019.672,839.837l-1.413-12.347-5.312.028-.014-2.587-5.5.03-.73-6.387-5.713.03L1000.32,825l-5.5.029.014,2.587-5.129.027L988.237,840l15.677-7.612Z" transform="translate(-980.486 -818.574)" fill="#e3f2fd"/>
        <path id="Trazado_264-75" data-name="Trazado 264" d="M1009.99,822.944l-23.491,11.4,4.638,13.032a20.642,20.642,0,0,1,9.727-2.8c5.232-.027,9.1,2.556,12.274,4.67,4.705,3.144,7.97,5.285,14.928,1.253l5.526-16.409Z" transform="translate(-986.5 -803.452)" fill="#e3f2fd"/>
      </g>
      <g id="Grupo_952-38" data-name="Grupo 952" transform="translate(176.082 4214.532)">
        <path id="Trazado_263-76" data-name="Trazado 263" d="M1019.672,839.837l-1.413-12.347-5.312.028-.014-2.587-5.5.03-.73-6.387-5.713.03L1000.32,825l-5.5.029.014,2.587-5.129.027L988.237,840l15.677-7.612Z" transform="translate(-980.484 -818.574)" fill="#e3f2fd"/>
        <path id="Trazado_264-76" data-name="Trazado 264" d="M1009.99,822.944l-23.491,11.4,4.638,13.032a20.642,20.642,0,0,1,9.727-2.8c5.232-.027,9.1,2.556,12.274,4.67,4.705,3.144,7.97,5.285,14.928,1.253l5.526-16.409Z" transform="translate(-986.498 -803.452)" fill="#e3f2fd"/>
      </g>
    </g>
    <g id="Grupo_953-39" data-name="Grupo 953" transform="translate(786 -2994)">
      <g id="Grupo_951-39" data-name="Grupo 951" transform="translate(42.002 4109)">
        <path id="Trazado_263-77" data-name="Trazado 263" d="M1019.672,839.837l-1.413-12.347-5.312.028-.014-2.587-5.5.03-.73-6.387-5.713.03L1000.32,825l-5.5.029.014,2.587-5.129.027L988.237,840l15.677-7.612Z" transform="translate(-980.486 -818.574)" fill="#e3f2fd"/>
        <path id="Trazado_264-77" data-name="Trazado 264" d="M1009.99,822.944l-23.491,11.4,4.638,13.032a20.642,20.642,0,0,1,9.727-2.8c5.232-.027,9.1,2.556,12.274,4.67,4.705,3.144,7.97,5.285,14.928,1.253l5.526-16.409Z" transform="translate(-986.5 -803.452)" fill="#e3f2fd"/>
      </g>
      <g id="Grupo_952-39" data-name="Grupo 952" transform="translate(176.082 4214.532)">
        <path id="Trazado_263-78" data-name="Trazado 263" d="M1019.672,839.837l-1.413-12.347-5.312.028-.014-2.587-5.5.03-.73-6.387-5.713.03L1000.32,825l-5.5.029.014,2.587-5.129.027L988.237,840l15.677-7.612Z" transform="translate(-980.484 -818.574)" fill="#e3f2fd"/>
        <path id="Trazado_264-78" data-name="Trazado 264" d="M1009.99,822.944l-23.491,11.4,4.638,13.032a20.642,20.642,0,0,1,9.727-2.8c5.232-.027,9.1,2.556,12.274,4.67,4.705,3.144,7.97,5.285,14.928,1.253l5.526-16.409Z" transform="translate(-986.498 -803.452)" fill="#e3f2fd"/>
      </g>
    </g>
    <g id="Grupo_953-40" data-name="Grupo 953" transform="translate(1062 -2994)">
      <g id="Grupo_951-40" data-name="Grupo 951" transform="translate(42.002 4109)">
        <path id="Trazado_263-79" data-name="Trazado 263" d="M1019.672,839.837l-1.413-12.347-5.312.028-.014-2.587-5.5.03-.73-6.387-5.713.03L1000.32,825l-5.5.029.014,2.587-5.129.027L988.237,840l15.677-7.612Z" transform="translate(-980.486 -818.574)" fill="#e3f2fd"/>
        <path id="Trazado_264-79" data-name="Trazado 264" d="M1009.99,822.944l-23.491,11.4,4.638,13.032a20.642,20.642,0,0,1,9.727-2.8c5.232-.027,9.1,2.556,12.274,4.67,4.705,3.144,7.97,5.285,14.928,1.253l5.526-16.409Z" transform="translate(-986.5 -803.452)" fill="#e3f2fd"/>
      </g>
      <g id="Grupo_952-40" data-name="Grupo 952" transform="translate(176.082 4214.532)">
        <path id="Trazado_263-80" data-name="Trazado 263" d="M1019.672,839.837l-1.413-12.347-5.312.028-.014-2.587-5.5.03-.73-6.387-5.713.03L1000.32,825l-5.5.029.014,2.587-5.129.027L988.237,840l15.677-7.612Z" transform="translate(-980.484 -818.574)" fill="#e3f2fd"/>
        <path id="Trazado_264-80" data-name="Trazado 264" d="M1009.99,822.944l-23.491,11.4,4.638,13.032a20.642,20.642,0,0,1,9.727-2.8c5.232-.027,9.1,2.556,12.274,4.67,4.705,3.144,7.97,5.285,14.928,1.253l5.526-16.409Z" transform="translate(-986.498 -803.452)" fill="#e3f2fd"/>
      </g>
    </g>
    <g id="Grupo_953-41" data-name="Grupo 953" transform="translate(1338 -2994)">
      <g id="Grupo_951-41" data-name="Grupo 951" transform="translate(42.002 4109)">
        <path id="Trazado_263-81" data-name="Trazado 263" d="M1019.672,839.837l-1.413-12.347-5.312.028-.014-2.587-5.5.03-.73-6.387-5.713.03L1000.32,825l-5.5.029.014,2.587-5.129.027L988.237,840l15.677-7.612Z" transform="translate(-980.486 -818.574)" fill="#e3f2fd"/>
        <path id="Trazado_264-81" data-name="Trazado 264" d="M1009.99,822.944l-23.491,11.4,4.638,13.032a20.642,20.642,0,0,1,9.727-2.8c5.232-.027,9.1,2.556,12.274,4.67,4.705,3.144,7.97,5.285,14.928,1.253l5.526-16.409Z" transform="translate(-986.5 -803.452)" fill="#e3f2fd"/>
      </g>
      <g id="Grupo_952-41" data-name="Grupo 952" transform="translate(176.082 4214.532)">
        <path id="Trazado_263-82" data-name="Trazado 263" d="M1019.672,839.837l-1.413-12.347-5.312.028-.014-2.587-5.5.03-.73-6.387-5.713.03L1000.32,825l-5.5.029.014,2.587-5.129.027L988.237,840l15.677-7.612Z" transform="translate(-980.484 -818.574)" fill="#e3f2fd"/>
        <path id="Trazado_264-82" data-name="Trazado 264" d="M1009.99,822.944l-23.491,11.4,4.638,13.032a20.642,20.642,0,0,1,9.727-2.8c5.232-.027,9.1,2.556,12.274,4.67,4.705,3.144,7.97,5.285,14.928,1.253l5.526-16.409Z" transform="translate(-986.498 -803.452)" fill="#e3f2fd"/>
      </g>
    </g>
    <g id="Grupo_953-42" data-name="Grupo 953" transform="translate(1614 -2994)">
      <g id="Grupo_951-42" data-name="Grupo 951" transform="translate(42.002 4109)">
        <path id="Trazado_263-83" data-name="Trazado 263" d="M1019.672,839.837l-1.413-12.347-5.312.028-.014-2.587-5.5.03-.73-6.387-5.713.03L1000.32,825l-5.5.029.014,2.587-5.129.027L988.237,840l15.677-7.612Z" transform="translate(-980.486 -818.574)" fill="#e3f2fd"/>
        <path id="Trazado_264-83" data-name="Trazado 264" d="M1009.99,822.944l-23.491,11.4,4.638,13.032a20.642,20.642,0,0,1,9.727-2.8c5.232-.027,9.1,2.556,12.274,4.67,4.705,3.144,7.97,5.285,14.928,1.253l5.526-16.409Z" transform="translate(-986.5 -803.452)" fill="#e3f2fd"/>
      </g>
      <g id="Grupo_952-42" data-name="Grupo 952" transform="translate(176.082 4214.532)">
        <path id="Trazado_263-84" data-name="Trazado 263" d="M1019.672,839.837l-1.413-12.347-5.312.028-.014-2.587-5.5.03-.73-6.387-5.713.03L1000.32,825l-5.5.029.014,2.587-5.129.027L988.237,840l15.677-7.612Z" transform="translate(-980.484 -818.574)" fill="#e3f2fd"/>
        <path id="Trazado_264-84" data-name="Trazado 264" d="M1009.99,822.944l-23.491,11.4,4.638,13.032a20.642,20.642,0,0,1,9.727-2.8c5.232-.027,9.1,2.556,12.274,4.67,4.705,3.144,7.97,5.285,14.928,1.253l5.526-16.409Z" transform="translate(-986.498 -803.452)" fill="#e3f2fd"/>
      </g>
    </g>
    <g id="Grupo_953-43" data-name="Grupo 953" transform="translate(-42 -2771)">
      <g id="Grupo_951-43" data-name="Grupo 951" transform="translate(42.002 4109)">
        <path id="Trazado_263-85" data-name="Trazado 263" d="M1019.672,839.837l-1.413-12.347-5.312.028-.014-2.587-5.5.03-.73-6.387-5.713.03L1000.32,825l-5.5.029.014,2.587-5.129.027L988.237,840l15.677-7.612Z" transform="translate(-980.486 -818.574)" fill="#e3f2fd"/>
        <path id="Trazado_264-85" data-name="Trazado 264" d="M1009.99,822.944l-23.491,11.4,4.638,13.032a20.642,20.642,0,0,1,9.727-2.8c5.232-.027,9.1,2.556,12.274,4.67,4.705,3.144,7.97,5.285,14.928,1.253l5.526-16.409Z" transform="translate(-986.5 -803.452)" fill="#e3f2fd"/>
      </g>
      <g id="Grupo_952-43" data-name="Grupo 952" transform="translate(176.082 4214.532)">
        <path id="Trazado_263-86" data-name="Trazado 263" d="M1019.672,839.837l-1.413-12.347-5.312.028-.014-2.587-5.5.03-.73-6.387-5.713.03L1000.32,825l-5.5.029.014,2.587-5.129.027L988.237,840l15.677-7.612Z" transform="translate(-980.484 -818.574)" fill="#e3f2fd"/>
        <path id="Trazado_264-86" data-name="Trazado 264" d="M1009.99,822.944l-23.491,11.4,4.638,13.032a20.642,20.642,0,0,1,9.727-2.8c5.232-.027,9.1,2.556,12.274,4.67,4.705,3.144,7.97,5.285,14.928,1.253l5.526-16.409Z" transform="translate(-986.498 -803.452)" fill="#e3f2fd"/>
      </g>
    </g>
    <g id="Grupo_953-44" data-name="Grupo 953" transform="translate(234 -2771)">
      <g id="Grupo_951-44" data-name="Grupo 951" transform="translate(42.002 4109)">
        <path id="Trazado_263-87" data-name="Trazado 263" d="M1019.672,839.837l-1.413-12.347-5.312.028-.014-2.587-5.5.03-.73-6.387-5.713.03L1000.32,825l-5.5.029.014,2.587-5.129.027L988.237,840l15.677-7.612Z" transform="translate(-980.486 -818.574)" fill="#e3f2fd"/>
        <path id="Trazado_264-87" data-name="Trazado 264" d="M1009.99,822.944l-23.491,11.4,4.638,13.032a20.642,20.642,0,0,1,9.727-2.8c5.232-.027,9.1,2.556,12.274,4.67,4.705,3.144,7.97,5.285,14.928,1.253l5.526-16.409Z" transform="translate(-986.5 -803.452)" fill="#e3f2fd"/>
      </g>
      <g id="Grupo_952-44" data-name="Grupo 952" transform="translate(176.082 4214.532)">
        <path id="Trazado_263-88" data-name="Trazado 263" d="M1019.672,839.837l-1.413-12.347-5.312.028-.014-2.587-5.5.03-.73-6.387-5.713.03L1000.32,825l-5.5.029.014,2.587-5.129.027L988.237,840l15.677-7.612Z" transform="translate(-980.484 -818.574)" fill="#e3f2fd"/>
        <path id="Trazado_264-88" data-name="Trazado 264" d="M1009.99,822.944l-23.491,11.4,4.638,13.032a20.642,20.642,0,0,1,9.727-2.8c5.232-.027,9.1,2.556,12.274,4.67,4.705,3.144,7.97,5.285,14.928,1.253l5.526-16.409Z" transform="translate(-986.498 -803.452)" fill="#e3f2fd"/>
      </g>
    </g>
    <g id="Grupo_953-45" data-name="Grupo 953" transform="translate(510 -2771)">
      <g id="Grupo_951-45" data-name="Grupo 951" transform="translate(42.002 4109)">
        <path id="Trazado_263-89" data-name="Trazado 263" d="M1019.672,839.837l-1.413-12.347-5.312.028-.014-2.587-5.5.03-.73-6.387-5.713.03L1000.32,825l-5.5.029.014,2.587-5.129.027L988.237,840l15.677-7.612Z" transform="translate(-980.486 -818.574)" fill="#e3f2fd"/>
        <path id="Trazado_264-89" data-name="Trazado 264" d="M1009.99,822.944l-23.491,11.4,4.638,13.032a20.642,20.642,0,0,1,9.727-2.8c5.232-.027,9.1,2.556,12.274,4.67,4.705,3.144,7.97,5.285,14.928,1.253l5.526-16.409Z" transform="translate(-986.5 -803.452)" fill="#e3f2fd"/>
      </g>
      <g id="Grupo_952-45" data-name="Grupo 952" transform="translate(176.082 4214.532)">
        <path id="Trazado_263-90" data-name="Trazado 263" d="M1019.672,839.837l-1.413-12.347-5.312.028-.014-2.587-5.5.03-.73-6.387-5.713.03L1000.32,825l-5.5.029.014,2.587-5.129.027L988.237,840l15.677-7.612Z" transform="translate(-980.484 -818.574)" fill="#e3f2fd"/>
        <path id="Trazado_264-90" data-name="Trazado 264" d="M1009.99,822.944l-23.491,11.4,4.638,13.032a20.642,20.642,0,0,1,9.727-2.8c5.232-.027,9.1,2.556,12.274,4.67,4.705,3.144,7.97,5.285,14.928,1.253l5.526-16.409Z" transform="translate(-986.498 -803.452)" fill="#e3f2fd"/>
      </g>
    </g>
    <g id="Grupo_953-46" data-name="Grupo 953" transform="translate(786 -2771)">
      <g id="Grupo_951-46" data-name="Grupo 951" transform="translate(42.002 4109)">
        <path id="Trazado_263-91" data-name="Trazado 263" d="M1019.672,839.837l-1.413-12.347-5.312.028-.014-2.587-5.5.03-.73-6.387-5.713.03L1000.32,825l-5.5.029.014,2.587-5.129.027L988.237,840l15.677-7.612Z" transform="translate(-980.486 -818.574)" fill="#e3f2fd"/>
        <path id="Trazado_264-91" data-name="Trazado 264" d="M1009.99,822.944l-23.491,11.4,4.638,13.032a20.642,20.642,0,0,1,9.727-2.8c5.232-.027,9.1,2.556,12.274,4.67,4.705,3.144,7.97,5.285,14.928,1.253l5.526-16.409Z" transform="translate(-986.5 -803.452)" fill="#e3f2fd"/>
      </g>
      <g id="Grupo_952-46" data-name="Grupo 952" transform="translate(176.082 4214.532)">
        <path id="Trazado_263-92" data-name="Trazado 263" d="M1019.672,839.837l-1.413-12.347-5.312.028-.014-2.587-5.5.03-.73-6.387-5.713.03L1000.32,825l-5.5.029.014,2.587-5.129.027L988.237,840l15.677-7.612Z" transform="translate(-980.484 -818.574)" fill="#e3f2fd"/>
        <path id="Trazado_264-92" data-name="Trazado 264" d="M1009.99,822.944l-23.491,11.4,4.638,13.032a20.642,20.642,0,0,1,9.727-2.8c5.232-.027,9.1,2.556,12.274,4.67,4.705,3.144,7.97,5.285,14.928,1.253l5.526-16.409Z" transform="translate(-986.498 -803.452)" fill="#e3f2fd"/>
      </g>
    </g>
    <g id="Grupo_953-47" data-name="Grupo 953" transform="translate(1062 -2771)">
      <g id="Grupo_951-47" data-name="Grupo 951" transform="translate(42.002 4109)">
        <path id="Trazado_263-93" data-name="Trazado 263" d="M1019.672,839.837l-1.413-12.347-5.312.028-.014-2.587-5.5.03-.73-6.387-5.713.03L1000.32,825l-5.5.029.014,2.587-5.129.027L988.237,840l15.677-7.612Z" transform="translate(-980.486 -818.574)" fill="#e3f2fd"/>
        <path id="Trazado_264-93" data-name="Trazado 264" d="M1009.99,822.944l-23.491,11.4,4.638,13.032a20.642,20.642,0,0,1,9.727-2.8c5.232-.027,9.1,2.556,12.274,4.67,4.705,3.144,7.97,5.285,14.928,1.253l5.526-16.409Z" transform="translate(-986.5 -803.452)" fill="#e3f2fd"/>
      </g>
      <g id="Grupo_952-47" data-name="Grupo 952" transform="translate(176.082 4214.532)">
        <path id="Trazado_263-94" data-name="Trazado 263" d="M1019.672,839.837l-1.413-12.347-5.312.028-.014-2.587-5.5.03-.73-6.387-5.713.03L1000.32,825l-5.5.029.014,2.587-5.129.027L988.237,840l15.677-7.612Z" transform="translate(-980.484 -818.574)" fill="#e3f2fd"/>
        <path id="Trazado_264-94" data-name="Trazado 264" d="M1009.99,822.944l-23.491,11.4,4.638,13.032a20.642,20.642,0,0,1,9.727-2.8c5.232-.027,9.1,2.556,12.274,4.67,4.705,3.144,7.97,5.285,14.928,1.253l5.526-16.409Z" transform="translate(-986.498 -803.452)" fill="#e3f2fd"/>
      </g>
    </g>
    <g id="Grupo_953-48" data-name="Grupo 953" transform="translate(1338 -2771)">
      <g id="Grupo_951-48" data-name="Grupo 951" transform="translate(42.002 4109)">
        <path id="Trazado_263-95" data-name="Trazado 263" d="M1019.672,839.837l-1.413-12.347-5.312.028-.014-2.587-5.5.03-.73-6.387-5.713.03L1000.32,825l-5.5.029.014,2.587-5.129.027L988.237,840l15.677-7.612Z" transform="translate(-980.486 -818.574)" fill="#e3f2fd"/>
        <path id="Trazado_264-95" data-name="Trazado 264" d="M1009.99,822.944l-23.491,11.4,4.638,13.032a20.642,20.642,0,0,1,9.727-2.8c5.232-.027,9.1,2.556,12.274,4.67,4.705,3.144,7.97,5.285,14.928,1.253l5.526-16.409Z" transform="translate(-986.5 -803.452)" fill="#e3f2fd"/>
      </g>
      <g id="Grupo_952-48" data-name="Grupo 952" transform="translate(176.082 4214.532)">
        <path id="Trazado_263-96" data-name="Trazado 263" d="M1019.672,839.837l-1.413-12.347-5.312.028-.014-2.587-5.5.03-.73-6.387-5.713.03L1000.32,825l-5.5.029.014,2.587-5.129.027L988.237,840l15.677-7.612Z" transform="translate(-980.484 -818.574)" fill="#e3f2fd"/>
        <path id="Trazado_264-96" data-name="Trazado 264" d="M1009.99,822.944l-23.491,11.4,4.638,13.032a20.642,20.642,0,0,1,9.727-2.8c5.232-.027,9.1,2.556,12.274,4.67,4.705,3.144,7.97,5.285,14.928,1.253l5.526-16.409Z" transform="translate(-986.498 -803.452)" fill="#e3f2fd"/>
      </g>
    </g>
    <g id="Grupo_953-49" data-name="Grupo 953" transform="translate(1614 -2771)">
      <g id="Grupo_951-49" data-name="Grupo 951" transform="translate(42.002 4109)">
        <path id="Trazado_263-97" data-name="Trazado 263" d="M1019.672,839.837l-1.413-12.347-5.312.028-.014-2.587-5.5.03-.73-6.387-5.713.03L1000.32,825l-5.5.029.014,2.587-5.129.027L988.237,840l15.677-7.612Z" transform="translate(-980.486 -818.574)" fill="#e3f2fd"/>
        <path id="Trazado_264-97" data-name="Trazado 264" d="M1009.99,822.944l-23.491,11.4,4.638,13.032a20.642,20.642,0,0,1,9.727-2.8c5.232-.027,9.1,2.556,12.274,4.67,4.705,3.144,7.97,5.285,14.928,1.253l5.526-16.409Z" transform="translate(-986.5 -803.452)" fill="#e3f2fd"/>
      </g>
      <g id="Grupo_952-49" data-name="Grupo 952" transform="translate(176.082 4214.532)">
        <path id="Trazado_263-98" data-name="Trazado 263" d="M1019.672,839.837l-1.413-12.347-5.312.028-.014-2.587-5.5.03-.73-6.387-5.713.03L1000.32,825l-5.5.029.014,2.587-5.129.027L988.237,840l15.677-7.612Z" transform="translate(-980.484 -818.574)" fill="#e3f2fd"/>
        <path id="Trazado_264-98" data-name="Trazado 264" d="M1009.99,822.944l-23.491,11.4,4.638,13.032a20.642,20.642,0,0,1,9.727-2.8c5.232-.027,9.1,2.556,12.274,4.67,4.705,3.144,7.97,5.285,14.928,1.253l5.526-16.409Z" transform="translate(-986.498 -803.452)" fill="#e3f2fd"/>
      </g>
    </g>
  </g>
</svg>
